<?xml version="1.0" encoding="UTF-8"?>
<svg version="1.1" xmlns="http://www.w3.org/2000/svg" width="1600" height="1600">
<path d="M0 0 C3.72573042 0.00779684 7.45142785 -0.00224128 11.17715318 -0.00973 C17.66996709 -0.02043674 24.16270583 -0.02031694 30.65552295 -0.01258852 C40.31135582 -0.001127 49.96712659 -0.00710065 59.62295919 -0.01621344 C76.87919294 -0.03192584 94.13539315 -0.0306756 111.39163001 -0.0219767 C126.49307204 -0.01440227 141.59450185 -0.0124728 156.69594539 -0.01604463 C157.70128001 -0.01627379 158.70661462 -0.01650294 159.74241392 -0.01673904 C163.82433493 -0.0176732 167.90625594 -0.01862841 171.98817693 -0.01961833 C210.20612323 -0.02877597 248.42404829 -0.02050564 286.6419913 -0.00432764 C320.52922019 0.0099081 354.41641524 0.00863212 388.30364383 -0.00571062 C426.45735214 -0.02180553 464.61104171 -0.02812735 502.76475293 -0.01887383 C506.83852729 -0.01791181 510.91230165 -0.01697328 514.98607601 -0.01604463 C515.98899773 -0.0158074 516.99191946 -0.01557017 518.02523275 -0.01532575 C533.11067226 -0.01192622 548.19609814 -0.01587997 563.28153575 -0.02348329 C580.44901493 -0.03209334 597.6164556 -0.02984814 614.78393002 -0.01364106 C624.36904985 -0.00488845 633.95408614 -0.00417491 643.53920365 -0.01557958 C649.96681491 -0.02237814 656.39436014 -0.01799344 662.82196172 -0.00506528 C666.46717217 0.00197213 670.11221851 0.00472417 673.75742294 -0.00628323 C776.9415268 -0.29451843 878.62724837 35.21325079 985.77410282 122.38540266 C986.70738407 123.22587141 987.64066532 124.06634016 988.60222782 124.93227766 C998.2189196 133.62062544 1007.72528819 142.55763346 1016.11785282 152.45180891 C1018.03395859 154.68877202 1020.02923138 156.84343844 1022.02410282 159.01040266 C1027.1224601 164.66274104 1031.78253035 170.61997129 1036.42742313 176.64468001 C1037.67678147 178.25960477 1038.93973155 179.86398959 1040.20379032 181.46743391 C1052.6209626 197.32477359 1063.73617098 213.92968193 1073.77410282 231.38540266 C1074.20142704 232.12435774 1074.62875125 232.86331282 1075.06902469 233.62466048 C1102.2717719 280.87935472 1120.61393089 332.30257795 1130.08660282 385.94790266 C1130.4324744 387.87678328 1130.4324744 387.87678328 1130.78533329 389.84463118 C1134.96453983 414.26790098 1136.23396756 438.82315916 1136.15950548 463.55891207 C1136.15171707 467.2947161 1136.16174363 471.03048694 1136.16923548 474.76628588 C1136.17994806 481.27833721 1136.17981868 487.79031361 1136.172094 494.30236815 C1136.160638 503.98682282 1136.16660337 513.67121553 1136.17571892 523.35566993 C1136.19143568 540.66280024 1136.19017927 557.96989713 1136.18148218 575.27703054 C1136.173909 590.42360126 1136.1719777 605.57015978 1136.17555011 620.71673201 C1136.17577927 621.72490806 1136.17600842 622.7330841 1136.17624452 623.77181094 C1136.17717867 627.86523716 1136.17813389 631.95866338 1136.17912381 636.05208959 C1136.18828256 674.3821548 1136.18000948 712.71219883 1136.16383312 751.04226076 C1136.14959835 785.03002513 1136.15087231 819.01775577 1136.1652161 853.00551985 C1136.18131092 891.26945733 1136.18763279 929.53337614 1136.17837931 967.79731653 C1136.17741728 971.88290212 1136.17647875 975.96848772 1136.17555011 980.05407332 C1136.17519427 981.56282511 1136.17519427 981.56282511 1136.17483123 983.10205673 C1136.17143155 998.23200248 1136.17538575 1013.36193463 1136.18298877 1028.49187849 C1136.19159877 1045.71061878 1136.18935378 1062.92932069 1136.17314654 1080.14805625 C1136.16439363 1089.76205408 1136.16368082 1099.37596861 1136.17508506 1108.98996413 C1136.1818833 1115.43686009 1136.17749947 1121.8836902 1136.16457076 1128.3305765 C1136.15753289 1131.98681899 1136.15478233 1135.64289786 1136.16578871 1139.29913436 C1136.23652478 1164.66669513 1134.56938952 1189.82298701 1130.08660282 1214.82290266 C1129.96093937 1215.5345558 1129.83527591 1216.24620894 1129.70580448 1216.97942732 C1118.75425586 1278.65424884 1095.27808147 1338.07178277 1060.77410282 1390.38540266 C1060.11208866 1391.39280501 1060.11208866 1391.39280501 1059.43670047 1392.42055891 C1046.03184788 1412.69155735 1030.90426167 1431.74935127 1014.38347782 1449.55727766 C1012.02105556 1452.1177473 1009.70618487 1454.71270034 1007.39910282 1457.32290266 C1000.0905799 1465.45806282 992.37632041 1473.39531844 984.02800907 1480.47134016 C982.18156718 1482.03937573 980.36320238 1483.62940208 978.55144657 1485.23696516 C969.93504028 1492.8508701 961.0377927 1499.97873111 951.82341922 1506.85512923 C949.8986649 1508.29238918 947.98241807 1509.74033286 946.06707157 1511.19009016 C888.91806338 1554.12146475 820.72768657 1582.22195351 750.52410282 1594.63540266 C749.23189823 1594.86952864 747.93969364 1595.10365462 746.60833133 1595.34487532 C721.78969434 1599.63968263 696.69489101 1600.84681747 671.554407 1600.77080533 C667.82956518 1600.76300841 664.10475638 1600.77304664 660.37991966 1600.78053532 C653.88863609 1600.79124205 647.39742771 1600.79112228 640.90614093 1600.78339384 C631.25253016 1600.77193226 621.59898151 1600.77790603 611.94537101 1600.78701876 C594.69281778 1600.80273132 577.44029808 1600.80148082 560.18774174 1600.79278203 C545.08889051 1600.78520739 529.99005151 1600.78327822 514.89119876 1600.78684996 C513.88600928 1600.78707911 512.88081979 1600.78730827 511.84517001 1600.78754437 C507.76382024 1600.78847853 503.68247047 1600.78943374 499.60112071 1600.79042366 C461.3879197 1600.7995814 423.17473994 1600.79131092 384.96154221 1600.77513297 C351.08101718 1600.7608983 317.20052599 1600.76217228 283.32000125 1600.77651594 C245.1725093 1600.79261246 207.02503608 1600.7989317 168.87754119 1600.78967915 C164.80402976 1600.78871714 160.73051832 1600.78777861 156.65700687 1600.78684996 C155.65415257 1600.78661273 154.65129826 1600.78637549 153.61805444 1600.78613107 C138.53616443 1600.78273209 123.45428805 1600.78668428 108.37239994 1600.79428862 C91.20751121 1600.80290056 74.04266098 1600.80064956 56.87777699 1600.78444639 C47.2950892 1600.77569669 37.71248499 1600.7749759 28.12979953 1600.78638491 C21.70253304 1600.79318711 15.27533255 1600.78879243 8.84807572 1600.7758706 C5.20388241 1600.76883804 1.55985314 1600.76607037 -2.08433412 1600.77708855 C-27.78091769 1600.84905056 -53.40267659 1599.26844295 -78.72589718 1594.69790266 C-79.43505276 1594.57223921 -80.14420834 1594.44657576 -80.87485348 1594.31710432 C-144.73482239 1582.94642537 -206.77947194 1558.26813025 -260.22589718 1521.38540266 C-261.18230099 1520.72653059 -261.18230099 1520.72653059 -262.15802609 1520.05434798 C-280.24669241 1507.55518533 -297.2772588 1493.94613437 -313.39777218 1478.99477766 C-315.95824182 1476.6323554 -318.55319486 1474.31748471 -321.16339718 1472.01040266 C-329.40865747 1464.60296721 -337.39596135 1456.77620937 -344.56964718 1448.31899641 C-346.48575295 1446.08203331 -348.48102574 1443.92736688 -350.47589718 1441.76040266 C-355.57425446 1436.10806429 -360.23432472 1430.15083404 -364.8792175 1424.12612532 C-366.12857584 1422.51120056 -367.39152591 1420.90681573 -368.65558468 1419.30337141 C-431.29759236 1339.30644685 -464.91642132 1238.57099263 -464.61129985 1137.21189326 C-464.60351144 1133.47608923 -464.613538 1129.74031838 -464.62102984 1126.00451945 C-464.63174242 1119.49246812 -464.63161304 1112.98049172 -464.62388836 1106.46843718 C-464.61243236 1096.7839825 -464.61839773 1087.0995898 -464.62751328 1077.4151354 C-464.64323004 1060.10800509 -464.64197364 1042.8009082 -464.63327655 1025.49377478 C-464.62570337 1010.34720407 -464.62377207 995.20064554 -464.62734448 980.05407332 C-464.62757363 979.04589727 -464.62780279 978.03772122 -464.62803889 976.99899439 C-464.62897304 972.90556816 -464.62992825 968.81214195 -464.63091818 964.71871574 C-464.64007692 926.38865053 -464.63180384 888.0586065 -464.61562749 849.72854456 C-464.60139271 815.74078019 -464.60266668 781.75304955 -464.61701046 747.76528548 C-464.63310528 709.50134799 -464.63942716 671.23742919 -464.63017367 632.97348879 C-464.62921165 628.8879032 -464.62827312 624.80231761 -464.62734448 620.71673201 C-464.62710725 619.71089748 -464.62687001 618.70506295 -464.62662559 617.66874859 C-464.62322592 602.53880285 -464.62718012 587.40887069 -464.63478314 572.27892683 C-464.64339314 555.06018654 -464.64114814 537.84148463 -464.62494091 520.62274907 C-464.616188 511.00875124 -464.61547519 501.39483671 -464.62687943 491.7808412 C-464.63367766 485.33394524 -464.62929384 478.88711513 -464.61636512 472.44022882 C-464.60932726 468.78398633 -464.6065767 465.12790747 -464.61758307 461.47167097 C-464.68831915 436.1041102 -463.02118389 410.94781832 -458.53839718 385.94790266 C-458.41273373 385.23624953 -458.28707028 384.52459639 -458.15759884 383.791378 C-444.01156346 304.12646139 -409.17934018 229.41260693 -357.22589718 167.38540266 C-356.73266964 166.79307844 -356.2394421 166.20075423 -355.73126828 165.59048079 C-342.36820283 149.581573 -328.10549383 133.6075494 -312.19464718 120.07680891 C-309.94808211 118.14672424 -307.78005814 116.14122127 -305.60089718 114.13540266 C-300.00253245 109.09090963 -294.11920074 104.46873194 -288.15167843 99.87417219 C-286.18837691 98.35639675 -284.23793355 96.82314993 -282.28839718 95.28774641 C-266.75612272 83.13415538 -250.33366956 72.19616829 -233.22589718 62.38540266 C-232.56654171 62.00496809 -231.90718625 61.62453352 -231.22785031 61.23257063 C-203.52605593 45.32029579 -174.60785085 32.29385906 -144.22589718 22.38540266 C-142.93764035 21.96097883 -142.93764035 21.96097883 -141.62335812 21.52798079 C-95.69949865 6.53720441 -48.19197147 -0.14567159 0 0 Z M-208.22589718 194.38540266 C-209.17078 195.1163011 -210.11566281 195.84719954 -211.08917843 196.60024641 C-216.1115157 200.54469481 -220.89816977 204.70310543 -225.60870968 209.01430891 C-227.72751995 210.93388776 -229.87127643 212.80972116 -232.03449093 214.67837141 C-236.2336493 218.34624581 -240.22408485 222.19128805 -244.16339718 226.13540266 C-245.21370114 227.18691511 -245.21370114 227.18691511 -246.28522335 228.25967024 C-250.85575037 232.88427379 -255.09546506 237.59474772 -259.10870968 242.71352766 C-261.02087903 245.12667126 -263.01344069 247.44350418 -265.04620968 249.75503157 C-300.43693289 290.34060736 -323.10136821 343.21838731 -334.10089718 395.51040266 C-334.5121484 397.43420759 -334.5121484 397.43420759 -334.93170773 399.39687727 C-339.55348049 421.97255331 -340.68156343 444.72362987 -340.61750121 467.7080525 C-340.61066064 471.3899822 -340.62152149 475.07187326 -340.62989705 478.75379406 C-340.6421539 485.17750974 -340.64352459 491.60115226 -340.63734662 498.02487562 C-340.6281838 507.57815403 -340.63634461 517.13136582 -340.64763786 526.68463916 C-340.66722509 543.757284 -340.66966745 560.82989835 -340.66444265 577.90255175 C-340.65987171 592.84754727 -340.66050175 607.79253078 -340.666283 622.73752592 C-340.66703989 624.74825798 -340.66779587 626.75899003 -340.66855095 628.76972208 C-340.66969624 631.80035026 -340.67084613 634.83097844 -340.67201019 637.86160661 C-340.68270311 666.00923185 -340.68745293 694.15685312 -340.67954003 722.30447958 C-340.67924285 723.36379005 -340.67894568 724.42310052 -340.6786395 725.5145113 C-340.67619099 734.11484654 -340.67357919 742.71518173 -340.67095537 751.31551692 C-340.66085701 784.84615541 -340.66920547 818.37674381 -340.69244992 851.90737532 C-340.71857278 889.65051972 -340.73135698 927.39363398 -340.72426217 965.13678776 C-340.7235462 969.16798677 -340.7228718 973.19918579 -340.72222172 977.23038481 C-340.72205191 978.22283899 -340.7218821 979.21529317 -340.72170715 980.23782171 C-340.71941262 995.16193149 -340.72734058 1010.0860131 -340.7405132 1025.01011656 C-340.75548364 1042.00053429 -340.75618889 1058.99088639 -340.73844228 1075.9813028 C-340.72894089 1085.46602219 -340.7301866 1094.95058815 -340.74767697 1104.43529701 C-340.75827861 1110.79871365 -340.7539114 1117.16201516 -340.73819694 1123.52542071 C-340.72968405 1127.13245221 -340.72683858 1130.73918653 -340.74246625 1134.34620112 C-341.06756169 1215.12737467 -313.58997214 1293.59213239 -261.22589718 1355.38540266 C-260.37622638 1356.41997419 -259.52730912 1357.4551649 -258.67902218 1358.49087141 C-246.89537172 1372.72364012 -233.81893655 1386.03778263 -219.22589718 1397.38540266 C-217.3482017 1398.9864134 -215.47335673 1400.59077139 -213.60089718 1402.19790266 C-206.14376604 1408.40737994 -198.26478064 1413.95772112 -190.22589718 1419.38540266 C-189.50579464 1419.87266829 -188.7856921 1420.35993391 -188.04376828 1420.86196516 C-148.24474128 1447.51938374 -102.96431159 1464.62616035 -55.85089718 1472.63540266 C-54.96200802 1472.78654524 -54.07311886 1472.93768782 -53.15729367 1473.09341048 C-50.18497093 1473.56881041 -47.20876685 1473.98090439 -44.22589718 1474.38540266 C-42.99560319 1474.55436981 -41.76530921 1474.72333696 -40.49773358 1474.89742432 C-26.31107448 1476.68719289 -12.16012819 1476.67624084 2.11862311 1476.65474049 C5.79900663 1476.65143343 9.47936848 1476.65978955 13.15974475 1476.66655884 C19.59314806 1476.67680475 26.02652131 1476.67971212 32.45993198 1476.67764662 C42.02775433 1476.67458239 51.5955437 1476.68295203 61.16335961 1476.69339587 C79.25273593 1476.71269105 97.34210087 1476.71836246 115.43148627 1476.71950999 C129.41006218 1476.72043092 143.38863366 1476.72455719 157.36720813 1476.73091124 C161.39862435 1476.73270649 165.43004056 1476.73448611 169.46145679 1476.73626099 C170.96503417 1476.73692414 170.96503417 1476.73692414 172.49898685 1476.73760068 C200.67803369 1476.74990165 228.857079 1476.75780259 257.03612865 1476.75691412 C258.09756724 1476.75688296 259.15900584 1476.75685181 260.25260924 1476.75681971 C265.63174935 1476.7566535 271.01088946 1476.75645542 276.39002957 1476.75625029 C277.99234228 1476.75619045 277.99234228 1476.75619045 279.62702494 1476.75612941 C281.78720306 1476.75604854 283.94738118 1476.75596494 286.10755929 1476.75587863 C319.69059765 1476.75465406 353.27359556 1476.76965202 386.85662235 1476.79702376 C424.63779439 1476.8278049 462.41893986 1476.84495256 500.20012523 1476.84309731 C504.23594241 1476.84294807 508.2717596 1476.84285064 512.30757679 1476.84278868 C513.79801606 1476.84275372 513.79801606 1476.84275372 515.31856521 1476.84271805 C531.247429 1476.84265673 547.17625744 1476.85538034 563.10511074 1476.87265321 C579.14138866 1476.88968171 595.17761537 1476.89152748 611.21389737 1476.87843457 C620.71635322 1476.87109275 630.21865255 1476.87455894 639.72109152 1476.89431925 C646.09660899 1476.90644614 652.47201487 1476.90358961 658.84752753 1476.88937825 C662.46161613 1476.88172043 666.07540527 1476.87974902 669.68947103 1476.89629295 C745.33830544 1477.21933084 819.98724285 1453.22421439 879.77410282 1406.38540266 C880.33790653 1405.94470442 880.90171024 1405.50400618 881.48259891 1405.04995344 C887.35305781 1400.42703627 892.94348552 1395.5144347 898.46160282 1390.47915266 C900.43065873 1388.6963588 902.43300484 1386.9742182 904.46160282 1385.26040266 C913.93620635 1376.97975323 922.90026435 1367.9196584 930.68425907 1358.03384016 C932.89479507 1355.23245061 935.20338134 1352.53350534 937.52410282 1349.82290266 C983.28155191 1294.78646622 1012.00374052 1219.50003218 1011.90832389 1147.74088381 C1011.91067612 1146.51960694 1011.91302835 1145.29833006 1011.91545186 1144.0400448 C1011.92093559 1140.67057428 1011.92201825 1137.30115619 1011.92117446 1133.93168493 C1011.92134513 1130.25778737 1011.92726441 1126.58389811 1011.93241532 1122.91000478 C1011.94170855 1115.63206508 1011.94565782 1108.35413147 1011.94793428 1101.07618659 C1011.95090503 1092.35410609 1011.95960767 1083.63203358 1011.96834856 1074.90995729 C1011.98916103 1053.82805678 1011.99965872 1032.7461549 1012.00847817 1011.66424651 C1012.01269027 1001.68066147 1012.01791157 991.69707704 1012.0231627 981.7134925 C1012.04105237 947.50547904 1012.05604512 913.2974654 1012.06348289 879.08944796 C1012.06395764 876.94305936 1012.06443353 874.79667077 1012.06491055 872.65028217 C1012.06514693 871.5859161 1012.0653833 870.52155003 1012.06562684 869.42493045 C1012.06682798 864.03276689 1012.06804345 858.64060333 1012.06926883 853.24843977 C1012.06962906 851.64333193 1012.06962906 851.64333193 1012.06999656 850.00579766 C1012.07788153 815.34683596 1012.10129705 780.68790856 1012.13382478 746.02896183 C1012.16819043 709.34431987 1012.18784036 672.65969796 1012.19112713 635.97503964 C1012.19154463 631.94079854 1012.19202419 627.90655744 1012.19255031 623.87231634 C1012.1926735 622.87904781 1012.1927967 621.88577928 1012.19292362 620.8624117 C1012.19524751 604.93594986 1012.21086214 589.00952811 1012.23139216 573.08308052 C1012.25173672 557.04483137 1012.25708695 541.00662994 1012.24762152 524.96837028 C1012.2424396 515.46372524 1012.24812564 505.95924007 1012.2701562 496.45461832 C1012.28380866 490.07739883 1012.28246214 483.7002876 1012.26975424 477.32306667 C1012.26295185 473.70787779 1012.26185331 470.09299114 1012.27931433 466.47783109 C1012.6458677 385.43109989 984.76694411 307.57457102 932.77410282 245.38540266 C932.35886356 244.87847883 931.9436243 244.37155501 931.51580204 243.84926985 C919.37572447 229.03103407 905.90947702 215.14950192 890.77410282 203.38540266 C888.91699736 201.80551729 887.06300952 200.22196236 885.21160282 198.63540266 C865.9680767 182.66475247 844.53271913 168.89478501 821.83855594 158.35415266 C819.56817336 157.28876973 817.32095414 156.1806947 815.07097782 155.07290266 C783.99661055 140.06483994 749.90389608 130.86045098 715.77410282 126.38540266 C714.53614481 126.21643551 713.29818681 126.04746837 712.02271492 125.873381 C697.83047285 124.08014392 683.67307688 124.0945917 669.38844195 124.11606483 C665.70203681 124.11937178 662.01565331 124.11101587 658.32925541 124.10424648 C651.88530938 124.09400044 645.44139336 124.09109323 638.99743999 124.09315871 C629.4139943 124.09622288 619.83058154 124.08785343 610.24714228 124.07740945 C592.12856545 124.05811437 574.00999999 124.05244288 555.89141409 124.05129534 C541.89089977 124.05037443 527.89038986 124.04624831 513.88987697 124.03989409 C509.85226651 124.03809885 505.81465603 124.03631922 501.77704556 124.03454433 C500.77312527 124.03410224 499.76920499 124.03366014 498.73486288 124.03320465 C470.5129468 124.02090378 442.29103226 124.01300273 414.06911338 124.0138912 C413.00606671 124.01392236 411.94302004 124.01395352 410.84775983 124.01398562 C405.4604552 124.01415182 400.07315058 124.0143499 394.68584596 124.01455504 C393.61601335 124.01459493 392.54618075 124.01463482 391.44392897 124.01467592 C389.28046683 124.01475679 387.11700468 124.01484039 384.95354254 124.0149267 C351.3168077 124.01615136 317.68011322 124.00115149 284.04338993 123.97378157 C246.20326383 123.94300366 208.36316426 123.92585256 170.52302487 123.92770801 C166.48132778 123.92785726 162.4396307 123.92795468 158.39793361 123.92801665 C157.40285686 123.92803995 156.4077801 123.92806326 155.38254951 123.92808728 C139.42745293 123.92814861 123.47239163 123.91542268 107.51730551 123.89815212 C91.45640035 123.8811277 75.39554633 123.87927471 59.33463709 123.89237076 C49.81641859 123.89971515 40.29835632 123.89623848 30.78015465 123.87648608 C24.39540657 123.86436603 18.01076999 123.86720839 11.62602674 123.88142708 C8.00584597 123.88909044 4.38596431 123.89103922 0.76580625 123.87451237 C-74.57294732 123.55368335 -148.74314749 147.90003673 -208.22589718 194.38540266 Z " fill="#000000" transform="translate(464.22589718271047,-0.38540266267955303)"/>
<path d="M0 0 C1.13375061 0.00182281 2.26750122 0.00364563 3.43560791 0.00552368 C21.63151694 0.05458089 39.46468871 0.7320709 57.5 3.3125 C58.72654297 3.48410645 59.95308594 3.65571289 61.21679688 3.83251953 C125.10614257 13.02174547 188.46694756 36.09239709 241.5 73.3125 C242.03995605 73.68938965 242.57991211 74.0662793 243.13623047 74.45458984 C258.6852051 85.32968187 273.75254655 96.87395046 287.69921875 109.7578125 C289.84058799 111.71102795 292.00538912 113.60841876 294.203125 115.49609375 C299.20748975 119.86216772 303.87879755 124.5451203 308.5625 129.25 C309.42166016 130.10529297 310.28082031 130.96058594 311.16601562 131.84179688 C316.15309469 136.83649562 320.92255364 141.94134491 325.5 147.3125 C326.345625 148.27671875 327.19125 149.2409375 328.0625 150.234375 C339.78022493 163.82994046 350.62654836 178.32318397 360.5 193.3125 C360.94375977 193.98506836 361.38751953 194.65763672 361.84472656 195.35058594 C380.65823964 224.06059203 396.07028402 254.94749819 407.5 287.3125 C407.88639648 288.40578613 408.27279297 289.49907227 408.67089844 290.62548828 C417.26979981 315.3302112 423.43186574 340.65128912 427.375 366.5 C427.56610352 367.74934326 427.75720703 368.99868652 427.95410156 370.28588867 C430.8114044 390.23644827 431.88184921 410.1081407 431.8125 430.25 C431.80976578 431.91269424 431.80976578 431.91269424 431.80697632 433.60897827 C431.75627109 452.0182789 431.00604317 470.0584517 428.5 488.3125 C428.33902832 489.51890137 428.17805664 490.72530273 428.01220703 491.96826172 C416.89819952 572.52079456 382.04906771 649.29241462 328.84179688 710.74414062 C327.51329011 712.29696585 326.21485102 713.87064754 324.921875 715.453125 C318.44977689 723.3010883 311.43818358 730.56271157 304.25 737.75 C303.77823334 738.22267303 303.30646667 738.69534607 302.82040405 739.18234253 C297.22157816 744.77995116 291.51948765 750.17160769 285.5 755.3125 C284.45161391 756.23787418 283.40466549 757.16488049 282.359375 758.09375 C207.74193342 823.68044504 107.79300816 862.11222781 1.625 862.5625 C0.46826782 862.56350708 -0.68846436 862.56451416 -1.88024902 862.56555176 C-20.27917777 862.55473223 -38.2666705 861.90108026 -56.5 859.3125 C-58.06427734 859.0956958 -58.06427734 859.0956958 -59.66015625 858.87451172 C-141.35344071 847.21695232 -218.20632458 812.40504729 -280.5 758.3125 C-281.23476563 757.67828125 -281.96953125 757.0440625 -282.7265625 756.390625 C-284.66183296 754.70979248 -286.58116057 753.0120435 -288.5 751.3125 C-289.17289063 750.73242188 -289.84578125 750.15234375 -290.5390625 749.5546875 C-296.65950427 744.19141379 -302.42550047 738.49378107 -308.1875 732.75 C-308.99550049 731.9465918 -309.80350098 731.14318359 -310.63598633 730.31542969 C-315.46348179 725.47553186 -320.06134904 720.5098105 -324.5 715.3125 C-325.345625 714.34828125 -326.19125 713.3840625 -327.0625 712.390625 C-381.50488636 649.22349723 -416.17456848 570.7620804 -427.5 488.3125 C-427.66371094 487.16249512 -427.82742188 486.01249023 -427.99609375 484.82763672 C-432.93510038 448.7085996 -432.61569149 410.38650719 -427.5 374.3125 C-427.25854248 372.52851807 -427.25854248 372.52851807 -427.01220703 370.70849609 C-418.08798759 306.35295781 -394.03275926 244.02595334 -357.5 190.3125 C-356.9946875 189.56629395 -356.489375 188.82008789 -355.96875 188.05126953 C-349.1108031 177.97642761 -341.73964538 168.43083229 -333.94726562 159.06396484 C-331.95374408 156.65142713 -330.01398929 154.19658935 -328.0625 151.75 C-319.39298458 141.19580732 -309.75411536 131.4833989 -300.125 121.8125 C-299.38838135 121.0712085 -298.6517627 120.32991699 -297.89282227 119.56616211 C-293.25747287 114.94439539 -288.47703689 110.56268593 -283.5 106.3125 C-282.96020508 105.84569824 -282.42041016 105.37889648 -281.86425781 104.89794922 C-273.96513627 98.0736922 -265.86691045 91.55469382 -257.5 85.3125 C-256.84435059 84.82023926 -256.18870117 84.32797852 -255.51318359 83.82080078 C-182.03746852 28.87240421 -91.54481601 -0.30778595 0 0 Z M-189.5 189.3125 C-190.51191406 190.11300781 -191.52382813 190.91351562 -192.56640625 191.73828125 C-209.24082724 205.09204941 -225.51727142 220.32106927 -238.5 237.3125 C-239.51203228 238.59713357 -240.52513823 239.8809217 -241.5390625 241.1640625 C-275.62704916 284.62725521 -296.35667325 335.79932092 -304.5 390.3125 C-304.69916016 391.61574219 -304.69916016 391.61574219 -304.90234375 392.9453125 C-316.0841709 470.08735595 -292.98094263 551.98972222 -247.06347656 614.23339844 C-238.85012542 625.15546252 -229.98846189 635.48303319 -220.5 645.3125 C-219.60595459 646.2394165 -219.60595459 646.2394165 -218.69384766 647.18505859 C-211.01112438 655.10557573 -203.20131618 662.506402 -194.5 669.3125 C-193.35966618 670.25110318 -192.22178876 671.19269595 -191.0859375 672.13671875 C-182.00507141 679.63698526 -172.51997742 686.13567474 -162.5 692.3125 C-161.84902344 692.72177734 -161.19804688 693.13105469 -160.52734375 693.55273438 C-123.91450993 716.5189665 -83.01831864 729.84330454 -40.5 736.3125 C-39.62682129 736.44672363 -38.75364258 736.58094727 -37.85400391 736.71923828 C-10.13684741 740.73368079 19.92066511 739.70031777 47.5 735.3125 C48.56250977 735.14621094 49.62501953 734.97992187 50.71972656 734.80859375 C103.53006128 726.25759502 154.36380561 703.61078366 195.5 669.3125 C196.07314941 668.84086426 196.64629883 668.36922852 197.23681641 667.88330078 C212.26940384 655.46113801 226.58079828 641.77404391 238.5 626.3125 C239.4326554 625.17676914 240.36913285 624.04417042 241.30859375 622.9140625 C248.81538944 613.83337824 255.35953782 604.36213889 261.5 594.3125 C261.94698242 593.58611328 262.39396484 592.85972656 262.85449219 592.11132812 C285.38468289 555.22604832 299.1273525 514.97237167 305.5 472.3125 C305.63277344 471.44367188 305.76554687 470.57484375 305.90234375 469.6796875 C317.08388879 392.53959024 293.98165794 310.63986909 248.06787109 248.39599609 C232.66219971 227.92386909 214.89902015 207.89888269 194.5 192.3125 C193.21536643 191.30046772 191.9315783 190.28736177 190.6484375 189.2734375 C112.18854317 127.7325119 9.95164865 109.95543713 -189.5 189.3125 Z " fill="#000000" transform="translate(799.5,368.6875)"/>
<path d="M0 0 C1.15242188 0.3403125 2.30484375 0.680625 3.4921875 1.03125 C25.91326126 8.29234172 45.07393739 24.85765517 55.984375 45.6796875 C67.38431622 68.56907484 69.75572785 94.81158084 61.96875 119.234375 C53.40829795 143.41186795 36.55525091 162.51279906 13.44921875 173.72265625 C-9.26935232 183.82807529 -35.22820146 185.64744663 -58.76074219 176.99926758 C-83.24971544 167.47612276 -101.32683164 150.08981494 -112.25 126.25 C-121.7354016 102.64016159 -121.98103335 77.33300684 -112.625 53.625 C-111.77558592 51.73827116 -110.90102044 49.86263581 -110 48 C-109.55914063 47.07832031 -109.11828125 46.15664063 -108.6640625 45.20703125 C-104.99818349 38.02717429 -100.34290605 32.01306437 -95 26 C-94.37351562 25.28972656 -93.74703125 24.57945312 -93.1015625 23.84765625 C-70.31977636 -0.42407793 -31.56076057 -9.80835667 0 0 Z " fill="#000000" transform="translate(1288,249)"/>
</svg>
