<?xml version="1.0" encoding="UTF-8"?>
<svg version="1.1" xmlns="http://www.w3.org/2000/svg" width="3840" height="2160">
<path d="M0 0 C1.08239183 -0.00165078 2.16478367 -0.00330156 3.27997525 -0.00500236 C6.92117421 -0.0093297 10.56233276 -0.00652527 14.20353276 -0.00377727 C16.84601054 -0.00542679 19.48848535 -0.00747207 22.13096216 -0.00999737 C27.90171192 -0.01470852 33.67245309 -0.01569626 39.44320446 -0.01426902 C48.08237856 -0.01214808 56.72154378 -0.01576096 65.36071651 -0.0204838 C80.08420449 -0.02835864 94.80769005 -0.03144592 109.53117996 -0.03192973 C124.45527823 -0.03243195 139.37937378 -0.03507718 154.30347115 -0.04033732 C155.71662092 -0.04083252 155.71662092 -0.04083252 157.15831918 -0.04133773 C160.99526886 -0.04268771 164.83221853 -0.04405038 168.6691682 -0.04542983 C214.10761512 -0.06173681 259.54606152 -0.06811897 304.98451087 -0.0728777 C327.60778457 -0.07526042 350.23105796 -0.07896379 372.85433143 -0.0829148 C445.41219044 -0.09557952 517.97004943 -0.10636351 590.52790953 -0.10975526 C593.99615214 -0.1099175 597.46439475 -0.11008306 600.93263736 -0.11024964 C607.88832023 -0.11058344 614.84400309 -0.11091392 621.79968596 -0.1112442 C629.94320166 -0.1116311 638.08671737 -0.11202071 646.23023307 -0.11241527 C648.56097844 -0.11252769 650.8917238 -0.1126391 653.22246916 -0.11274952 C728.08414626 -0.11629925 802.94581376 -0.13137875 877.8074872 -0.15468726 C931.59656655 -0.17142795 985.38564409 -0.18690353 1039.17472607 -0.19142222 C1040.28082838 -0.19151571 1041.38693068 -0.1916092 1042.52655124 -0.19170551 C1066.80785049 -0.19372453 1091.08914971 -0.1948806 1115.37044904 -0.1952341 C1124.05874472 -0.19537027 1132.74704039 -0.19557927 1141.43533606 -0.19582735 C1143.59679109 -0.19588891 1145.75824612 -0.19594723 1147.91970115 -0.1960023 C1182.36621163 -0.19692224 1216.8127121 -0.20689195 1251.25921928 -0.22145979 C1285.9538078 -0.23607383 1320.64838403 -0.24111881 1355.34297508 -0.23304025 C1360.13766587 -0.23192487 1364.93235668 -0.23091421 1369.7270475 -0.22996593 C1370.66693473 -0.22977596 1371.60682196 -0.22958599 1372.57519061 -0.22939027 C1387.455055 -0.22665703 1402.33489666 -0.23399725 1417.2147561 -0.24553929 C1431.84780164 -0.2566802 1446.48081505 -0.25711121 1461.11386109 -0.24616911 C1469.69135027 -0.24007561 1478.26874249 -0.2421596 1486.84622252 -0.25642108 C1492.54783679 -0.26507809 1498.24937992 -0.2627882 1503.95098982 -0.25172237 C1507.17990284 -0.24575838 1510.40859022 -0.24599966 1513.63749738 -0.25640723 C1545.58857578 -0.35261433 1573.03677133 5.95104114 1596.8565641 28.5026505 C1616.26217332 49.10613683 1624.46500259 73.95431538 1624.3584131 101.98888159 C1624.36052686 103.34539091 1624.36351581 104.70189909 1624.36728845 106.05840481 C1624.3751003 109.77060749 1624.37057458 113.4827057 1624.36395263 117.19490684 C1624.35894399 121.25437319 1624.36561616 125.31382386 1624.3707563 129.37328774 C1624.37819128 136.51025874 1624.37820431 143.64719989 1624.37336681 150.78417268 C1624.36616062 161.46855256 1624.37049117 172.15290672 1624.37704816 182.83728591 C1624.38788243 201.04742479 1624.38920428 219.25755333 1624.38534981 237.46769452 C1624.38147468 255.92280714 1624.38192681 274.37791204 1624.38765961 292.83302426 C1624.38801844 293.99850592 1624.38837726 295.16398758 1624.38874696 296.36478686 C1624.39022186 301.11159029 1624.39172626 305.85839371 1624.39326843 310.60519711 C1624.4089082 358.80153329 1624.41158186 406.99786418 1624.40911236 455.19420245 C1624.40877392 461.85489791 1624.4084512 468.51559338 1624.40814668 475.17628884 C1624.40811596 475.8376151 1624.40808525 476.49894136 1624.4080536 477.1803078 C1624.40667943 507.15932746 1624.40921007 537.1383464 1624.41267275 567.11736588 C1624.41313598 571.12814561 1624.41358784 575.13892534 1624.41403687 579.14970508 C1624.41411115 579.81270715 1624.41418543 580.47570921 1624.41426196 581.15880225 C1624.41441211 582.49914825 1624.41456223 583.83949424 1624.41471232 585.17984024 C1624.41508839 588.53600409 1624.41546586 591.89216794 1624.4158434 595.24833179 C1624.41591821 595.91376402 1624.41599301 596.57919625 1624.41607008 597.26479309 C1624.41644855 600.62979688 1624.41682848 603.99480067 1624.41721102 607.35980446 C1624.42077913 638.76369594 1624.42364349 670.16758747 1624.42580372 701.57147908 C1624.42585096 702.25571517 1624.4258982 702.93995126 1624.42594687 703.64492178 C1624.42894154 747.24462753 1624.42881664 790.84433267 1624.42638295 834.44403844 C1624.42626336 836.58785211 1624.42614498 838.73166577 1624.42602686 840.87547944 C1624.42515543 856.65584886 1624.42422483 872.43621828 1624.42327622 888.21658769 C1624.42318984 889.65573441 1624.42310346 891.09488113 1624.4230171 892.53402785 C1624.42293067 893.97376276 1624.42284422 895.41349766 1624.42275778 896.85323257 C1624.42271499 897.5661098 1624.4226722 898.27898704 1624.42262811 899.01346661 C1624.42241172 902.61548404 1624.42219428 906.21750147 1624.42197488 909.81951889 C1624.41783618 977.85433927 1624.41675914 1045.88915655 1624.42913491 1113.92397618 C1624.42926519 1114.6402798 1624.42939547 1115.35658341 1624.4295297 1116.0945932 C1624.43348162 1137.75523106 1624.43784118 1159.41586883 1624.44230086 1181.07650658 C1624.44717695 1204.76176869 1624.45201088 1228.44703081 1624.45658261 1252.13229299 C1624.45671938 1252.83940647 1624.45685615 1253.54651995 1624.45699706 1254.27506112 C1624.4655521 1298.56225722 1624.47045547 1342.84945244 1624.47129017 1387.13664937 C1624.47131008 1388.16270326 1624.47131008 1388.16270326 1624.47133039 1389.20948552 C1624.47190572 1419.2510547 1624.47162091 1449.29262382 1624.47041167 1479.33419298 C1624.46995247 1490.75120096 1624.46956023 1502.16820894 1624.46920091 1513.58521692 C1624.46911665 1516.25786202 1624.46902738 1518.93050712 1624.46893409 1521.60315222 C1624.46787868 1552.24933921 1624.46895693 1582.8955241 1624.47660905 1613.54171014 C1624.47677369 1614.20246071 1624.47693834 1614.86321128 1624.47710797 1615.54398459 C1624.47993131 1626.8328719 1624.48293767 1638.12175915 1624.48593806 1649.41064641 C1624.49758175 1693.50530477 1624.49815874 1737.59995084 1624.48609463 1781.69460925 C1624.48484278 1786.42863032 1624.4836393 1791.1626514 1624.48247391 1795.89667249 C1624.48218362 1797.05849284 1624.48189332 1798.22031318 1624.48159423 1799.41734021 C1624.47726697 1817.82195452 1624.48300291 1836.22655138 1624.4929141 1854.63116295 C1624.50244574 1872.72362607 1624.50128372 1890.81606223 1624.48870788 1908.90852377 C1624.4816527 1919.5181904 1624.48279667 1930.12777958 1624.49605626 1940.7374407 C1624.50404344 1947.78472401 1624.50114041 1954.83194871 1624.48940662 1961.87922664 C1624.4830598 1965.87345216 1624.48129881 1969.86752472 1624.49297383 1973.8617417 C1624.57391872 2003.53337685 1622.09230328 2030.53792557 1602.1065641 2054.1276505 C1601.4156266 2054.9526505 1600.7246891 2055.7776505 1600.0128141 2056.6276505 C1583.64861236 2075.5271511 1560.87394873 2086.59082986 1536.1065641 2089.1276505 C1527.38342927 2089.65143604 1518.63694993 2089.53130572 1509.902165 2089.50517392 C1507.2491882 2089.50830694 1504.59623709 2089.5126303 1501.94326711 2089.51838702 C1496.17747528 2089.52851517 1490.4117687 2089.52760897 1484.64597511 2089.51933639 C1476.01438239 2089.5070082 1467.38285823 2089.51210641 1458.75126387 2089.52048431 C1444.03719945 2089.5342591 1429.32316618 2089.5338466 1414.60909897 2089.52564168 C1399.70328887 2089.51738053 1384.79749926 2089.51565282 1369.89168793 2089.52185369 C1368.94932985 2089.5222412 1368.00697177 2089.52262872 1367.03605739 2089.52302798 C1363.19781961 2089.52462784 1359.35958185 2089.52627397 1355.52134411 2089.52797881 C1319.79111548 2089.54383799 1284.06090057 2089.54492682 1248.33066994 2089.53653646 C1247.27241279 2089.53628807 1246.21415564 2089.53603968 1245.12383009 2089.53578377 C1243.53389966 2089.53541059 1243.53389966 2089.53541059 1241.91184942 2089.53502986 C1209.61791172 2089.52745992 1177.32397969 2089.52550632 1145.03004128 2089.5290978 C1142.86737181 2089.52933023 1140.70470234 2089.5295617 1138.54203287 2089.52979221 C1129.85112882 2089.53072361 1121.16022477 2089.53167961 1112.46932073 2089.5326715 C1088.17474926 2089.5354225 1063.88017777 2089.53713432 1039.58560616 2089.53802991 C1038.47929521 2089.53807085 1037.37298426 2089.53811178 1036.23314874 2089.53815396 C1000.98205763 2089.53938177 965.7309685 2089.53600127 930.47987801 2089.52948117 C928.76490904 2089.52916505 928.76490904 2089.52916505 927.01529422 2089.52884255 C908.44871688 2089.52540771 889.88213957 2089.52174932 871.31556227 2089.51807202 C797.67867069 2089.50350305 724.04179546 2089.50417926 650.40490395 2089.51876378 C631.84768605 2089.52242736 613.29046815 2089.52606052 594.7332502 2089.52948117 C593.01928964 2089.52979819 593.01928964 2089.52979819 591.27070361 2089.53012161 C556.0563095 2089.53659029 520.84191674 2089.53933296 485.62752205 2089.53802991 C484.52202382 2089.53798916 483.41652558 2089.5379484 482.2775274 2089.53790642 C458.00993294 2089.53696897 433.74233863 2089.53506805 409.47474431 2089.5322984 C400.79161672 2089.53131098 392.10848912 2089.53037174 383.42536152 2089.52944627 C381.2652318 2089.5292141 379.10510208 2089.52897791 376.94497236 2089.52873768 C344.65974522 2089.52515708 312.37452447 2089.52820589 280.08929812 2089.53578377 C279.03104097 2089.53603216 277.97278382 2089.53628054 276.88245827 2089.53653646 C275.82615391 2089.5367845 274.76984955 2089.53703255 273.68153596 2089.53728811 C238.05424975 2089.54556281 202.42698001 2089.54251888 166.79969615 2089.52669422 C162.97361088 2089.52503717 159.14752559 2089.52342705 155.32144028 2089.52185369 C154.38245599 2089.52146306 153.4434717 2089.52107244 152.47603334 2089.52066999 C137.6106582 2089.51475387 122.74530355 2089.51887141 107.87993026 2089.5271607 C93.2613904 2089.53509849 78.6428851 2089.53230732 64.02434962 2089.51811844 C55.45557348 2089.51011861 46.88689211 2089.51026902 38.31812051 2089.52256323 C32.6223567 2089.52991171 26.92666647 2089.52632198 21.23091153 2089.51396267 C18.00535335 2089.50726503 14.78001896 2089.50676234 11.55446287 2089.51641222 C-18.12474221 2089.59889529 -45.30122882 2084.74897037 -67.8934359 2064.1276505 C-68.59855308 2063.49214269 -69.30367027 2062.85663487 -70.03015465 2062.20186925 C-87.15877996 2045.94818353 -97.88063987 2023.11686609 -99.0771901 1999.50095534 C-99.14416437 1995.36812543 -99.15093561 1991.23960493 -99.13394493 1987.1064713 C-99.13481863 1985.5121906 -99.13657264 1983.91791019 -99.13912326 1982.32363129 C-99.14356842 1977.97250178 -99.13563235 1973.62147183 -99.12556714 1969.27035499 C-99.11689385 1964.56704564 -99.11985553 1959.86374147 -99.12137169 1955.16042638 C-99.12241809 1947.02148931 -99.11616708 1938.88258442 -99.10489601 1930.74365544 C-99.08861077 1918.97627509 -99.08342991 1907.20891023 -99.08092003 1895.44151983 C-99.07654766 1876.3476301 -99.06325102 1857.2537575 -99.0443148 1838.15987706 C-99.02594412 1819.61690918 -99.01179343 1801.07394596 -99.00329918 1782.53097081 C-99.00251101 1780.81519038 -99.00251101 1780.81519038 -99.00170691 1779.06474772 C-98.99909675 1773.326112 -98.99656936 1767.58747625 -98.99408311 1761.84884048 C-98.9733649 1714.27509865 -98.93815187 1666.70137541 -98.8934359 1619.1276505 C-99.80992314 1619.12878966 -100.72641039 1619.12992882 -101.67066997 1619.1311025 C-156.01639054 1619.19826968 -210.36210669 1619.24972684 -264.70786047 1619.28084649 C-271.23651589 1619.28459851 -277.76517123 1619.28848148 -284.29382652 1619.29244542 C-285.59353759 1619.29323235 -286.89324867 1619.29401928 -288.23234493 1619.29483006 C-309.26362606 1619.30787593 -330.29488253 1619.33152527 -351.32614905 1619.35910889 C-372.91398167 1619.38718585 -394.50180139 1619.40383161 -416.08965153 1619.40991598 C-429.40525962 1619.41402766 -442.72079801 1619.42700361 -456.03638464 1619.4513999 C-465.17341174 1619.46728536 -474.31040293 1619.47204449 -483.44744283 1619.46815463 C-488.7151659 1619.46623747 -493.98276735 1619.46912961 -499.25046867 1619.48526692 C-504.0822076 1619.4999599 -508.91374414 1619.5005424 -513.74549276 1619.49034718 C-515.48466638 1619.48908875 -517.2238531 1619.49281422 -518.96300131 1619.50230005 C-546.9284837 1619.64584419 -571.89105474 1611.80226584 -592.0887484 1591.9714005 C-610.27678952 1573.53004404 -621.00996129 1550.02182751 -621.02108639 1523.9147194 C-621.02273717 1523.23092885 -621.02438795 1522.5471383 -621.02608875 1521.84262683 C-621.03038952 1519.56008083 -621.0276201 1517.27760013 -621.02486366 1514.99505258 C-621.02651444 1513.33149129 -621.02860124 1511.66793038 -621.03108376 1510.00437012 C-621.03664547 1505.42260646 -621.0359789 1500.84086151 -621.03430617 1496.25909555 C-621.03357493 1491.27823069 -621.03859836 1486.29737109 -621.04288119 1481.31650847 C-621.0504616 1471.43287503 -621.05265427 1461.549247 -621.05321025 1451.66561095 C-621.05412384 1439.82882134 -621.06079126 1427.99203671 -621.06755707 1416.15524925 C-621.08323848 1388.22463789 -621.08930561 1360.29402642 -621.0939641 1332.36341162 C-621.0963479 1318.15111131 -621.10005149 1303.93881148 -621.1040012 1289.72651153 C-621.11666545 1244.130596 -621.1274492 1198.53468048 -621.13084165 1152.93876321 C-621.13100389 1150.7597672 -621.13116945 1148.5807712 -621.13133604 1146.40177519 C-621.13166983 1142.03181679 -621.13200032 1137.66185838 -621.1323306 1133.29189998 C-621.13271749 1128.17581884 -621.1331071 1123.0597377 -621.13350166 1117.94365656 C-621.13361408 1116.47939666 -621.1337255 1115.01513675 -621.13383592 1113.55087685 C-621.13738491 1066.52959498 -621.15246168 1019.5083284 -621.17577366 972.48705237 C-621.19251914 938.69700447 -621.20799194 904.90695946 -621.21250862 871.11690736 C-621.2126021 870.42175097 -621.21269559 869.72659457 -621.21279191 869.01037284 C-621.21481113 853.74861927 -621.21596703 838.48686574 -621.2163205 823.22511204 C-621.21645666 817.76385553 -621.21666566 812.30259902 -621.21691375 806.84134251 C-621.21697531 805.48274465 -621.21703363 804.1241468 -621.2170887 802.76554894 C-621.21800786 781.13222333 -621.22796828 759.49891369 -621.24254618 737.86559333 C-621.25758203 715.46301023 -621.26174358 693.06044852 -621.25345322 670.65786148 C-621.24899632 657.7461344 -621.25286007 644.83447277 -621.26869173 631.92275429 C-621.27844222 623.29474592 -621.27726277 614.6667834 -621.2672555 606.03877545 C-621.26186405 601.12489794 -621.2611516 596.2111461 -621.27376422 591.29727901 C-621.28516342 586.8186862 -621.28251313 582.34032049 -621.26909715 577.86173527 C-621.26668028 576.2596088 -621.26918588 574.65746448 -621.27749363 573.05535773 C-621.40682569 546.33772946 -614.18056577 521.14592004 -595.8934359 501.1276505 C-595.19605308 500.34905675 -594.49867027 499.570463 -593.78015465 498.7682755 C-577.67952158 481.69630625 -554.32684445 471.02702041 -530.92587847 469.94403362 C-526.25006671 469.85126181 -521.57459032 469.87025973 -516.8981356 469.88714147 C-515.08936537 469.8862681 -513.28059538 469.8845147 -511.47182673 469.88196313 C-506.52781996 469.87751142 -501.58390057 469.88546323 -496.63990492 469.89551926 C-491.29855275 469.90418296 -485.95720523 469.90123153 -480.615848 469.89971471 C-471.37030448 469.8986677 -462.12478926 469.90492503 -452.87925285 469.91619039 C-439.51188004 469.93246742 -426.14452086 469.93765565 -412.77713922 469.94016637 C-391.08770692 469.94454001 -369.3982897 469.95784015 -347.70886558 469.97677159 C-326.64376218 469.99513894 -305.57866288 470.00929127 -284.51355308 470.01778722 C-283.21437569 470.01831267 -281.9151983 470.01883811 -280.5766519 470.01937948 C-274.05884447 470.02198962 -267.54103702 470.02451702 -261.02322954 470.02700329 C-206.97995458 470.0477255 -152.93669597 470.08294203 -98.8934359 470.1276505 C-98.89457506 469.32119368 -98.89571422 468.51473685 -98.8968879 467.68384194 C-98.96407048 419.85147354 -99.01552001 372.01911015 -99.04663188 324.18670398 C-99.05038385 318.43915482 -99.05426684 312.69160576 -99.05823082 306.94405675 C-99.05901775 305.79985764 -99.05980468 304.65565854 -99.06061546 303.47678673 C-99.07365757 284.96744912 -99.09730483 266.45813956 -99.12489428 247.94881856 C-99.15298172 228.94645453 -99.16961921 209.94410514 -99.17570138 190.9417212 C-99.17981089 179.22300113 -99.19277499 167.50436034 -99.2171853 155.78566468 C-99.23308371 147.74192528 -99.23782698 139.69822667 -99.23394003 131.65447271 C-99.23202487 127.01862623 -99.23489185 122.38291799 -99.25105232 117.7470963 C-99.26577396 113.49268068 -99.26630975 109.23849478 -99.25613258 104.98406804 C-99.25487689 103.45485208 -99.2585779 101.92562111 -99.26808544 100.39643419 C-99.4277381 73.10384338 -90.99496979 48.52814907 -71.7293734 28.92843175 C-70.79351402 28.00417394 -69.85765465 27.07991612 -68.8934359 26.1276505 C-67.86089683 25.09704503 -67.86089683 25.09704503 -66.8074984 24.04561925 C-48.74907575 7.16823269 -24.19703764 -0.05224754 0 0 Z " fill="#005AC1" transform="translate(1426.893435895443,26.872349500656128)"/>
<path d="M0 0 C1.76546143 -0.00148135 3.5309223 -0.00384072 5.29638153 -0.006993 C10.14233341 -0.01311077 14.98820092 -0.00679773 19.83414649 0.00156327 C25.10807059 0.00844763 30.38198636 0.00368704 35.65591216 0.00040829 C44.89708445 -0.00373552 54.13823096 -0.00045788 63.37940025 0.00768471 C77.12066107 0.01975876 90.86190565 0.02035594 104.60317081 0.01860073 C127.71857308 0.01597324 150.83396136 0.02264 173.94935989 0.03463554 C196.83751861 0.04648476 219.72567262 0.05418658 242.61383438 0.05634117 C243.32493412 0.05640999 244.03603385 0.05647882 244.76868206 0.05654973 C251.26358511 0.05717614 257.75848816 0.05775152 264.25339122 0.05826568 C280.39821884 0.05954439 296.54304635 0.06146298 312.68787384 0.06381607 C313.42303321 0.06392271 314.15819257 0.06402934 314.9156295 0.06413921 C350.66755416 0.06938089 386.41947571 0.08199546 422.17139816 0.09521675 C434.57644778 0.09980012 446.98149741 0.10435086 459.38654709 0.10876656 C460.54060757 0.1091774 460.54060757 0.1091774 461.71798241 0.10959655 C497.49147861 0.12228726 533.26497535 0.12973671 569.03847321 0.13583615 C571.36122487 0.13623227 573.68397652 0.13663066 576.00672818 0.1370295 C591.39986445 0.13966909 606.79300073 0.14221839 622.18613703 0.14470722 C652.8140477 0.14966009 683.44195826 0.15514345 714.06986877 0.16099132 C715.5284141 0.1612698 716.98695944 0.16154791 718.44550477 0.16182564 C803.52241781 0.17803002 888.59932746 0.20472475 1009.48438644 0.24609566 C1009.48438644 0.57609566 1009.48438644 0.90609566 1009.48438644 1.24609566 C996.28438644 1.57609566 983.08438644 1.90609566 969.48438644 2.24609566 C977.40438644 4.72109566 977.40438644 4.72109566 985.48438644 7.24609566 C988.39764445 8.45632971 991.09292758 9.61055982 993.85938644 11.05859566 C994.51946701 11.39697456 995.17954758 11.73535347 995.85963058 12.08398628 C1001.64985921 15.1494431 1006.59493715 18.88941589 1011.48438644 23.24609566 C1012.22817551 23.84808784 1012.97196457 24.45008003 1013.73829269 25.07031441 C1030.1592785 38.69259307 1042.06278862 60.10340237 1044.28503546 81.37570517 C1044.7296447 87.77749015 1044.62351446 94.20245229 1044.61581421 100.61664963 C1044.61746538 102.29391965 1044.61955236 103.9711893 1044.62203431 105.6484583 C1044.62759092 110.26360896 1044.62693039 114.87874103 1044.62525672 119.49389397 C1044.62452498 124.51265968 1044.62955006 129.53142017 1044.63383174 134.55018365 C1044.64140919 144.50694752 1044.64360467 154.46370603 1044.6441608 164.42047249 C1044.64507467 176.34549994 1044.65174288 188.27052243 1044.65850762 200.19554775 C1044.67418553 228.33231715 1044.68025556 256.46908634 1044.68491465 284.60585909 C1044.68729862 298.92231961 1044.69100223 313.23877967 1044.69495174 327.55523983 C1044.70761515 373.48452979 1044.71839939 419.41381972 1044.7217922 465.34311139 C1044.72195444 467.53780563 1044.72212 469.73249986 1044.72228659 471.9271941 C1044.72262038 476.32863159 1044.72295086 480.73006907 1044.72328115 485.13150656 C1044.72366804 490.28443671 1044.72405765 495.43736686 1044.72445221 500.590297 C1044.72456463 502.06510278 1044.72467605 503.53990857 1044.72478646 505.01471435 C1044.72833606 552.38257956 1044.74341576 599.7504296 1044.76672421 647.11828902 C1044.78346813 681.15938209 1044.79894176 715.20047229 1044.80345917 749.24156952 C1044.8035994 750.29188134 1044.8035994 750.29188134 1044.80374246 751.36341157 C1044.8057616 766.73543615 1044.80691757 782.10746067 1044.80727104 797.47948537 C1044.80740721 802.98003644 1044.80761621 808.48058751 1044.8078643 813.98113858 C1044.80792586 815.34951717 1044.80798418 816.71789576 1044.80803925 818.08627435 C1044.80895863 839.88057623 1044.81892164 861.67486226 1044.83349673 883.46915893 C1044.84852718 906.03464005 1044.85269724 928.60010359 1044.84440377 951.16558917 C1044.83994456 964.17327847 1044.84381986 977.18090282 1044.85964228 990.1885836 C1044.86938466 998.87796951 1044.86822109 1007.56730987 1044.85820605 1016.25669535 C1044.85280877 1021.20725144 1044.85212094 1026.15768272 1044.86471477 1031.10822852 C1044.87609086 1035.61774897 1044.87348868 1040.12704357 1044.8600477 1044.63655636 C1044.8576253 1046.25211922 1044.86015641 1047.8676997 1044.86844417 1049.48324312 C1044.93262942 1062.88294713 1043.31481928 1075.46168967 1038.60938644 1088.12109566 C1038.35399094 1088.8287104 1038.09859543 1089.53632515 1037.83546066 1090.26538277 C1035.8755634 1095.54739689 1033.54093466 1100.49897874 1030.48438644 1105.24609566 C1029.82438644 1105.24609566 1029.16438644 1105.24609566 1028.48438644 1105.24609566 C1028.19563644 1106.00922066 1027.90688644 1106.77234566 1027.60938644 1107.55859566 C1026.48438644 1110.24609566 1026.48438644 1110.24609566 1024.48438644 1113.24609566 C1023.82438644 1113.24609566 1023.16438644 1113.24609566 1022.48438644 1113.24609566 C1022.20594894 1113.83906441 1021.92751144 1114.43203316 1021.64063644 1115.04297066 C1016.38064251 1125.06539153 1005.99296328 1131.78340048 996.22266769 1136.82422066 C994.16166789 1137.89441171 992.14575164 1139.05210464 990.15626144 1140.25000191 C986.40041686 1142.41005937 982.56288565 1143.70823814 978.42188644 1144.93359566 C977.74061691 1145.14564644 977.05934738 1145.35769722 976.35743332 1145.57617378 C970.50780599 1147.3574724 965.00841507 1148.37484736 958.8950634 1148.35614967 C957.79863557 1148.35537831 956.70220774 1148.35460695 955.57255483 1148.35381222 C954.37646494 1148.34795447 953.18037505 1148.34209673 951.94804001 1148.33606148 C949.97612172 1148.33294428 948.00420341 1148.32983118 946.03228492 1148.32684779 C943.88868579 1148.32270489 941.74510556 1148.31614502 939.60151458 1148.30896091 C932.49483733 1148.28559851 925.38812903 1148.27948675 918.2814215 1148.27100354 C915.70583941 1148.26777733 913.13025859 1148.26397483 910.55467737 1148.26011992 C891.2766803 1148.23323504 871.99892534 1148.28031113 852.72099987 1148.33029312 C847.69497043 1148.34319785 842.66893915 1148.35534922 837.6429081 1148.36760521 C829.16343707 1148.38839051 820.68396742 1148.40967945 812.20449829 1148.43122292 C789.77317832 1148.48811935 767.34184793 1148.54077612 744.91051826 1148.59368426 C741.14207819 1148.60257674 737.37363816 1148.61149059 733.60519814 1148.62040663 C648.54566697 1148.8214489 563.48607315 1148.99600765 215.25568581 1149.47070503 C211.59783385 1149.47259488 207.93998189 1149.47448684 204.28212993 1149.47638535 C201.85811291 1149.47764235 199.43409589 1149.47888899 197.01007886 1149.48012519 C178.96600158 1149.4895102 160.92194569 1149.50723849 142.8778801 1149.52954292 C122.44652007 1149.55477163 102.01518465 1149.56952884 81.5838083 1149.56983399 C70.19940283 1149.57028614 58.81507263 1149.57879002 47.43068481 1149.59905559 C39.84166854 1149.61171066 32.25270099 1149.61334835 24.6636778 1149.60606283 C20.34824178 1149.60221634 16.03295058 1149.60301197 11.71753287 1149.61717892 C7.78651627 1149.62998202 3.8557547 1149.62866575 -0.07526188 1149.61658159 C-1.47952629 1149.61464198 -2.88380952 1149.61761294 -4.28804763 1149.62642345 C-31.15115495 1149.78431968 -55.46257786 1140.98860744 -74.71092606 1122.08984566 C-92.89896718 1103.64848919 -103.63213895 1080.14027267 -103.64326406 1054.03316456 C-103.64491483 1053.34937401 -103.64656561 1052.66558346 -103.64826642 1051.96107198 C-103.65256718 1049.67852599 -103.64979776 1047.39604529 -103.64704132 1045.11349773 C-103.6486921 1043.44993644 -103.6507789 1041.78637554 -103.65326142 1040.12281528 C-103.65882313 1035.54105162 -103.65815656 1030.95930667 -103.65648383 1026.37754071 C-103.65575259 1021.39667585 -103.66077602 1016.41581625 -103.66505885 1011.43495363 C-103.67263927 1001.55132019 -103.67483193 991.66769215 -103.67538791 981.78405611 C-103.6763015 969.94726649 -103.68296892 958.11048187 -103.68973473 946.2736944 C-103.70541614 918.34308305 -103.71148327 890.41247158 -103.71614176 862.48185677 C-103.71852556 848.26955647 -103.72222915 834.05725664 -103.72617886 819.84495669 C-103.73884311 774.24904115 -103.74962686 728.65312564 -103.75301931 683.05720837 C-103.75318155 680.87821236 -103.75334711 678.69921635 -103.7535137 676.52022035 C-103.7538475 672.15026194 -103.75417798 667.78030354 -103.75450826 663.41034514 C-103.75489515 658.294264 -103.75528476 653.17818286 -103.75567932 648.06210172 C-103.75579174 646.59784182 -103.75590316 645.13358191 -103.75601358 643.669322 C-103.75956258 596.64804014 -103.77463934 549.62677356 -103.79795132 502.60549753 C-103.8146968 468.81544963 -103.8301696 435.02540462 -103.83468628 401.23535252 C-103.83477977 400.54019612 -103.83487325 399.84503973 -103.83496957 399.128818 C-103.83698879 383.86706442 -103.83814469 368.6053109 -103.83849816 353.3435572 C-103.83863432 347.88230069 -103.83884332 342.42104418 -103.83909141 336.95978767 C-103.83915297 335.60118981 -103.83921129 334.24259196 -103.83926636 332.8839941 C-103.84018553 311.25066849 -103.85014594 289.61735885 -103.86472384 267.98403849 C-103.8797597 245.58145539 -103.88392124 223.17889368 -103.87563089 200.77630664 C-103.87117398 187.86457956 -103.87503773 174.95291793 -103.89086939 162.04119945 C-103.90061989 153.41319108 -103.89944043 144.78522856 -103.88943316 136.15722061 C-103.88404171 131.2433431 -103.88332926 126.32959126 -103.89594188 121.41572417 C-103.90734108 116.93713136 -103.90469079 112.45876564 -103.89127481 107.98018043 C-103.88885794 106.37805396 -103.89136354 104.77590964 -103.89967129 103.17380289 C-104.02900335 76.45617462 -96.80274343 51.2643652 -78.51561356 31.24609566 C-77.81823074 30.46750191 -77.12084793 29.68890816 -76.40233231 28.88672066 C-56.06496853 7.32242269 -28.77770225 -0.09656558 0 0 Z " fill="#005ABF" transform="translate(909.5156135559082,496.75390434265137)"/>
<path d="M0 0 C7.41564985 -0.10240734 14.83111375 -0.17188319 22.24731445 -0.21972656 C24.76398533 -0.23969631 27.28061069 -0.26688171 29.79711914 -0.30175781 C56.55926101 -0.66304938 56.55926101 -0.66304938 69 4 C70.07717285 4.38865234 71.1543457 4.77730469 72.26416016 5.17773438 C97.05192821 14.46838784 115.8587463 33.89922348 126.8125 57.625 C135.6370445 78.91576232 134.56905533 101.09714857 134.48906299 123.70176402 C134.47523421 128.87384179 134.48484037 134.04588699 134.49139404 139.2179718 C134.4996782 148.27717751 134.49316248 157.33627766 134.47686052 166.3954711 C134.45238645 180.04094728 134.45138678 193.68636004 134.45472172 207.33185425 C134.45968306 230.20264552 134.44658088 253.07337826 134.42230225 275.94415283 C134.38954421 306.86854093 134.38188838 337.79286626 134.37841797 368.71728516 C134.35741757 443.06153279 134.30157311 517.40576728 134.25 591.75 C134.1675 757.8225 134.085 923.895 134 1095 C478.52 1095 823.04 1095 1178 1095 C1178 1557.03278689 1178 1557.03278689 1156 1583 C1155.3090625 1583.825 1154.618125 1584.65 1153.90625 1585.5 C1137.54204826 1604.3995006 1114.76738463 1615.46317936 1090 1618 C1081.27686517 1618.52378554 1072.53038582 1618.40365523 1063.79560089 1618.37752342 C1061.1426241 1618.38065644 1058.48967299 1618.3849798 1055.836703 1618.39073652 C1050.07091117 1618.40086467 1044.30520459 1618.39995847 1038.53941101 1618.39168589 C1029.90781829 1618.3793577 1021.27629412 1618.38445591 1012.64469977 1618.39283381 C997.93063534 1618.4066086 983.21660207 1618.4061961 968.50253487 1618.39799118 C953.59672477 1618.38973003 938.69093516 1618.38800232 923.78512383 1618.39420319 C922.84276575 1618.3945907 921.90040767 1618.39497822 920.92949328 1618.39537748 C917.0912555 1618.39697734 913.25301775 1618.39862347 909.41478001 1618.40032831 C873.68455137 1618.41618749 837.95433647 1618.41727632 802.22410583 1618.40888596 C801.16584868 1618.40863757 800.10759153 1618.40838918 799.01726598 1618.40813327 C797.42733555 1618.40776009 797.42733555 1618.40776009 795.80528532 1618.40737936 C763.51134761 1618.39980942 731.21741558 1618.39785583 698.92347717 1618.4014473 C696.7608077 1618.40167973 694.59813824 1618.4019112 692.43546877 1618.40214171 C683.74456472 1618.40307311 675.05366067 1618.40402911 666.36275663 1618.405021 C642.06818515 1618.407772 617.77361366 1618.40948382 593.47904205 1618.41037941 C592.3727311 1618.41042035 591.26642016 1618.41046128 590.12658463 1618.41050346 C554.87549352 1618.41173127 519.62440439 1618.40835077 484.3733139 1618.40183067 C482.65834493 1618.40151455 482.65834493 1618.40151455 480.90873012 1618.40119205 C462.34215277 1618.39775721 443.77557547 1618.39409882 425.20899817 1618.39042152 C351.57210658 1618.37585255 277.93523136 1618.37652876 204.29833984 1618.39111328 C185.74112194 1618.39477686 167.18390404 1618.39841002 148.6266861 1618.40183067 C146.91272554 1618.40214769 146.91272554 1618.40214769 145.16413951 1618.40247111 C109.94974539 1618.40893979 74.73535264 1618.41168246 39.52095795 1618.41037941 C38.41545971 1618.41033866 37.30996148 1618.4102979 36.1709633 1618.41025592 C11.90336884 1618.40931847 -12.36422548 1618.40741755 -36.63181979 1618.4046479 C-45.31494738 1618.40366048 -53.99807498 1618.40272124 -62.68120258 1618.40179577 C-64.8413323 1618.4015636 -67.00146203 1618.40132741 -69.16159175 1618.40108718 C-101.44681889 1618.39750658 -133.73203964 1618.40055539 -166.01726598 1618.40813327 C-167.60465171 1618.40850585 -167.60465171 1618.40850585 -169.22410583 1618.40888596 C-170.2804102 1618.409134 -171.33671456 1618.40938205 -172.42502814 1618.40963761 C-208.05231435 1618.41791231 -243.6795841 1618.41486838 -279.30686796 1618.39904372 C-283.13295323 1618.39738667 -286.95903852 1618.39577655 -290.78512383 1618.39420319 C-292.19360026 1618.39361726 -292.19360026 1618.39361726 -293.63053076 1618.39301949 C-308.4959059 1618.38710337 -323.36126056 1618.39122091 -338.22663385 1618.3995102 C-352.8451737 1618.40744799 -367.46367901 1618.40465682 -382.08221448 1618.39046794 C-390.65099063 1618.38246811 -399.219672 1618.38261852 -407.7884436 1618.39491273 C-413.4842074 1618.40226121 -419.17989764 1618.39867148 -424.87565257 1618.38631217 C-428.10121075 1618.37961453 -431.32654514 1618.37911184 -434.55210123 1618.38876172 C-464.23130632 1618.4712448 -491.40779292 1613.62131987 -514 1593 C-515.05767578 1592.04673828 -515.05767578 1592.04673828 -516.13671875 1591.07421875 C-533.26700723 1574.81895482 -543.9892449 1551.9850201 -545.18375421 1528.36674452 C-545.25074035 1524.22345045 -545.25749739 1520.08445425 -545.24050903 1515.94085693 C-545.24138273 1514.34245144 -545.24313672 1512.74404622 -545.24568737 1511.14564252 C-545.25013267 1506.78311153 -545.24219625 1502.42067985 -545.23213124 1498.0581615 C-545.22345817 1493.3425821 -545.22641962 1488.62700786 -545.22793579 1483.91142273 C-545.22898221 1475.75120477 -545.22273106 1467.59101891 -545.21146011 1459.43080902 C-545.19517506 1447.63265958 -545.18999403 1435.83452559 -545.18748413 1424.03636613 C-545.18311174 1404.89256213 -545.16981502 1385.7487752 -545.15087891 1366.60498047 C-545.1325083 1348.01350998 -545.11835757 1329.42204414 -545.10986328 1310.83056641 C-545.10933783 1309.68372579 -545.10881239 1308.53688518 -545.10827102 1307.35529181 C-545.10566086 1301.60167202 -545.10313346 1295.8480522 -545.10064721 1290.09443235 C-545.07992891 1242.39627643 -545.04471581 1194.69813905 -545 1147 C-500.49818516 1146.90421841 -455.99636992 1146.80862163 -411.49455261 1146.71398926 C-410.83163374 1146.71257952 -410.16871487 1146.71116978 -409.48570755 1146.70971733 C-395.06466004 1146.67905118 -380.64361246 1146.64841771 -366.22256481 1146.61781773 C-359.14634202 1146.60280251 -352.07011925 1146.5877801 -344.99389648 1146.57275391 C-344.28987889 1146.57125906 -343.58586131 1146.56976422 -342.86050985 1146.56822408 C-320.20744072 1146.5201214 -297.55437262 1146.47154757 -274.90130504 1146.42271865 C-251.54320928 1146.37237261 -228.18511251 1146.32252332 -204.82701443 1146.2732639 C-189.82660205 1146.24162883 -174.82619049 1146.20966073 -159.82578058 1146.1768721 C-153.60027127 1146.16329973 -147.37476163 1146.14997611 -141.14925057 1146.1372304 C-138.71984485 1146.13224762 -136.29043914 1146.12726294 -133.86103344 1146.12227631 C-132.67213335 1146.11984253 -131.48323326 1146.11740875 -130.2583059 1146.11490121 C-123.25373574 1146.10028073 -116.24917643 1146.08327107 -109.24461684 1146.06426957 C-89.13484202 1146.01026432 -69.02671504 1145.9666669 -48.91724051 1146.1098153 C-46.41531708 1146.12690417 -43.91339392 1146.14143831 -41.41144842 1146.15487909 C-40.61504444 1146.15917581 -39.81864046 1146.16347254 -38.99810303 1146.16789946 C-37.43473229 1146.17625123 -35.87136088 1146.18447825 -34.30798879 1146.19257298 C-30.67150241 1146.2128596 -27.03545727 1146.24093712 -23.39922678 1146.28918362 C-2.80092932 1146.56074053 13.77103881 1145.31913763 32 1135 C33.30324219 1134.30777344 33.30324219 1134.30777344 34.6328125 1133.6015625 C39.79649175 1130.72916214 44.34254139 1127.26470658 48.875 1123.5 C49.42293213 1123.04915039 49.97086426 1122.59830078 50.53540039 1122.13378906 C54.07411453 1119.10793996 56.50640766 1115.9741628 59 1112 C60.33333333 1110.66666667 61.66666667 1109.33333333 63 1108 C64.23512079 1105.86690808 64.23512079 1105.86690808 65 1104 C65.66 1104 66.32 1104 67 1104 C67.2475 1103.175 67.495 1102.35 67.75 1101.5 C69 1098 69 1098 70.8125 1094.5625 C72.76206094 1090.74369712 74.23905602 1086.8007854 75.625 1082.75 C76.02976562 1081.56921875 76.43453125 1080.3884375 76.8515625 1079.171875 C80.05037662 1068.32266821 80.28705221 1057.4599872 80.25168228 1046.25471592 C80.25377161 1044.57334335 80.25673637 1042.89197169 80.26049101 1041.21060202 C80.26826093 1036.59803967 80.26362875 1031.98556133 80.25693511 1027.37300039 C80.25185466 1022.3518776 80.25838434 1017.33076753 80.26342177 1012.30964655 C80.27064264 1003.5119525 80.27042754 994.714283 80.26532745 985.91658783 C80.25776403 972.83407039 80.26162919 959.75157367 80.26774407 946.66905637 C80.27766789 924.65822983 80.27803371 902.64741071 80.27259064 880.63658333 C80.27234225 879.63166813 80.27234225 879.63166813 80.27208885 878.60645162 C80.27192299 877.93543242 80.27175713 877.26441323 80.27158624 876.57306013 C80.2665387 856.12514131 80.26523764 835.67722648 80.26763153 815.22930717 C80.26778649 813.85970278 80.2679408 812.49009839 80.26809447 811.120494 C80.26871541 805.61652754 80.26935275 800.11256108 80.270014 794.60859462 C80.27184797 779.22289865 80.2729892 763.83720268 80.27358627 748.45150661 C80.27362721 747.40058342 80.27362721 747.40058342 80.27366897 746.32842945 C80.27448747 724.00547968 80.27223409 701.68253129 80.26788712 679.35958195 C80.26774662 678.63561409 80.26760612 677.91164624 80.26746136 677.16573997 C80.2651715 665.4091898 80.26273256 653.65263967 80.26028102 641.89608954 C80.25056897 595.27162421 80.25101877 548.64717036 80.26074219 502.02270508 C80.2631846 490.27325727 80.26560672 478.52380945 80.26788712 466.77436161 C80.26802801 466.05088872 80.26816891 465.32741583 80.26831407 464.58201952 C80.27262702 442.28310834 80.27445488 419.98419811 80.27358627 397.68528652 C80.2735591 396.98517293 80.27353194 396.28505934 80.27350394 395.56373019 C80.27287896 380.19447451 80.27161163 364.82521894 80.26976527 349.45596337 C80.26910699 343.95662034 80.26848083 338.4572773 80.26786385 332.95793427 C80.26770907 331.5898604 80.26755161 330.22178653 80.26739145 328.85371266 C80.26500506 308.4123377 80.26703562 287.97096722 80.27208885 267.52959281 C80.27225444 266.85973214 80.27242003 266.18987147 80.27259064 265.49971199 C80.272756 264.83108887 80.27292137 264.16246575 80.27309174 263.47358133 C80.27861018 240.91403864 80.27657121 218.35450547 80.26602915 195.79496414 C80.26015209 182.78907585 80.25977971 169.78321494 80.2673215 156.77732735 C80.27180282 148.09179788 80.26902133 139.40629039 80.26031196 130.72076418 C80.25555069 125.77084554 80.25393551 120.82098137 80.26112393 115.87106443 C80.26760175 111.36451807 80.26481487 106.8580743 80.2547626 102.35153536 C80.25275484 100.73479951 80.25406314 99.11805509 80.25917448 97.50132607 C80.33852907 70.47497252 72.47908086 47.33110993 53.64160156 27.63427734 C39.24358091 13.30049533 20.10764252 3.93880929 0 1 C0 0.67 0 0.34 0 0 Z " fill="#003D95" transform="translate(1873,498)"/>
<path d="M0 0 C1.08239183 -0.00165078 2.16478367 -0.00330156 3.27997525 -0.00500236 C6.92117421 -0.0093297 10.56233276 -0.00652527 14.20353276 -0.00377727 C16.84601054 -0.00542679 19.48848535 -0.00747207 22.13096216 -0.00999737 C27.90171192 -0.01470852 33.67245309 -0.01569626 39.44320446 -0.01426902 C48.08237856 -0.01214808 56.72154378 -0.01576096 65.36071651 -0.0204838 C80.08420449 -0.02835864 94.80769005 -0.03144592 109.53117996 -0.03192973 C124.45527823 -0.03243195 139.37937378 -0.03507718 154.30347115 -0.04033732 C155.71662092 -0.04083252 155.71662092 -0.04083252 157.15831918 -0.04133773 C160.99526886 -0.04268771 164.83221853 -0.04405038 168.6691682 -0.04542983 C214.10761512 -0.06173681 259.54606152 -0.06811897 304.98451087 -0.0728777 C327.60778457 -0.07526042 350.23105796 -0.07896379 372.85433143 -0.0829148 C445.41219044 -0.09557952 517.97004943 -0.10636351 590.52790953 -0.10975526 C593.99615214 -0.1099175 597.46439475 -0.11008306 600.93263736 -0.11024964 C607.88832023 -0.11058344 614.84400309 -0.11091392 621.79968596 -0.1112442 C629.94320166 -0.1116311 638.08671737 -0.11202071 646.23023307 -0.11241527 C648.56097844 -0.11252769 650.8917238 -0.1126391 653.22246916 -0.11274952 C728.08414626 -0.11629925 802.94581376 -0.13137875 877.8074872 -0.15468726 C931.59656655 -0.17142795 985.38564409 -0.18690353 1039.17472607 -0.19142222 C1040.28082838 -0.19151571 1041.38693068 -0.1916092 1042.52655124 -0.19170551 C1066.80785049 -0.19372453 1091.08914971 -0.1948806 1115.37044904 -0.1952341 C1124.05874472 -0.19537027 1132.74704039 -0.19557927 1141.43533606 -0.19582735 C1143.59679109 -0.19588891 1145.75824612 -0.19594723 1147.91970115 -0.1960023 C1182.36621163 -0.19692224 1216.8127121 -0.20689195 1251.25921928 -0.22145979 C1285.9538078 -0.23607383 1320.64838403 -0.24111881 1355.34297508 -0.23304025 C1360.13766587 -0.23192487 1364.93235668 -0.23091421 1369.7270475 -0.22996593 C1370.66693473 -0.22977596 1371.60682196 -0.22958599 1372.57519061 -0.22939027 C1387.455055 -0.22665703 1402.33489666 -0.23399725 1417.2147561 -0.24553929 C1431.84780164 -0.2566802 1446.48081505 -0.25711121 1461.11386109 -0.24616911 C1469.69135027 -0.24007561 1478.26874249 -0.2421596 1486.84622252 -0.25642108 C1492.54783679 -0.26507809 1498.24937992 -0.2627882 1503.95098982 -0.25172237 C1507.17990284 -0.24575838 1510.40859022 -0.24599966 1513.63749738 -0.25640723 C1545.58857578 -0.35261433 1573.03677133 5.95104114 1596.8565641 28.5026505 C1617.65986719 50.5901081 1624.4547435 76.50290828 1624.34707314 106.20524144 C1624.34794672 108.01074993 1624.3497005 109.81625818 1624.35225147 111.62176508 C1624.35669902 116.55211107 1624.34875718 121.48236929 1624.33869535 126.41270411 C1624.33002558 131.74108696 1624.3329835 137.06946521 1624.3344999 142.39785314 C1624.33554652 151.61936983 1624.32929319 160.84085813 1624.31802422 170.06236768 C1624.30174199 183.3949754 1624.29655843 196.72756946 1624.29404823 210.06018605 C1624.2896754 231.6936032 1624.27637748 253.32700523 1624.25744301 274.96041417 C1624.23907355 295.97017903 1624.22492226 316.97993977 1624.21642739 337.98971105 C1624.21590194 339.28563872 1624.21537649 340.58156639 1624.21483512 341.91676459 C1624.21222497 348.41831732 1624.20969757 354.91987007 1624.20721132 361.42142284 C1624.18649164 415.32350917 1624.15127733 469.2255791 1624.1065641 523.1276505 C1536.00041108 523.14379287 1447.89425779 523.1593276 1343.05152565 523.16999364 C1341.64772561 523.17013309 1340.24392556 523.17027254 1338.84012551 523.17041199 C1309.36245974 523.1733358 1279.88479394 523.17605239 1250.40712813 523.17853018 C1235.59560267 523.1797754 1220.78407722 523.18106037 1205.97255177 523.18238294 C1203.73853712 523.18258219 1201.50452247 523.18278031 1199.27050782 523.18297838 C1164.94232043 523.18603193 1130.61413338 523.18992851 1096.28594643 523.19631505 C1095.18205005 523.1965204 1095.18205005 523.1965204 1094.05585274 523.19672989 C1082.19337915 523.19894177 1070.33090558 523.20122557 1058.468432 523.20351894 C1024.22634474 523.21013785 989.98425776 523.2162093 955.74216992 523.21879029 C954.68191971 523.2188706 954.68191971 523.2188706 953.6002503 523.21895252 C938.06914228 523.22011933 922.53803425 523.2210137 907.00692619 523.22165148 C900.75407786 523.22191304 894.50122953 523.22221367 888.2483812 523.22252774 C887.22197512 523.22257788 887.22197512 523.22257788 886.17483356 523.22262904 C864.26816438 523.22371852 842.36149726 523.22796561 820.45482891 523.23393271 C797.69545832 523.24011679 774.93608948 523.24265162 752.17671799 523.24115188 C740.24211567 523.24046499 728.30751892 523.24136413 716.37291771 523.24685597 C711.88149447 523.24872687 707.39007118 523.25043871 702.89864784 523.25207067 C701.81043384 523.25250488 700.72221984 523.2529391 699.60102965 523.25338648 C688.16501744 523.257286 676.7291752 523.25160995 665.29321998 523.21303594 C663.83981333 523.20817805 663.83981333 523.20817805 662.35704492 523.20322202 C658.54631089 523.19021571 654.73557908 523.17695972 650.92485236 523.16194809 C640.44526525 523.12149161 629.969058 523.12725171 619.48997627 523.24507412 C613.38788464 523.31325163 607.28643119 523.34632093 601.18395698 523.34876589 C597.78679944 523.3522201 594.3954545 523.38258893 590.99867927 523.45396347 C571.73686802 523.8513011 571.73686802 523.8513011 567.29893731 520.9431041 C564.16269326 517.81858144 562.62386789 514.21230603 561.1065641 510.1276505 C559.92678483 508.2819015 559.92678483 508.2819015 558.67297035 506.8307755 C558.01168129 506.02124425 557.35039223 505.211713 556.6690641 504.3776505 C540.58997429 485.29056769 516.96989294 473.31711407 492.1065641 471.1276505 C484.11516283 470.74346106 476.10491968 470.84173573 468.10660988 470.8491776 C465.65763127 470.84417054 463.20865432 470.83829354 460.75967968 470.83162487 C455.44911629 470.81914648 450.13859857 470.81277032 444.82802445 470.81186414 C436.93151324 470.81048315 429.0350489 470.79766994 421.13855346 470.7825764 C407.85280156 470.75750243 394.56705365 470.74160734 381.28128296 470.73099446 C368.13204458 470.72046047 354.98282128 470.70581557 341.8335939 470.68571401 C341.01515657 470.68446514 340.19671924 470.68321627 339.35348078 470.68192956 C335.19683061 470.67556556 331.04018055 470.66912844 326.88353053 470.66266318 C297.46349816 470.6170346 268.04346088 470.58057236 238.62340981 470.5495255 C210.04723063 470.51934814 181.47106141 470.48500337 152.89489418 470.44503331 C152.01361698 470.44380231 151.13233978 470.4425713 150.2243572 470.441303 C141.37398279 470.42893585 132.52360851 470.41648415 123.67323431 470.40397052 C105.64497419 470.37848211 87.6167133 470.35355788 69.58845192 470.32897496 C68.75959274 470.32784405 67.93073355 470.32671314 67.07675742 470.32554797 C11.7533712 470.25012849 -43.57003133 470.18790074 -98.8934359 470.1276505 C-98.9621522 421.48067969 -99.01499016 372.8337138 -99.04663188 324.18670398 C-99.05038385 318.43915482 -99.05426684 312.69160576 -99.05823082 306.94405675 C-99.05901775 305.79985764 -99.05980468 304.65565854 -99.06061546 303.47678673 C-99.07365757 284.96744912 -99.09730483 266.45813956 -99.12489428 247.94881856 C-99.15298172 228.94645453 -99.16961921 209.94410514 -99.17570138 190.9417212 C-99.17981089 179.22300113 -99.19277499 167.50436034 -99.2171853 155.78566468 C-99.23308371 147.74192528 -99.23782698 139.69822667 -99.23394003 131.65447271 C-99.23202487 127.01862623 -99.23489185 122.38291799 -99.25105232 117.7470963 C-99.26577396 113.49268068 -99.26630975 109.23849478 -99.25613258 104.98406804 C-99.25487689 103.45485208 -99.2585779 101.92562111 -99.26808544 100.39643419 C-99.4277381 73.10384338 -90.99496979 48.52814907 -71.7293734 28.92843175 C-70.79351402 28.00417394 -69.85765465 27.07991612 -68.8934359 26.1276505 C-68.20507652 25.44058019 -67.51671715 24.75350987 -66.8074984 24.04561925 C-48.74907575 7.16823269 -24.19703764 -0.05224754 0 0 Z " fill="#00A6F0" transform="translate(1426.893435895443,26.872349500656128)"/>
<path d="M0 0 C327.03 0 654.06 0 991 0 C991 171.93 991 343.86 991 521 C663.97 521 336.94 521 0 521 C0 349.07 0 177.14 0 0 Z " fill="#007DD7" transform="translate(2059,550)"/>
<path d="M0 0 C39.93 0 79.86 0 121 0 C128.50465116 34.30697674 128.50465116 34.30697674 130.97265625 46.890625 C132.23976971 53.27636229 133.62616827 59.63654366 135 66 C136.89238886 74.76832202 138.72997625 83.54225213 140.4609375 92.34375 C141.89405986 99.5798432 143.44388341 106.78947957 145 114 C146.89231253 122.76833925 148.72997598 131.54225076 150.4609375 140.34375 C151.89405986 147.5798432 153.44388341 154.78947957 155 162 C156.89231253 170.76833925 158.72997598 179.54225076 160.4609375 188.34375 C161.89405986 195.5798432 163.44388341 202.78947957 165 210 C166.89231253 218.76833925 168.72997598 227.54225076 170.4609375 236.34375 C171.89405986 243.5798432 173.44388341 250.78947957 175 258 C176.89231253 266.76833925 178.72997598 275.54225076 180.4609375 284.34375 C181.89405986 291.5798432 183.44388341 298.78947957 185 306 C186.89231253 314.76833925 188.72997598 323.54225076 190.4609375 332.34375 C191.89405986 339.5798432 193.44388341 346.78947957 195 354 C196.89231253 362.76833925 198.72997598 371.54225076 200.4609375 380.34375 C201.89406145 387.57985124 203.4443061 394.78938288 205 402 C212.65270256 437.55149407 220.19492705 473.5301954 221 510 C221.66 510 222.32 510 223 510 C223.05607422 508.95779297 223.05607422 508.95779297 223.11328125 507.89453125 C225.59834125 469.4491912 235.21141947 431.31297035 244.35717773 394.00317383 C246.68684739 384.44725662 248.82901679 374.85644528 250.9375 365.25 C253.48807509 353.63071349 256.15775979 342.05140547 259 330.5 C261.83632331 318.9684765 264.50996804 307.41016513 267.0625 295.8125 C271.35879251 276.30081117 275.83880555 256.83760416 280.57177734 237.42651367 C283.69043275 224.63263885 286.61887111 211.81082157 289.44259644 198.94940186 C291.82813588 188.0980943 294.34546526 177.2885347 297 166.5 C299.83632331 154.9684765 302.50996804 143.41016513 305.0625 131.8125 C309.35908083 112.29950177 313.83933936 92.83497072 318.57275391 73.42260742 C321.94420755 59.59127121 325.10990031 45.72511674 328.15991211 31.81982422 C329.79159131 24.38605447 331.45035283 16.95952056 333.17578125 9.546875 C333.34345505 8.81938049 333.51112885 8.09188599 333.68388367 7.34234619 C334.88237414 2.23525173 334.88237414 2.23525173 336 0 C378.9 0 421.8 0 466 0 C474.73141655 32.74281206 474.73141655 32.74281206 478.56640625 48.9765625 C480.00998394 55.08179637 481.52969422 61.16664653 483.0625 67.25 C485.14075612 75.50815745 487.15034695 83.7793424 489.10571289 92.06738281 C490.68237421 98.72565308 492.33065328 105.36441294 494 112 C495.81493485 119.21920453 497.6008265 126.4431001 499.3125 133.6875 C501.64909026 143.57187243 504.03773279 153.44331094 506.4375 163.3125 C506.63344757 164.11843597 506.82939514 164.92437195 507.03128052 165.75473022 C509.6404003 176.47970681 512.28709388 187.19439139 514.97900391 197.89892578 C516.67084387 204.64166428 518.29832114 211.39765459 519.89770508 218.1628418 C522.04318988 227.22109033 524.23807413 236.26722695 526.4375 245.3125 C526.63344757 246.11843597 526.82939514 246.92437195 527.03128052 247.75473022 C529.63808875 258.47020501 532.28081292 269.17582545 534.97241211 279.87036133 C536.74323794 286.92337826 538.43656242 293.9928056 540.10644531 301.0703125 C541.68278035 307.72762538 543.33089906 314.36538987 545 321 C546.81493485 328.21920453 548.6008265 335.4431001 550.3125 342.6875 C552.6490913 352.57187681 555.03818375 362.44319839 557.4375 372.3125 C557.63411224 373.12175934 557.83072449 373.93101868 558.03329468 374.76480103 C560.12556831 383.37269642 562.23323336 391.9756065 564.41235352 400.56201172 C569.84831542 422.01907 574.77411688 443.46114362 578.3125 465.3125 C578.43560547 466.06784027 578.55871094 466.82318054 578.68554688 467.60140991 C580.02938299 475.91469336 581.20615304 484.23902079 582.16796875 492.60546875 C582.2956237 493.69025261 582.2956237 493.69025261 582.42585754 494.79695129 C582.94832094 499.55789773 583.07166622 504.21047586 583 509 C583.66 509 584.32 509 585 509 C585.07565186 507.54267456 585.07565186 507.54267456 585.15283203 506.0559082 C585.68758937 496.37171326 586.62472546 486.80808879 587.875 477.1875 C588.05535402 475.77702021 588.23569236 474.36653841 588.41601562 472.95605469 C590.12736234 459.67271711 592.05320097 446.47379736 594.7265625 433.34765625 C597.39001403 420.14428117 599.9337595 406.91770624 602.4876709 393.69281006 C603.12545507 390.39082474 603.76391915 387.08897092 604.40234375 383.78710938 C605.29302003 379.1803308 606.18348302 374.57351109 607.07367325 369.96663857 C609.47776005 357.52535328 611.88612408 345.08489634 614.29449463 332.6444397 C615.52984065 326.26299417 616.76490325 319.88149378 618 313.5 C618.4999973 310.91666614 618.99999866 308.33333307 619.5 305.75 C619.7475 304.47125 619.995 303.1925 620.25 301.875 C622.49999999 290.25000004 622.49999999 290.25000004 623.25024414 286.3737793 C623.74945059 283.79451889 624.24863684 281.21525458 624.74780273 278.63598633 C625.88151627 272.77803488 627.01537194 266.92011115 628.15005493 261.06234741 C628.53693943 259.06501287 628.92375283 257.06766456 629.31054688 255.0703125 C629.78436822 252.62367138 630.25830968 250.17705352 630.73242188 247.73046875 C632.25889996 239.84733119 633.77700522 231.96260478 635.29272461 224.07739258 C637.61401235 212.00417812 639.93866486 199.93161442 642.26493835 187.85935974 C642.93045483 184.40563816 643.59591015 180.9519048 644.26135254 177.49816895 C645.91194285 168.93144503 647.56263141 160.36474005 649.21331787 151.79803467 C650.61708236 144.51277977 652.02080752 137.22751729 653.42448425 129.94224548 C654.06961374 126.59401742 654.71479782 123.24579988 655.35998535 119.89758301 C655.76798848 117.78002996 656.1759882 115.66247626 656.58398438 113.54492188 C656.88006214 112.00849659 656.88006214 112.00849659 657.18212128 110.44103241 C658.23959242 104.95224461 659.29538421 99.46313882 660.34912109 93.97363281 C660.68437679 92.22781292 660.68437679 92.22781292 661.02640533 90.44672394 C661.45180962 88.23106165 661.87691587 86.01534211 662.30165863 83.79955292 C663.48608297 77.63151711 664.69539315 71.46917573 665.9375 65.3125 C667.11878757 59.45126731 668.27651932 53.58627157 669.40625 47.71484375 C669.53189835 47.06207962 669.65754669 46.40931549 669.78700256 45.73677063 C670.40401611 42.529811 671.01900408 39.32249834 671.63061523 36.11450195 C673.94911261 24.0431516 676.49172403 12.03972467 679 0 C718.27 0 757.54 0 798 0 C793.38713771 20.75788031 793.38713771 20.75788031 791.7734375 27.6875 C791.58429779 28.50234863 791.39515808 29.31719727 791.20028687 30.15673828 C790.5928922 32.77140061 789.98403316 35.38571888 789.375 38 C789.16234497 38.91442871 788.94968994 39.82885742 788.73059082 40.77099609 C785.24712487 55.74712632 781.69434791 70.70606351 778.11315918 85.65908813 C775.26202403 97.57137838 772.5202481 109.4991135 769.90966797 121.46679688 C768.43660155 128.17707773 766.76695652 134.78600792 764.9296875 141.40625 C763.62155426 146.46289951 762.57579532 151.56677709 761.56982422 156.69140625 C760.4524979 162.25473467 759.0261178 167.70661495 757.540802 173.18266296 C755.79000261 179.68510457 754.3205982 186.23682906 752.875 192.8125 C750.09482427 205.31986331 747.17104911 217.78970908 744.1875 230.25 C740.52649817 245.54622262 736.92772548 260.85549929 733.37985229 276.17834473 C730.01871107 290.68910919 726.58103345 305.18048271 723.11151123 319.66567993 C720.28085915 331.49253677 717.52171063 343.32857785 714.97558594 355.22070312 C713.83952823 360.47252545 712.57068564 365.65949883 711.15625 370.84375 C708.70396662 379.91811911 706.64165482 389.07392703 704.56954956 398.24136353 C703.36473049 403.56879298 702.14969344 408.89388584 700.93359375 414.21875 C700.68708572 415.29820389 700.4405777 416.37765778 700.18659973 417.48982239 C697.83148088 427.77879419 695.39666486 438.04797373 692.9375 448.3125 C689.35878853 463.25596199 685.84501267 478.2130727 682.37875366 493.18301392 C679.01798302 507.69222296 675.58066101 522.18203764 672.11151123 536.66567993 C669.25969014 548.5809838 666.52011005 560.51229302 663.90527344 572.48217773 C662.47032919 579.01117406 660.86778412 585.44653254 659.07421875 591.88671875 C657.15440066 599.00753275 655.62581197 606.23582859 654.01757812 613.43188477 C653.64729492 615.07048462 653.64729492 615.07048462 653.26953125 616.7421875 C652.93852417 618.22501221 652.93852417 618.22501221 652.60083008 619.73779297 C652 622 652 622 651 623 C649.21572813 623.09636838 647.42760347 623.12187453 645.64073181 623.12025452 C644.47820389 623.12162918 643.31567596 623.12300385 642.11791992 623.12442017 C640.83111328 623.12082489 639.54430664 623.11722961 638.21850586 623.11352539 C636.85876976 623.11324352 635.4990335 623.11340125 634.13929749 623.1139679 C630.43698222 623.11425587 626.73469908 623.10835912 623.03239131 623.10139394 C619.16731219 623.09516043 615.30223242 623.0945566 611.43714905 623.09336853 C604.11315318 623.09025521 596.78917216 623.0820418 589.46518284 623.07201904 C581.12916552 623.06085794 572.79314751 623.05534746 564.45712459 623.05032361 C547.30474112 623.03985919 530.15237213 623.02225973 513 623 C503.26585553 584.15319867 503.26585553 584.15319867 499.375 568.0625 C498.999261 566.5121889 498.62344482 564.9618965 498.24755859 563.41162109 C497.5048079 560.34734321 496.76284836 557.28287538 496.02148438 554.21826172 C495.10657186 550.43757055 494.18667446 546.65810746 493.265625 542.87890625 C489.31990129 526.65525946 485.50902205 510.4012493 481.71170044 494.1423645 C477.67241325 476.84409513 477.67241325 476.84409513 473.5625 459.5625 C473.24720337 458.24717285 473.24720337 458.24717285 472.92553711 456.90527344 C471.6958401 451.80511125 470.43132733 446.71397982 469.15625 441.625 C466.72051036 431.90306546 464.32235154 422.17203424 461.9375 412.4375 C461.70178284 411.47578888 461.46606567 410.51407776 461.22320557 409.52322388 C457.26674737 393.36270029 453.44978144 377.1722456 449.68469238 360.96621704 C446.62875225 347.82385708 443.48472821 334.7089594 440.1875 321.625 C439.90585999 320.50720154 439.90585999 320.50720154 439.61853027 319.36682129 C438.89552704 316.49856753 438.17217973 313.63040082 437.44833374 310.76235962 C433.97513493 296.98488422 430.73330648 283.15260323 427.50390625 269.31640625 C427.27778656 268.34786713 427.05166687 267.379328 426.81869507 266.38143921 C424.91005399 258.20541465 424.91005399 258.20541465 423.9699707 254.16967773 C421.14400605 242.04041835 418.2649071 229.92757796 415.27416992 217.83789062 C411.34810631 201.96712485 407.82173593 186.11054567 405 170 C404.70551936 168.33995709 404.41073848 166.67996742 404.11572266 165.02001953 C403.29346839 160.38529097 402.4806986 155.74897654 401.67437744 151.1114502 C401.35249625 149.26102679 401.02923693 147.41084252 400.70452881 145.56091309 C400.24862793 142.95439694 399.80090414 140.34660378 399.35546875 137.73828125 C399.21824905 136.96017593 399.08102936 136.18207062 398.93965149 135.38038635 C398.1766271 130.85064623 397.86824813 126.59384974 398 122 C397.34 122.33 396.68 122.66 396 123 C395.59791324 125.45219004 395.3160156 127.83440232 395.09375 130.3046875 C394.41190821 136.88137896 393.50402032 143.37337813 392.34375 149.8828125 C392.19478271 150.72044128 392.04581543 151.55807007 391.89233398 152.42108154 C391.43193207 154.98973956 390.96660395 157.55746192 390.5 160.125 C389.88131976 163.54354703 389.26634117 166.96272192 388.65625 170.3828125 C388.50921631 171.20614075 388.36218262 172.02946899 388.21069336 172.87774658 C387.10464594 179.17118156 386.25059493 185.47154479 385.44458008 191.81054688 C384.86817321 195.94573599 383.97221537 199.94427228 383 204 C382.57437519 205.97026961 382.15427504 207.94173697 381.73828125 209.9140625 C377.02722431 232.10312403 372.07140532 254.23212487 366.875 276.3125 C361.82668031 297.78460703 357.08185338 319.32685412 352.27005005 340.8528595 C349.42749646 353.56700151 346.56289091 366.27606213 343.68359375 378.98193359 C343.02727627 381.87957525 342.37282655 384.77763306 341.71875 387.67578125 C339.43650276 397.77263896 337.10631496 407.85767137 334.75 417.9375 C327.38842017 449.43693855 320.17623827 480.96434484 313.21679688 512.55517578 C309.19397427 530.81074474 305.01522082 549.02807391 300.79620361 567.23907471 C299.35672773 573.45385344 297.92320064 579.66998636 296.4921875 585.88671875 C296.08114823 587.67155228 295.67009694 589.45638304 295.2590332 591.24121094 C294.66659551 593.81360072 294.07433563 596.38603055 293.48275757 598.95861816 C292.93841079 601.3254355 292.39312957 603.69203583 291.84765625 606.05859375 C291.68969574 606.74652512 291.53173523 607.43445648 291.36898804 608.14323425 C290.29948672 612.77813139 289.15413208 617.38347169 288 622 C241.47 622 194.94 622 147 622 C142.50537279 606.26880476 142.50537279 606.26880476 141.32421875 600.87109375 C141.05754395 599.66767334 140.79086914 598.46425293 140.51611328 597.22436523 C140.2426709 595.97469971 139.96922852 594.72503418 139.6875 593.4375 C139.0774676 590.68677132 138.46317331 587.93700614 137.84765625 585.1875 C137.69331116 584.49736313 137.53896606 583.80722626 137.37994385 583.09617615 C135.8672534 576.35904967 134.25813106 569.6464005 132.625 562.9375 C129.92051469 551.82118557 127.25747672 540.69605813 124.625 529.5625 C124.43534668 528.76077362 124.24569336 527.95904724 124.05029297 527.13302612 C122.8896579 522.22663268 121.72980451 517.3200548 120.5703125 512.41339111 C118.9228959 505.44201912 117.27464655 498.47084467 115.625 491.5 C115.3521669 490.34692856 115.3521669 490.34692856 115.07382202 489.17056274 C111.88363297 475.69178178 108.66326053 462.22030619 105.4375 448.75 C101.90145393 433.98355913 98.38823194 419.21218261 94.91992188 404.4296875 C94.60157791 403.07291305 94.28321851 401.71614222 93.96484375 400.359375 C93.80720551 399.68757202 93.64956726 399.01576904 93.4871521 398.3236084 C91.6761148 390.61147555 89.84622294 382.90381852 88.01763916 375.1958313 C83.185376 354.82330466 78.39857128 334.44060865 73.70703125 314.03515625 C73.30598991 312.29223625 72.90494824 310.54931633 72.50390625 308.80639648 C71.73250095 305.45347018 70.96322812 302.10006494 70.1953125 298.74633789 C68.53157363 291.4987367 66.83649035 284.26358231 65.01171875 277.0546875 C62.48510565 267.07177404 60.21868275 257.02967661 57.92724609 246.99072266 C55.87686678 238.01703011 53.78870013 229.06069402 51.52900696 220.13713074 C49.51491861 212.14363068 47.67817706 204.10885925 45.82540894 196.07675171 C42.75375017 182.76632837 39.66201777 169.46182865 36.4375 156.1875 C33.82363991 145.4237779 31.24110941 134.65315196 28.6875 123.875 C28.50051544 123.08589233 28.31353088 122.29678467 28.12088013 121.48376465 C25.00158004 108.31030539 21.9331551 95.12526703 18.875 81.9375 C14.5409221 63.24877455 10.0833232 44.59358211 5.5214386 25.95901489 C4.85929379 23.25135016 4.19975767 20.54305364 3.5406189 17.83465576 C3.07376776 15.92118292 2.60297233 14.00867377 2.13208008 12.09619141 C1.85259521 10.94812012 1.57311035 9.80004883 1.28515625 8.6171875 C1.03644775 7.60253418 0.78773926 6.58788086 0.53149414 5.54248047 C0 3 0 3 0 0 Z " fill="#FEFEFE" transform="translate(982,760)"/>
<path d="M0 0 C1.73166916 -0.00472824 1.73166916 -0.00472824 3.49832153 -0.009552 C5.36096146 -0.00651566 5.36096146 -0.00651566 7.26123047 -0.00341797 C8.53819794 -0.00437469 9.81516541 -0.00533142 11.13082886 -0.00631714 C13.82911574 -0.00699756 16.527312 -0.00565483 19.22558594 -0.00097656 C22.68695769 0.00473191 26.1482521 0.00143155 29.60962105 -0.00454903 C32.91016033 -0.00902557 36.21069018 -0.0058945 39.51123047 -0.00341797 C40.75703888 -0.0054422 42.00284729 -0.00746643 43.28640747 -0.009552 C44.43454926 -0.00639984 45.58269104 -0.00324768 46.765625 0 C47.77948273 0.00079559 48.79334045 0.00159119 49.83792114 0.00241089 C52.25341797 0.12939453 52.25341797 0.12939453 54.25341797 1.12939453 C54.32381487 16.75986232 54.37655523 32.3902866 54.40885448 48.02087402 C54.42425696 55.28008354 54.44521809 62.53919397 54.47973633 69.79833984 C54.50984332 76.13288001 54.52904093 82.46734835 54.53568345 88.80195808 C54.53956013 92.14937667 54.55015662 95.49642871 54.57060814 98.84381104 C54.76314516 131.68637826 48.076287 158.42806873 24.94091797 182.87939453 C8.10385417 199.03467582 -15.75018019 209.50316575 -39.14355469 209.3782835 C-40.15822203 209.38089079 -41.17288938 209.38349807 -42.21830422 209.38618436 C-45.61581462 209.39247699 -49.01313967 209.38452566 -52.41064453 209.37663269 C-54.87195625 209.37822113 -57.33326753 209.38068507 -59.7945776 209.3839491 C-65.14451965 209.38902456 -70.49440672 209.3878919 -75.84434319 209.38126373 C-83.79950291 209.37143507 -91.75463161 209.37308126 -99.70979496 209.37701403 C-113.09292364 209.38328594 -126.47603469 209.38012145 -139.85916138 209.37141991 C-153.10938684 209.36280653 -166.35960438 209.35789973 -179.60983276 209.35808754 C-180.84600159 209.35809901 -180.84600159 209.35809901 -182.10714353 209.35811071 C-185.45234409 209.35815162 -188.79754464 209.35821723 -192.1427452 209.35831652 C-223.51822442 209.35922247 -254.89369157 209.34927866 -286.2691666 209.33388686 C-314.16414668 209.32025297 -342.05911818 209.314026 -369.95410156 209.31469727 C-371.74635657 209.31473768 -373.53861157 209.31477804 -375.33086658 209.31481835 C-376.21691224 209.3148387 -377.10295791 209.31485905 -378.01585344 209.31488001 C-382.47578909 209.3149808 -386.93572475 209.31507139 -391.3956604 209.31515026 C-392.27547938 209.31516697 -393.15529837 209.31518369 -394.06177853 209.31520091 C-417.35582576 209.31556571 -440.6498719 209.31103165 -463.94391823 209.3048237 C-465.18604077 209.30449329 -465.18604077 209.30449329 -466.45325669 209.30415621 C-469.78334442 209.30326795 -473.11343215 209.30237957 -476.44351988 209.30146525 C-488.04599938 209.29830125 -499.64847805 209.29679548 -511.25095796 209.29635376 C-526.19388375 209.29575778 -541.13680245 209.29178518 -556.07972521 209.2819223 C-563.98911846 209.27679243 -571.89850129 209.27440288 -579.80789613 209.27591849 C-585.69707825 209.27673493 -591.58624875 209.27236058 -597.47542763 209.26586799 C-599.87018007 209.26404319 -602.26493451 209.26393537 -604.65968704 209.26563527 C-607.89192781 209.26767715 -611.12410344 209.26367804 -614.3563385 209.25802898 C-615.3057244 209.2600843 -616.25511029 209.26213962 -617.23326546 209.26425722 C-623.63242705 209.24354951 -623.63242705 209.24354951 -624.74658203 208.12939453 C-624.84332769 206.11711408 -624.86845211 204.10138084 -624.86683655 202.08677673 C-624.86821121 200.77279404 -624.86958588 199.45881134 -624.8710022 198.10501099 C-624.86746258 196.63519265 -624.86382776 195.16537453 -624.86010742 193.69555664 C-624.85982556 192.15848289 -624.85998326 190.621409 -624.86054993 189.08433533 C-624.86083794 184.89856593 -624.85494055 180.71282494 -624.84797597 176.52706218 C-624.84174312 172.15749297 -624.84113869 167.78792318 -624.83995056 163.41835022 C-624.83683704 155.13812406 -624.82862338 146.85791103 -624.81860107 138.57769066 C-624.80744057 129.15342294 -624.80192965 119.72915461 -624.79690564 110.30488193 C-624.78644078 90.91304534 -624.76884094 71.52122099 -624.74658203 52.12939453 C-580.24476719 52.03361294 -535.74295195 51.93801616 -491.24113464 51.84338379 C-490.57821577 51.84197405 -489.9152969 51.84056431 -489.23228958 51.83911186 C-474.81124207 51.80844571 -460.39019449 51.77781225 -445.96914684 51.74721226 C-438.89292405 51.73219704 -431.81670128 51.71717463 -424.74047852 51.70214844 C-423.68445213 51.69990617 -423.68445213 51.69990617 -422.60709188 51.69761861 C-399.95402275 51.64951593 -377.30095465 51.6009421 -354.64788707 51.55211318 C-331.28979131 51.50176714 -307.93169454 51.45191785 -284.57359646 51.40265843 C-269.57318408 51.37102336 -254.57277252 51.33905526 -239.57236261 51.30626664 C-233.3468533 51.29269426 -227.12134366 51.27937064 -220.8958326 51.26662493 C-218.46642689 51.26164215 -216.03702118 51.25665747 -213.60761547 51.25167084 C-212.41871538 51.24923706 -211.22981529 51.24680328 -210.00488793 51.24429575 C-203.00031777 51.22967526 -195.99575846 51.2126656 -188.99119887 51.1936641 C-168.88142405 51.13965885 -148.77329708 51.09606143 -128.66382254 51.23920983 C-126.16189911 51.2562987 -123.65997595 51.27083284 -121.15803045 51.28427362 C-120.36162647 51.28857035 -119.56522249 51.29286707 -118.74468506 51.29729399 C-117.18131432 51.30564576 -115.61794291 51.31387278 -114.05457082 51.32196751 C-110.41808444 51.34225413 -106.7820393 51.37033165 -103.14580882 51.41857815 C-82.54751135 51.69013506 -65.97554323 50.44853217 -47.74658203 40.12939453 C-46.87775391 39.66791016 -46.00892578 39.20642578 -45.11376953 38.73095703 C-39.95009028 35.85855667 -35.40404064 32.39410111 -30.87158203 28.62939453 C-30.3236499 28.17854492 -29.77571777 27.72769531 -29.21118164 27.26318359 C-25.6724675 24.23733449 -23.24017437 21.10355733 -20.74658203 17.12939453 C-19.4132487 15.7960612 -18.07991536 14.46272786 -16.74658203 13.12939453 C-15.51146124 10.99630261 -15.51146124 10.99630261 -14.74658203 9.12939453 C-14.08658203 9.12939453 -13.42658203 9.12939453 -12.74658203 9.12939453 C-12.43720703 8.18064453 -12.12783203 7.23189453 -11.80908203 6.25439453 C-10.74658203 3.12939453 -10.74658203 3.12939453 -9.74658203 1.12939453 C-6.52859748 -0.03609069 -3.3947769 0.00265977 0 0 Z " fill="#002A6A" transform="translate(1952.74658203125,1592.87060546875)"/>
<path d="M0 0 C7.41564985 -0.10240734 14.83111375 -0.17188319 22.24731445 -0.21972656 C24.76398533 -0.23969631 27.28061069 -0.26688171 29.79711914 -0.30175781 C56.55926101 -0.66304938 56.55926101 -0.66304938 69 4 C70.07717285 4.38865234 71.1543457 4.77730469 72.26416016 5.17773438 C97.05189651 14.46837596 115.85879329 33.8992188 126.8125 57.625 C135.64069626 78.92549346 134.5689907 101.11905171 134.48906477 123.73392307 C134.47521651 128.92213191 134.48483218 134.1103087 134.49137473 139.29852462 C134.49963787 148.37681413 134.49314925 157.45499838 134.4768219 166.5332756 C134.45261175 180.03217247 134.45148517 193.53100344 134.45498985 207.02991806 C134.46023728 229.74079762 134.44694015 252.4516206 134.42292023 275.16248322 C134.39920184 297.642115 134.38381416 320.12172755 134.37950897 342.60137177 C134.37937132 343.30041849 134.37923368 343.99946521 134.37909186 344.71969517 C134.377839 351.1047429 134.37668824 357.48979064 134.37565996 363.87483841 C134.37310292 379.74483557 134.36926596 395.61483228 134.36455917 411.48482895 C134.36423927 412.56865859 134.36423927 412.56865859 134.3639129 413.67438378 C134.35343578 448.79204433 134.32820923 483.90969221 134.30175781 519.02734375 C134.29259088 531.20853669 134.28348929 543.38972967 134.2746582 555.57092285 C134.27411041 556.32643822 134.27356261 557.08195358 134.27299821 557.86036335 C134.24760512 593.00584139 134.23271412 628.1513216 134.22051902 663.2968064 C134.21972677 665.57947874 134.21893 667.86215108 134.21813231 670.14482342 C134.21285302 685.2726649 134.20775445 700.40050643 134.20277687 715.528348 C134.19287178 745.62702185 134.18190509 775.72569527 134.17020868 805.82436847 C134.16965172 807.25763035 134.1690955 808.69089223 134.16854003 810.12415411 C134.1353716 895.68606221 134.08036916 981.24795644 134 1096 C113.21 1096 92.42 1096 71 1096 C73.31 1089.07 75.62 1082.14 78 1075 C80.1802538 1065.39134549 80.2825966 1056.04844012 80.25168228 1046.25471592 C80.25377161 1044.57334335 80.25673637 1042.89197169 80.26049101 1041.21060202 C80.26826093 1036.59803967 80.26362875 1031.98556133 80.25693511 1027.37300039 C80.25185466 1022.3518776 80.25838434 1017.33076753 80.26342177 1012.30964655 C80.27064264 1003.5119525 80.27042754 994.714283 80.26532745 985.91658783 C80.25776403 972.83407039 80.26162919 959.75157367 80.26774407 946.66905637 C80.27766789 924.65822983 80.27803371 902.64741071 80.27259064 880.63658333 C80.27242505 879.96663986 80.27225946 879.2966964 80.27208885 878.60645162 C80.27192299 877.93543242 80.27175713 877.26441323 80.27158624 876.57306013 C80.2665387 856.12514131 80.26523764 835.67722648 80.26763153 815.22930717 C80.26778649 813.85970278 80.2679408 812.49009839 80.26809447 811.120494 C80.26871541 805.61652754 80.26935275 800.11256108 80.270014 794.60859462 C80.27184797 779.22289865 80.2729892 763.83720268 80.27358627 748.45150661 C80.27361356 747.75089115 80.27364086 747.05027569 80.27366897 746.32842945 C80.27448747 724.00547968 80.27223409 701.68253129 80.26788712 679.35958195 C80.26767637 678.27363017 80.26767637 678.27363017 80.26746136 677.16573997 C80.2651715 665.4091898 80.26273256 653.65263967 80.26028102 641.89608954 C80.25056897 595.27162421 80.25101877 548.64717036 80.26074219 502.02270508 C80.2631846 490.27325727 80.26560672 478.52380945 80.26788712 466.77436161 C80.26802801 466.05088872 80.26816891 465.32741583 80.26831407 464.58201952 C80.27262702 442.28310834 80.27445488 419.98419811 80.27358627 397.68528652 C80.2735591 396.98517293 80.27353194 396.28505934 80.27350394 395.56373019 C80.27287896 380.19447451 80.27161163 364.82521894 80.26976527 349.45596337 C80.26910699 343.95662034 80.26848083 338.4572773 80.26786385 332.95793427 C80.26770907 331.5898604 80.26755161 330.22178653 80.26739145 328.85371266 C80.26500506 308.4123377 80.26703562 287.97096722 80.27208885 267.52959281 C80.27225444 266.85973214 80.27242003 266.18987147 80.27259064 265.49971199 C80.272756 264.83108887 80.27292137 264.16246575 80.27309174 263.47358133 C80.27861018 240.91403864 80.27657121 218.35450547 80.26602915 195.79496414 C80.26015209 182.78907585 80.25977971 169.78321494 80.2673215 156.77732735 C80.27180282 148.09179788 80.26902133 139.40629039 80.26031196 130.72076418 C80.25555069 125.77084554 80.25393551 120.82098137 80.26112393 115.87106443 C80.26760175 111.36451807 80.26481487 106.8580743 80.2547626 102.35153536 C80.25275484 100.73479951 80.25406314 99.11805509 80.25917448 97.50132607 C80.33852907 70.47497252 72.47908086 47.33110993 53.64160156 27.63427734 C39.24358091 13.30049533 20.10764252 3.93880929 0 1 C0 0.67 0 0.34 0 0 Z " fill="#00457D" transform="translate(1873,498)"/>
<path d="M0 0 C61.28058888 -0.0507302 122.5611775 -0.09912432 183.84178162 -0.12702942 C184.74899147 -0.12744359 185.65620133 -0.12785776 186.5909024 -0.12828448 C206.30779613 -0.13726355 226.02469009 -0.14557405 245.74158439 -0.15319599 C255.41097493 -0.15693794 265.08036541 -0.16082761 274.74975586 -0.16479492 C275.71196801 -0.1651872 276.67418016 -0.16557948 277.66555026 -0.16598364 C308.84437938 -0.17876392 340.02319218 -0.20129505 371.20201141 -0.22889166 C403.24669315 -0.25720309 435.29136586 -0.2756595 467.3360599 -0.28174497 C471.86385561 -0.28260941 476.39165128 -0.28358632 480.91944695 -0.28463173 C481.81056766 -0.284834 482.70168837 -0.28503627 483.61981275 -0.28524467 C497.95489034 -0.28878755 512.28993998 -0.30269561 526.62500618 -0.3204961 C541.04234142 -0.33817696 555.45964898 -0.34489914 569.87699468 -0.34050413 C578.4388616 -0.33822528 587.0006271 -0.34427987 595.56247567 -0.36239263 C601.28871521 -0.37367705 607.01488864 -0.37396663 612.74113281 -0.36549544 C615.99946586 -0.36098464 619.25757026 -0.36276299 622.51589019 -0.37464955 C654.29036451 -0.48380245 680.74989745 6.47289635 704.25 28.8125 C721.73652067 46.97920948 731.25634714 70.77984732 731.046875 95.921875 C731.04349121 96.70224121 731.04010742 97.48260742 731.03662109 98.28662109 C731.02787157 100.19109975 731.01442356 102.09555586 731 104 C722.92452035 104.27892282 714.85107319 104.49167242 706.7719574 104.62174606 C703.01957306 104.68420264 699.27049828 104.76876942 695.52001953 104.90527344 C691.89518223 105.03636796 688.27351005 105.10753998 684.64648438 105.13852692 C683.26821016 105.16058217 681.89009634 105.20366428 680.51318359 105.26876068 C676.09289647 105.46928915 672.21113231 105.41623802 668 104 C664.45493493 100.39916574 662.27404097 96.47777575 660 92 C646.43546302 72.31186983 624.75440548 59.52209983 601.63607627 54.4849335 C590.15862679 52.39091266 578.62603666 52.71070993 567.00004578 52.7215271 C564.55106717 52.71652004 562.10209022 52.71064304 559.65311557 52.70397437 C554.34255219 52.69149598 549.03203447 52.68511982 543.72146034 52.68421364 C535.82494913 52.68283265 527.92848479 52.67001944 520.03198935 52.6549259 C506.74623746 52.62985193 493.46048955 52.61395684 480.17471886 52.60334396 C467.02548047 52.59280997 453.87625718 52.57816507 440.7270298 52.55806351 C439.4993738 52.55619021 439.4993738 52.55619021 438.24691667 52.55427906 C434.0902665 52.54791506 429.93361645 52.54147794 425.77696643 52.53501268 C396.35693405 52.48938411 366.93689678 52.45292186 337.5168457 52.421875 C308.94066653 52.39169764 280.36449731 52.35735288 251.78833008 52.31738281 C250.90705287 52.31615181 250.02577567 52.31492081 249.1177931 52.3136525 C240.26741869 52.30128535 231.4170444 52.28883365 222.5666702 52.27632002 C204.53841008 52.25083161 186.5101492 52.22590738 168.48188782 52.20132446 C167.65302863 52.20019355 166.82416945 52.19906264 165.97019332 52.19789747 C110.64680687 52.12247799 55.3234043 52.0606615 0 52 C0 34.84 0 17.68 0 0 Z " fill="#0094D8" transform="translate(1328,445)"/>
<path d="M0 0 C1.73166916 -0.00472824 1.73166916 -0.00472824 3.49832153 -0.009552 C5.36096146 -0.00651566 5.36096146 -0.00651566 7.26123047 -0.00341797 C8.53819794 -0.00437469 9.81516541 -0.00533142 11.13082886 -0.00631714 C13.82911574 -0.00699756 16.527312 -0.00565483 19.22558594 -0.00097656 C22.68695769 0.00473191 26.1482521 0.00143155 29.60962105 -0.00454903 C32.91016033 -0.00902557 36.21069018 -0.0058945 39.51123047 -0.00341797 C40.75703888 -0.0054422 42.00284729 -0.00746643 43.28640747 -0.009552 C44.43454926 -0.00639984 45.58269104 -0.00324768 46.765625 0 C47.77948273 0.00079559 48.79334045 0.00159119 49.83792114 0.00241089 C52.25341797 0.12939453 52.25341797 0.12939453 54.25341797 1.12939453 C55.15137341 30.26305996 46.47426393 54.52412375 27.22216797 76.44189453 C9.81613348 94.7039635 -14.89908612 104.66591994 -39.90151668 105.31229424 C-46.19786482 105.40696893 -52.49401764 105.38668053 -58.79086304 105.36990356 C-61.23245368 105.3707766 -63.67404414 105.37252937 -66.11563361 105.3750819 C-71.40697004 105.37861133 -76.69824899 105.37597951 -81.98957634 105.36780548 C-89.85745169 105.35568517 -97.72529881 105.35513852 -105.59318179 105.35688946 C-118.83119694 105.35951133 -132.06919206 105.35285704 -145.30720139 105.34085464 C-158.40815709 105.32900705 -171.50910444 105.32132002 -184.61006546 105.31914902 C-185.83345931 105.3189428 -185.83345931 105.3189428 -187.08156818 105.31873241 C-191.22382921 105.31805572 -195.36609024 105.31745296 -199.50835128 105.31687866 C-228.82246773 105.31268157 -258.13657328 105.29921729 -287.45068359 105.28027344 C-315.92301374 105.26189485 -344.39534089 105.24773239 -372.86767578 105.23925781 C-374.18491213 105.23886323 -374.18491213 105.23886323 -375.52875931 105.23846068 C-384.34784717 105.23582357 -393.16693505 105.23327195 -401.98602295 105.23078297 C-419.9503684 105.22571099 -437.91471367 105.22006849 -455.87905884 105.21408081 C-457.11792521 105.21366894 -457.11792521 105.21366894 -458.38181919 105.21324875 C-513.5034116 105.19485781 -568.62499692 105.16271094 -623.74658203 105.12939453 C-623.74658203 87.96939453 -623.74658203 70.80939453 -623.74658203 53.12939453 C-617.04422745 53.12352829 -610.34187286 53.11766205 -603.43641663 53.11161804 C-559.15514736 53.07186666 -514.87388508 53.02878091 -470.59263611 52.97041321 C-469.83654428 52.96941764 -469.08045245 52.96842208 -468.30144875 52.96739634 C-451.86784198 52.94573564 -435.43423616 52.92341279 -419.00063122 52.90040825 C-410.94109481 52.88913016 -402.8815582 52.87799832 -394.82202148 52.86694336 C-393.61901779 52.86528951 -393.61901779 52.86528951 -392.39171098 52.86360225 C-366.41656856 52.82796102 -340.44142741 52.80196943 -314.46626934 52.78100485 C-287.76386609 52.75940216 -261.06149165 52.72801859 -234.35911485 52.6844034 C-230.58388167 52.67824154 -226.80864831 52.672191 -223.03341484 52.66620827 C-222.29042607 52.66502739 -221.54743731 52.6638465 -220.78193373 52.66262984 C-208.84251403 52.64393957 -196.90310823 52.63549916 -184.9636757 52.63093329 C-172.94800935 52.62611802 -160.93239579 52.6104055 -148.91675777 52.58372887 C-142.41150412 52.56958435 -135.90631849 52.56053399 -129.40104675 52.56438637 C-123.43740285 52.56781081 -117.47394542 52.55734994 -111.51033967 52.53615902 C-109.36066349 52.53091538 -107.21096781 52.5306305 -105.06129194 52.5359989 C-85.58486806 52.57965736 -65.95481974 51.42344697 -49.09814453 40.61376953 C-46.9230186 39.24076645 -44.73070665 38.09438252 -42.43408203 36.94189453 C-38.22493445 34.62686336 -34.6100681 31.758726 -30.93408203 28.69189453 C-30.10686646 28.00994019 -30.10686646 28.00994019 -29.26293945 27.31420898 C-25.7065043 24.26948331 -23.2524701 21.12648222 -20.74658203 17.12939453 C-19.4132487 15.7960612 -18.07991536 14.46272786 -16.74658203 13.12939453 C-15.51146124 10.99630261 -15.51146124 10.99630261 -14.74658203 9.12939453 C-14.08658203 9.12939453 -13.42658203 9.12939453 -12.74658203 9.12939453 C-12.43720703 8.18064453 -12.12783203 7.23189453 -11.80908203 6.25439453 C-10.74658203 3.12939453 -10.74658203 3.12939453 -9.74658203 1.12939453 C-6.52859748 -0.03609069 -3.3947769 0.00265977 0 0 Z " fill="#001841" transform="translate(1952.74658203125,1592.87060546875)"/>
<path d="M0 0 C0.33 0.66 0.66 1.32 1 2 C-8.4599023 24.57399069 -27.65963787 42.54725145 -50 52 C-61.37944425 56.3522974 -72.1846466 59.31408276 -84.39697266 59.24888897 C-85.41164 59.25149625 -86.42630735 59.25410354 -87.47172219 59.25678983 C-90.86923259 59.26308246 -94.26655764 59.25513113 -97.6640625 59.24723816 C-100.12537422 59.2488266 -102.5866855 59.25129054 -105.04799557 59.25455457 C-110.39793762 59.25963003 -115.74782469 59.25849737 -121.09776115 59.2518692 C-129.05292088 59.24204054 -137.00804958 59.24368673 -144.96321293 59.2476195 C-158.34634161 59.25389141 -171.72945266 59.25072691 -185.11257935 59.24202538 C-198.36280481 59.233412 -211.61302234 59.2285052 -224.86325073 59.22869301 C-226.09941956 59.22870448 -226.09941956 59.22870448 -227.3605615 59.22871618 C-230.70576206 59.22875708 -234.05096261 59.2288227 -237.39616317 59.22892199 C-268.77164239 59.22982794 -300.14710954 59.21988413 -331.52258457 59.20449232 C-359.41756465 59.19085844 -387.31253615 59.18463147 -415.20751953 59.18530273 C-416.99977454 59.18534315 -418.79202954 59.18538351 -420.58428454 59.18542381 C-421.47033021 59.18544416 -422.35637588 59.18546452 -423.26927141 59.18548548 C-427.72920706 59.18558627 -432.18914272 59.18567686 -436.64907837 59.18575573 C-437.52889735 59.18577244 -438.40871633 59.18578916 -439.3151965 59.18580638 C-462.60924372 59.18617118 -485.90328987 59.18163712 -509.1973362 59.17542917 C-510.43945874 59.17509876 -510.43945874 59.17509876 -511.70667466 59.17476168 C-515.03676239 59.17387342 -518.36685012 59.17298504 -521.69693784 59.17207072 C-533.29941735 59.16890672 -544.90189602 59.16740094 -556.50437593 59.16695923 C-571.44730172 59.16636325 -586.39022042 59.16239065 -601.33314317 59.15252777 C-609.24253643 59.1473979 -617.15191926 59.14500835 -625.0613141 59.14652396 C-630.95049622 59.1473404 -636.83966672 59.14296605 -642.7288456 59.13647345 C-645.12359804 59.13464866 -647.51835247 59.13454084 -649.91310501 59.13624074 C-653.14534578 59.13828261 -656.37752141 59.13428351 -659.60975647 59.12863445 C-660.55914237 59.13068977 -661.50852826 59.13274509 -662.48668343 59.13486269 C-668.88584502 59.11415498 -668.88584502 59.11415498 -670 58 C-670.09333705 56.40389018 -670.11745372 54.80366572 -670.11352539 53.20483398 C-670.11344986 52.18385117 -670.11337433 51.16286835 -670.11329651 50.11094666 C-670.10813522 49.0005452 -670.10297394 47.89014374 -670.09765625 46.74609375 C-670.0962413 45.61551041 -670.09482635 44.48492706 -670.09336853 43.32008362 C-670.08775019 39.69252935 -670.07519458 36.06503576 -670.0625 32.4375 C-670.05748736 29.98502693 -670.05292405 27.5325529 -670.04882812 25.08007812 C-670.0377748 19.05336455 -670.02101884 13.02668661 -670 7 C-669.4423993 6.99959982 -668.8847986 6.99919963 -668.31030091 6.99878732 C-607.59293212 6.95510544 -546.87556675 6.90771982 -486.15821838 6.84101868 C-485.25100853 6.84002311 -484.34379867 6.83902754 -483.4090976 6.83800181 C-463.69220283 6.81634244 -443.97530885 6.79401969 -424.25841561 6.77101372 C-414.58902526 6.75973536 -404.91963475 6.74860358 -395.25024414 6.73754883 C-394.28803199 6.73644626 -393.32581984 6.7353437 -392.33444974 6.73420772 C-361.15563335 6.69854968 -329.97681804 6.67256689 -298.79798859 6.65161031 C-266.75329038 6.63002058 -234.70861622 6.59865225 -202.6639401 6.55500887 C-198.13614455 6.54884677 -193.60834885 6.54279627 -189.08055305 6.53681374 C-188.18943234 6.53563285 -187.29831163 6.53445197 -186.38018725 6.53323531 C-172.04512249 6.51452581 -157.7100693 6.50610116 -143.37499382 6.50153876 C-128.95764173 6.4967301 -114.54033375 6.48104772 -100.12300532 6.45433434 C-91.56115375 6.43879897 -82.99938921 6.43153254 -74.43752433 6.43623071 C-68.71126934 6.43854977 -62.98509635 6.42995926 -57.25886719 6.41267589 C-54.00054702 6.40314841 -50.74244229 6.39986159 -47.48410981 6.40660437 C-30.70864271 6.4377769 -16.00879842 5.3111543 0 0 Z " fill="#002E77" transform="translate(1998,1743)"/>
<path d="M0 0 C16.83 0 33.66 0 51 0 C51 172.59 51 345.18 51 523 C30.21 523 9.42 523 -12 523 C-9.69 516.07 -7.38 509.14 -5 502 C-2.06986302 489.68226494 -1.56842398 478.25764927 -1.60800171 465.67018127 C-1.60326954 463.65655352 -1.59722629 461.6429285 -1.58999789 459.62930816 C-1.57400843 454.13758253 -1.57638265 448.64599944 -1.58191919 443.15425909 C-1.58461267 437.21647867 -1.56998779 431.27873723 -1.55747986 425.3409729 C-1.53688254 414.39919674 -1.52933021 403.45745969 -1.52792121 392.51566559 C-1.52644423 382.41463837 -1.51772852 372.31364461 -1.50212479 362.21262932 C-1.50108978 361.54149609 -1.50005478 360.87036286 -1.49898841 360.17889226 C-1.49369037 356.77012443 -1.488264 353.36135681 -1.48278125 349.95258927 C-1.44416945 325.84624831 -1.41855539 301.73990999 -1.40136719 277.63354492 C-1.39719292 271.79972328 -1.39300426 265.96590165 -1.38873291 260.13208008 C-1.38820316 259.40830319 -1.38767341 258.6845263 -1.38712761 257.93881678 C-1.37468594 241.09616974 -1.3569954 224.25352932 -1.33789062 207.41088867 C-1.33707421 206.68865904 -1.3362578 205.9664294 -1.33541664 205.22231402 C-1.31676023 188.74239178 -1.29663387 172.26247179 -1.27463722 155.78255367 C-1.27371577 155.09065687 -1.27279432 154.39876007 -1.27184495 153.6858967 C-1.2635557 147.46347109 -1.25525798 141.2410455 -1.24671336 135.01862025 C-1.22450318 118.82473856 -1.2067595 102.63086583 -1.19676055 86.43697178 C-1.19039669 76.2942911 -1.18086134 66.15161697 -1.16879199 56.00894148 C-1.16198573 50.14960826 -1.15692769 44.29028564 -1.15620613 38.43094826 C-1.15554196 33.07701674 -1.15040847 27.72310959 -1.14160486 22.36918544 C-1.139243 20.4234959 -1.13861079 18.4778034 -1.13980167 16.53211278 C-1.14118532 13.90563852 -1.13654656 11.27924501 -1.13028526 8.65277958 C-1.13216547 7.88187261 -1.13404568 7.11096565 -1.13598287 6.31669787 C-1.11413252 1.11413252 -1.11413252 1.11413252 0 0 Z " fill="#00316F" transform="translate(1956,1071)"/>
<path d="M0 0 C20.79 0 41.58 0 63 0 C63 172.26 63 344.52 63 522 C45.84 522 28.68 522 11 522 C10.99635437 515.94323914 10.99270874 509.88647827 10.98895264 503.6461792 C10.96353031 463.61731883 10.93364271 423.58846857 10.88336182 383.55963135 C10.88250431 382.87585031 10.8816468 382.19206926 10.8807633 381.48756758 C10.86209451 366.62455749 10.84254166 351.76154869 10.82207905 336.89854096 C10.81204851 329.60895591 10.80221317 322.31937061 10.79248047 315.02978516 C10.79150866 314.30441195 10.79053686 313.57903874 10.7895356 312.83168452 C10.75816928 289.35110088 10.73967485 265.8705287 10.72790753 242.38992774 C10.71573936 218.2458649 10.69048135 194.10184989 10.64892386 169.95781891 C10.6430504 166.54194022 10.63732544 163.12606129 10.63169098 159.71018219 C10.63057752 159.03793637 10.62946406 158.36569054 10.62831686 157.67307363 C10.61190779 147.55038002 10.60688471 137.42772127 10.60811615 127.30501556 C10.60942789 115.77174049 10.59731725 104.23857843 10.56783572 92.70533922 C10.55323445 86.8254839 10.54494847 80.94580541 10.55419731 75.06593513 C10.5625406 69.67015358 10.55217596 64.27472587 10.52766338 58.87899652 C10.52202279 56.93922659 10.52292745 54.99942263 10.53148755 53.05966339 C10.57033545 43.42167063 10.15058251 34.11742124 8.34256363 24.63165665 C8.20438291 23.88374304 8.0662022 23.13582942 7.92383419 22.36525176 C6.2200477 14.36249497 3.14821708 7.87054271 0 0 Z " fill="#006FC1" transform="translate(1996,549)"/>
<path d="M0 0 C17.16 0 34.32 0 52 0 C52 172.26 52 344.52 52 522 C34.84 522 17.68 522 0 522 C0 349.74 0 177.48 0 0 Z " fill="#0050AE" transform="translate(2007,1071)"/>
<path d="M0 0 C17.16 0 34.32 0 52 0 C52.08021762 16.40895955 52.08021762 16.40895955 52.09765625 23.48828125 C52.10953935 28.28927112 52.12348451 33.09018358 52.15087891 37.89111328 C52.17286126 41.76853144 52.18462118 45.6458664 52.18975449 49.52334213 C52.19340528 50.9910602 52.20053183 52.45877453 52.21146011 53.92645645 C52.3014271 66.5284338 51.56512697 78.95540557 47.375 90.9375 C46.9869519 92.06490601 46.9869519 92.06490601 46.59106445 93.21508789 C42.14225799 105.63952914 35.92517667 116.22992709 27 126 C26.30261719 126.77859375 25.60523438 127.5571875 24.88671875 128.359375 C16.91118169 136.81606877 6.06930053 145.09318805 -5 149 C-5.66 148.67 -6.32 148.34 -7 148 C-6.60167969 146.80117187 -6.60167969 146.80117187 -6.1953125 145.578125 C-5.84210938 144.47984375 -5.48890625 143.3815625 -5.125 142.25 C-4.77695313 141.18265625 -4.42890625 140.1153125 -4.0703125 139.015625 C-1.36703962 129.58462192 -0.70020268 120.10910991 -0.68115234 110.34667969 C-0.67110672 109.14523819 -0.6610611 107.94379669 -0.65071106 106.70594788 C-0.62534939 103.45262165 -0.60835555 100.1993888 -0.59528303 96.94599438 C-0.57951432 93.53069951 -0.55276898 90.11548978 -0.5272522 86.70025635 C-0.48070511 80.25144072 -0.4438456 73.80260864 -0.41057932 67.35371232 C-0.37218643 60.00406501 -0.32282205 52.65450373 -0.27259517 45.30492926 C-0.1696339 30.20334424 -0.08170631 15.10171779 0 0 Z " fill="#003685" transform="translate(2007,1593)"/>
<path d="M0 0 C1.29000916 0.00213753 1.29000916 0.00213753 2.6060791 0.00431824 C3.5804895 0.00124161 4.5548999 -0.00183502 5.55883789 -0.00500488 C7.14166565 0.00577339 7.14166565 0.00577339 8.75646973 0.01676941 C10.37651917 0.01745674 10.37651917 0.01745674 12.02929688 0.01815796 C14.31580705 0.02118283 16.60231513 0.02907607 18.88879395 0.04142761 C22.39814516 0.05966243 25.90723238 0.06193749 29.41662598 0.06169128 C31.63407619 0.06660716 33.8515246 0.07243578 36.06896973 0.07926941 C37.12418823 0.08038223 38.17940674 0.08149506 39.26660156 0.0826416 C40.24101196 0.08902145 41.21542236 0.09540131 42.21936035 0.10197449 C43.07936646 0.10578629 43.93937256 0.10959808 44.82543945 0.11352539 C46.91271973 0.24723816 46.91271973 0.24723816 48.91271973 1.24723816 C49.81067517 30.38090359 41.13356569 54.64196737 21.88146973 76.55973816 C5.20957194 94.05156534 -18.85529482 104.49680621 -42.90725708 105.34690857 C-50.7589541 105.49212773 -58.60996856 105.42981598 -66.46228027 105.37223816 C-68.85550569 105.36218804 -71.2487352 105.35306579 -73.64196777 105.34489441 C-79.45716229 105.32304263 -85.27220181 105.28972618 -91.08728027 105.24723816 C-91.08728027 104.91723816 -91.08728027 104.58723816 -91.08728027 104.24723816 C-89.99286621 104.13508972 -89.99286621 104.13508972 -88.87634277 104.02067566 C-64.49725887 100.95071695 -42.26456482 89.64522752 -26.27478027 70.87223816 C-11.42103355 51.66574514 -2.92363793 29.44024336 -4.14196777 5.02067566 C-4.07526759 1.6380235 -3.47737252 0.41189446 0 0 Z " fill="#002054" transform="translate(1958.0872802734375,1592.7527618408203)"/>
<path d="M0 0 C7.41564985 -0.10240734 14.83111375 -0.17188319 22.24731445 -0.21972656 C24.76398533 -0.23969631 27.28061069 -0.26688171 29.79711914 -0.30175781 C56.55926101 -0.66304938 56.55926101 -0.66304938 69 4 C70.07717285 4.38865234 71.1543457 4.77730469 72.26416016 5.17773438 C91.70888696 12.4657733 107.83981666 26.26328372 119.125 43.5 C119.52799316 44.11190186 119.93098633 44.72380371 120.34619141 45.35424805 C121.29883484 46.86193007 122.1587632 48.42743673 123 50 C122.505 50.99 122.505 50.99 122 52 C114.8846203 52.33067827 107.77122793 52.55766744 100.64990234 52.71411133 C98.23020416 52.77933797 95.81101558 52.86794946 93.39306641 52.98071289 C73.81719358 53.87052529 73.81719358 53.87052529 69.17584229 50.78881836 C66.00836949 47.39210156 64.55193206 43.29851917 63 39 C50.11533635 19.06197449 28.35529881 7.77470579 6 2 C4.00508164 1.63749226 2.00627279 1.29322448 0 1 C0 0.67 0 0.34 0 0 Z " fill="#005E8C" transform="translate(1873,498)"/>
<path d="M0 0 C1.79782118 3.59564235 1.18469628 7.79114858 1.1875 11.75 C1.19974609 12.64460938 1.21199219 13.53921875 1.22460938 14.4609375 C1.23549852 19.38283229 0.93371467 23.38354285 -1 28 C-3.97 28 -6.94 28 -10 28 C-4.7265625 12.1796875 -4.7265625 12.1796875 -3.81738281 9.45996094 C-3.14553201 7.43798701 -2.48865158 5.41104484 -1.8359375 3.3828125 C-1 1 -1 1 0 0 Z " fill="#00235C" transform="translate(1954,1566)"/>
</svg>
