<?xml version="1.0" encoding="UTF-8"?>
<svg version="1.1" xmlns="http://www.w3.org/2000/svg" width="1280" height="1171">
<path d="M0 0 C333.96 0 667.92 0 1012 0 C1012 386.43 1012 772.86 1012 1171 C678.04 1171 344.08 1171 0 1171 C0 1089.16 0 1007.32 0 923 C-27.52470703 923.05220703 -27.52470703 923.05220703 -55.60546875 923.10546875 C-67.20377688 923.12079036 -78.80207882 923.13537394 -90.40039062 923.14648438 C-96.49129256 923.15235811 -102.58219427 923.1584196 -108.6730957 923.16479492 C-109.43650538 923.16558617 -110.19991506 923.16637741 -110.98645836 923.16719264 C-123.31586619 923.18024542 -135.6452321 923.20389955 -147.97461506 923.23145839 C-160.62512541 923.25949948 -173.2756138 923.27617351 -185.92615396 923.28226548 C-193.73407262 923.28638463 -201.54187287 923.29940095 -209.34975509 923.3237494 C-215.3338922 923.34146155 -221.31792714 923.3433689 -227.30209351 923.33932304 C-229.75915062 923.34015027 -232.2162121 923.34614271 -234.67324257 923.35761642 C-238.02164216 923.3724893 -241.36953046 923.36897231 -244.71794128 923.36076355 C-245.69556889 923.36950207 -246.6731965 923.3782406 -247.68044919 923.38724393 C-252.57659307 923.35468471 -256.06946146 923.28068883 -260 920 C-261.60725635 916.78548731 -261.05748185 913.56387464 -261 910 C-263.31 910 -265.62 910 -268 910 C-268 695.83 -268 481.66 -268 261 C-179.56 261 -91.12 261 0 261 C0 174.87 0 88.74 0 0 Z " fill="#D7522E" transform="translate(268,0)"/>
<path d="M0 0 C312.16313675 0 312.16313675 0 458.91895556 0.45572209 C472.10221508 0.49658862 485.2854812 0.53501388 498.46875 0.57275391 C499.51196401 0.5757409 500.55517802 0.5787279 501.63000457 0.58180541 C506.87599178 0.59681602 512.12197907 0.61179468 517.36796641 0.62675762 C559.24532615 0.74624244 601.12266845 0.87103079 643 1 C643 4.96 643 8.92 643 13 C646.63 13 650.26 13 654 13 C654.72927531 52.94185536 655.16795215 92.87222137 655.26531944 132.82130738 C655.2828845 139.91434712 655.30614335 147.0073658 655.32973462 154.10038766 C655.37178082 166.75848638 655.41107149 179.41659166 655.44775391 192.07470703 C655.44991671 192.82062822 655.45207951 193.56654941 655.45430785 194.33507428 C655.47631851 201.93896252 655.49801968 209.54285163 655.51953927 217.14674129 C655.53040566 220.98503466 655.54131248 224.82332791 655.55224609 228.66162109 C655.55440496 229.41990669 655.55656383 230.17819229 655.55878812 230.95945624 C655.59501671 243.64594305 655.63493102 256.33241559 655.67754889 269.01888251 C655.70342213 276.77023518 655.72614488 284.52158396 655.74453247 292.27295807 C655.75881069 298.18860488 655.77794377 304.10422988 655.79878426 310.01985741 C655.80646906 312.42431105 655.81256905 314.82877043 655.81687737 317.2332325 C655.83614484 327.58767785 655.85964342 337.9149932 656.49879456 348.25215149 C657.25084265 360.54785381 657.17968665 372.8569483 657.2040199 385.17133558 C657.21048253 388.03830455 657.22053671 390.90525684 657.23058056 393.77221518 C657.26352721 403.18573729 657.28532662 412.59926947 657.30378041 422.01282987 C657.30859164 424.46376746 657.31357266 426.91470465 657.31858563 429.36564183 C657.34951183 444.62177584 657.37615801 459.87791396 657.39300442 475.1340704 C657.39695293 478.64886927 657.40095615 482.16366807 657.4050293 485.6784668 C657.40603766 486.551895 657.40704602 487.4253232 657.40808494 488.32521892 C657.42515547 502.5283529 657.46636081 516.73131467 657.51705229 530.93436425 C657.56876406 545.54378483 657.59793551 560.15311632 657.6052013 574.76262766 C657.60986496 582.95515257 657.62463617 591.14739253 657.6649456 599.33982658 C657.69916029 606.30097133 657.71321854 613.26177937 657.70052146 620.22300344 C657.69467924 623.77419658 657.69866792 627.3246765 657.7286911 630.87576294 C657.76093555 634.72064094 657.74696282 638.56454419 657.72825623 642.40953064 C657.75344862 644.10019422 657.75344862 644.10019422 657.77914995 645.82501262 C657.76030547 647.36601063 657.76030547 647.36601063 657.74108028 648.93813992 C657.74281653 649.8254994 657.74455278 650.71285888 657.74634165 651.62710804 C657 654 657 654 654.36941272 656.2856043 C650.66342555 658.17125293 648.47740733 658.49765462 644.34831619 658.49219131 C643.70209869 658.49680669 643.05588119 658.50142207 642.39008135 658.50617731 C640.22751074 658.51675424 638.06613467 658.49883215 635.90362549 658.48101807 C634.33657037 658.48276271 632.76951639 658.48626567 631.20246863 658.49137473 C626.89853991 658.50031972 622.59500927 658.48431768 618.29113126 658.46426249 C613.64902846 658.44699469 609.00694826 658.45283374 604.36482239 658.45587158 C596.32232593 658.45796945 588.27995924 658.44541434 580.23749542 658.42292023 C568.60727585 658.39041311 556.97711903 658.37999445 545.34685895 658.37496826 C526.47485608 658.36621254 507.60292235 658.3395905 488.73095703 658.30175781 C470.40316107 658.26505427 452.07538387 658.23673343 433.74755859 658.21972656 C432.05351233 658.21815022 432.05351233 658.21815022 430.32524291 658.21654204 C424.65928608 658.21132168 418.99332912 658.20626678 413.32737207 658.20129442 C369.60147343 658.16272442 325.87563901 658.10033881 282.14980054 658.01864839 C281.46971545 658.01737998 280.78963036 658.01611157 280.08893663 658.01480472 C278.28317507 658.0114256 276.47741357 658.00801539 274.67165208 658.00460267 C273.11443627 658.00191993 271.55721812 658 270 658 C269.67 740.5 269.34 823 269 908 C268.67 908 268.34 908 268 908 C268 826.16 268 744.32 268 660 C240.47529297 660.05220703 240.47529297 660.05220703 212.39453125 660.10546875 C200.79622312 660.12079036 189.19792118 660.13537394 177.59960938 660.14648438 C171.50870744 660.15235811 165.41780573 660.1584196 159.3269043 660.16479492 C158.56349462 660.16558617 157.80008494 660.16637741 157.01354164 660.16719264 C144.68413381 660.18024542 132.3547679 660.20389955 120.02538494 660.23145839 C107.37487459 660.25949948 94.7243862 660.27617351 82.07384604 660.28226548 C74.26592738 660.28638463 66.45812713 660.29940095 58.65024491 660.3237494 C52.6661078 660.34146155 46.68207286 660.3433689 40.69790649 660.33932304 C38.24084938 660.34015027 35.7837879 660.34614271 33.32675743 660.35761642 C29.97835784 660.3724893 26.63046954 660.36897231 23.28205872 660.36076355 C22.30443111 660.36950207 21.3268035 660.3782406 20.31955081 660.38724393 C15.42340693 660.35468471 11.93053854 660.28068883 8 657 C6.39274365 653.78548731 6.94251815 650.56387464 7 647 C4.69 647 2.38 647 0 647 C0 433.49 0 219.98 0 0 Z " fill="#B83926" transform="translate(0,263)"/>
<path d="M0 0 C42.5390625 -0.12375 42.5390625 -0.12375 85.9375 -0.25 C94.84613037 -0.28641602 103.75476074 -0.32283203 112.93334961 -0.36035156 C123.92883301 -0.37841797 123.92883301 -0.37841797 129.09889221 -0.3817749 C132.6603979 -0.38545676 136.22165782 -0.40026375 139.78309631 -0.42230225 C189.23922604 -0.71481574 189.23922604 -0.71481574 212.625 7.75 C213.60807129 8.09289062 214.59114258 8.43578125 215.60400391 8.7890625 C228.0481557 13.26740444 239.16627421 19.0220573 249 28 C249.48597656 28.44359863 249.97195313 28.88719727 250.47265625 29.34423828 C265.66888548 43.39313316 273.6689555 59.92172192 278 80 C278.1959375 80.80050781 278.391875 81.60101562 278.59375 82.42578125 C282.53958317 107.42870493 276.36800603 134.52285783 262.38671875 155.41015625 C253.99336959 166.76822063 244.09680148 175.00310006 232 182 C231.0925 182.54269531 230.185 183.08539062 229.25 183.64453125 C222.86644276 187.16105479 216.10484466 189.47054439 209.1875 191.6875 C208.330354 191.97318848 207.47320801 192.25887695 206.59008789 192.55322266 C188.34321035 198.11476537 169.00607727 198.44051977 150.09765625 198.29296875 C148.1552354 198.28853807 146.21281092 198.28548981 144.27038574 198.28381348 C137.20103459 198.26831449 130.13176094 198.22643359 123.0625 198.1875 C107.201875 198.125625 91.34125 198.06375 75 198 C75 234.63 75 271.26 75 309 C50.25 309 25.5 309 0 309 C0 207.03 0 105.06 0 0 Z " fill="#FEFEFE" transform="translate(201,432)"/>
<path d="M0 0 C3.3 0 6.6 0 10 0 C10.31797318 93.55931652 10.60940961 187.11871004 11.22460938 486.7637701 C11.22649861 489.22771707 11.22839057 491.69166404 11.2302897 494.155611 C11.23154648 495.78716644 11.23279312 497.41872188 11.23402953 499.05027733 C11.24343537 511.21827768 11.2611877 523.38624662 11.28344727 535.55422974 C11.30858134 549.30568661 11.32343187 563.05710718 11.32373834 576.80858815 C11.32419137 584.45198732 11.33274074 592.0952748 11.35295993 599.73864782 C11.3669998 605.40026094 11.36547974 611.06178084 11.35758495 616.7234019 C11.35683251 619.01844481 11.3612288 621.31349589 11.37108326 623.60851777 C11.38363535 626.70425722 11.37802643 629.79942315 11.36749268 632.89515686 C11.37957705 634.25304644 11.37957705 634.25304644 11.39190555 635.63836813 C11.3719368 638.1160593 11.3719368 638.1160593 11 642 C7.4393574 644.37376173 5.94159508 644.24888742 1.71745968 644.24609566 C1.07470371 644.24840335 0.43194775 644.25071103 -0.23028567 644.25308865 C-2.39883006 644.25841125 -4.56708152 644.24938603 -6.73561096 644.24050903 C-8.30007479 644.24138064 -9.86453834 644.2431308 -11.42900032 644.24568737 C-15.73959463 644.25017378 -20.05009016 644.24213948 -24.36067188 644.23213124 C-29.0048726 644.22351747 -33.64906747 644.22641544 -38.29327393 644.22793579 C-46.34396758 644.228986 -54.39462889 644.2226951 -62.44531441 644.21146011 C-74.08751642 644.19522384 -85.72970275 644.18999899 -97.37191486 644.18748413 C-116.26219364 644.18310355 -135.15245519 644.16978517 -154.04272461 644.15087891 C-172.39103102 644.13253415 -190.73933276 644.1183703 -209.08764648 644.10986328 C-210.21779883 644.10933783 -211.34795118 644.10881239 -212.51235057 644.10827102 C-218.18211938 644.10566089 -223.85188824 644.10313343 -229.52165711 644.10064721 C-273.29318614 644.08135485 -317.06469915 644.05015486 -360.83621317 644.00932419 C-361.51724957 644.00868999 -362.19828597 644.00805578 -362.89995983 644.00740236 C-364.70827187 644.00571279 -366.5165839 644.00400769 -368.32489592 644.00230134 C-369.88326356 644.0009607 -371.44163178 644 -373 644 C-373.33 726.5 -373.66 809 -374 894 C-374.33 894 -374.66 894 -375 894 C-375 812.16 -375 730.32 -375 646 C-402.52470703 646.05220703 -402.52470703 646.05220703 -430.60546875 646.10546875 C-442.20377688 646.12079036 -453.80207882 646.13537394 -465.40039062 646.14648438 C-471.49129256 646.15235811 -477.58219427 646.1584196 -483.6730957 646.16479492 C-484.43650538 646.16558617 -485.19991506 646.16637741 -485.98645836 646.16719264 C-498.31586619 646.18024542 -510.6452321 646.20389955 -522.97461506 646.23145839 C-535.62512541 646.25949948 -548.2756138 646.27617351 -560.92615396 646.28226548 C-568.73407262 646.28638463 -576.54187287 646.29940095 -584.34975509 646.3237494 C-590.3338922 646.34146155 -596.31792714 646.3433689 -602.30209351 646.33932304 C-604.75915062 646.34015027 -607.2162121 646.34614271 -609.67324257 646.35761642 C-613.02164216 646.3724893 -616.36953046 646.36897231 -619.71794128 646.36076355 C-620.69556889 646.36950207 -621.6731965 646.3782406 -622.68044919 646.38724393 C-627.57659307 646.35468471 -631.06946146 646.28068883 -635 643 C-636.60725635 639.78548731 -636.05748185 636.56387464 -636 633 C-638.31 633 -640.62 633 -643 633 C-643 632.67 -643 632.34 -643 632 C-642.36191406 631.93941406 -641.72382812 631.87882813 -641.06640625 631.81640625 C-640.24011719 631.73261719 -639.41382813 631.64882813 -638.5625 631.5625 C-637.73878906 631.48128906 -636.91507813 631.40007813 -636.06640625 631.31640625 C-634.01337975 631.21069185 -634.01337975 631.21069185 -633 630 C-631.60841942 629.90307239 -630.21193909 629.87552598 -628.81698698 629.8758015 C-627.9073866 629.87355421 -626.99778621 629.87130692 -626.06062219 629.86899152 C-625.04769854 629.87161854 -624.03477488 629.87424555 -622.99115658 629.87695217 C-621.92126219 629.87579833 -620.8513678 629.87464448 -619.74905238 629.87345567 C-616.115559 629.87078044 -612.48210875 629.87531858 -608.84861755 629.87974548 C-606.23675576 629.87930997 -603.62489401 629.87843542 -601.0130325 629.87715632 C-595.30940404 629.87507675 -589.60578599 629.87673624 -583.90215874 629.88079453 C-575.42098203 629.88681241 -566.93981193 629.88713193 -558.45863348 629.88625254 C-544.19417059 629.88493644 -529.92971232 629.88828835 -515.66525078 629.89426994 C-501.53480443 629.90018019 -487.40436 629.90403452 -473.27391243 629.90512276 C-471.95767927 629.90522587 -471.95767927 629.90522587 -470.61485555 629.90533106 C-466.15881608 629.90566938 -461.7027766 629.90597077 -457.24673713 629.90625793 C-425.65708451 629.90836022 -394.06743441 629.9151028 -362.4777832 629.92456055 C-331.78247084 629.93373995 -301.08715916 629.94080912 -270.3918457 629.94506836 C-268.46274326 629.945339 -266.53364082 629.94560971 -264.60453838 629.94588047 C-248.93061829 629.94806914 -233.25669819 629.95011176 -217.58277807 629.95211896 C-145.055183 629.9615122 -72.52759449 629.98158107 0 630 C0 422.1 0 214.2 0 0 Z " fill="#4D2821" transform="translate(643,277)"/>
<path d="M0 0 C22.10886701 -0.16043524 22.10886701 -0.16043524 31.61523438 -0.1953125 C38.07329644 -0.21911931 44.53112923 -0.24712175 50.98901367 -0.30175781 C56.2021274 -0.34558096 61.41499486 -0.36921329 66.62827873 -0.37950897 C68.60596525 -0.38683545 70.58364002 -0.40114002 72.56122017 -0.42292023 C87.64708579 -0.58229023 102.13156668 0.1152772 115 9 C115.93392578 9.60908203 115.93392578 9.60908203 116.88671875 10.23046875 C123.33677119 15.00154875 126.5160698 22.54820941 129 30 C130.19285615 44.11025428 129.77994046 57.01571165 120.48828125 68.359375 C111.86115959 77.86958785 99.10542442 81.30273582 86.65459061 82.1618309 C80.45958457 82.4088043 74.26468554 82.34536678 68.06640625 82.29296875 C66.09244614 82.28735925 64.1184818 82.28309557 62.14451599 82.28010559 C57.00056 82.26876329 51.85686645 82.23939009 46.7130127 82.20599365 C40.51365328 82.16960313 34.3142051 82.15608098 28.11476898 82.13863373 C18.74299794 82.10974438 9.37180041 82.05218367 0 82 C0 54.94 0 27.88 0 0 Z " fill="#B73825" transform="translate(276,490)"/>
<path d="M0 0 C1.18871449 0.00056958 1.18871449 0.00056958 2.40144342 0.00115067 C3.31260072 -0.00084038 4.22375801 -0.00283143 5.16252613 -0.00488281 C6.17515079 -0.00196997 7.18777546 0.00094287 8.23108572 0.00394398 C9.29774731 0.00308955 10.3644089 0.00223513 11.46339357 0.00135481 C15.0672029 -0.00030316 18.67096653 0.00522655 22.27477163 0.01067311 C24.846315 0.01095494 27.41785844 0.01079733 29.98940176 0.0102306 C35.54098199 0.00970518 41.0925505 0.01285382 46.64412779 0.01846844 C54.67086492 0.02658106 62.69759636 0.02919841 70.72433715 0.03045643 C83.74587191 0.03264733 96.76740042 0.03930842 109.78893179 0.04875904 C122.44127522 0.05793219 135.09361695 0.0650135 147.74596304 0.06926686 C148.91497772 0.06966094 148.91497772 0.06966094 150.10760886 0.07006299 C154.01718081 0.07136799 157.92675278 0.0726317 161.83632475 0.07387489 C194.29164167 0.08424867 226.74695093 0.101868 259.20226187 0.1241985 C259.22931915 1.89494767 259.24868381 3.6658156 259.26476187 5.4366985 C259.27636343 6.42283131 259.28796499 7.40896412 259.29991812 8.42497975 C259.20226187 11.1241985 259.20226187 11.1241985 258.20226187 14.1241985 C258.10824169 15.54633905 258.06859249 16.97244831 258.06359667 18.39768463 C258.05812222 19.27450667 258.05264778 20.15132871 258.04700744 21.05472112 C258.04602933 22.01871967 258.04505123 22.98271822 258.04404348 23.97592884 C258.03663652 25.51110589 258.03663652 25.51110589 258.02907991 27.07729661 C258.01366421 30.52286053 258.00533326 33.96840576 257.9969396 37.41399342 C257.98736428 39.87746048 257.97735441 42.34092588 257.96694082 44.80438954 C257.94546754 50.11637727 257.92703053 55.42836238 257.91133589 60.74036938 C257.88863875 68.42067084 257.86049571 76.10094472 257.83101661 83.7812228 C257.78333878 96.24148312 257.74007511 108.70175472 257.69957632 121.16204029 C257.66022236 133.26719245 257.61879638 145.37233458 257.57457632 157.47746998 C257.57048991 158.59641107 257.57048991 158.59641107 257.56632095 159.73795702 C257.55264149 163.48016306 257.53892121 167.22236894 257.52518064 170.96457475 C257.41121286 202.017762 257.30447753 233.07097024 257.20226187 264.1241985 C256.87226187 264.1241985 256.54226187 264.1241985 256.20226187 264.1241985 C256.20226187 182.2841985 256.20226187 100.4441985 256.20226187 16.1241985 C228.67755483 16.17640553 228.67755483 16.17640553 200.59679312 16.22966725 C188.99848498 16.24498886 177.40018304 16.25957243 165.80187124 16.27068287 C159.7109693 16.27655661 153.6200676 16.28261809 147.52916616 16.28899342 C146.76575648 16.28978466 146.00234681 16.29057591 145.2158035 16.29139113 C132.88639568 16.30444392 120.55702977 16.32809804 108.22764681 16.35565688 C95.57713645 16.38369797 82.92664806 16.40037201 70.27610791 16.40646398 C62.46818924 16.41058312 54.660389 16.42359945 46.85250678 16.4479479 C40.86836967 16.46566005 34.88433472 16.4675674 28.90016836 16.46352154 C26.44311124 16.46434877 23.98604976 16.47034121 21.5290193 16.48181492 C18.18061971 16.49668779 14.83273141 16.4931708 11.48432058 16.48496205 C10.01787917 16.49806983 10.01787917 16.49806983 8.52181268 16.51144242 C3.6256688 16.4788832 0.1328004 16.40488733 -3.79773813 13.1241985 C-5.40499448 9.9096858 -4.85521998 6.68807314 -4.79773813 3.1241985 C-7.10773813 3.1241985 -9.41773813 3.1241985 -11.79773813 3.1241985 C-11.79773813 2.7941985 -11.79773813 2.4641985 -11.79773813 2.1241985 C-10.84060923 2.03331959 -10.84060923 2.03331959 -9.86414438 1.94060475 C-8.62471079 1.81492115 -8.62471079 1.81492115 -7.36023813 1.6866985 C-6.5365272 1.60548756 -5.71281626 1.52427662 -4.86414438 1.44060475 C-2.60241941 1.09429147 -2.21260935 0.15286028 0 0 Z " fill="#271E19" transform="translate(11.797738134860992,906.8758015036583)"/>
<path d="M0 0 C3.3 0 6.6 0 10 0 C10.31797318 93.55931652 10.60940961 187.11871004 11.22460938 486.7637701 C11.22649861 489.22771707 11.22839057 491.69166404 11.2302897 494.155611 C11.23154648 495.78716644 11.23279312 497.41872188 11.23402953 499.05027733 C11.24343537 511.21827768 11.2611877 523.38624662 11.28344727 535.55422974 C11.30858134 549.30568661 11.32343187 563.05710718 11.32373834 576.80858815 C11.32419137 584.45198732 11.33274074 592.0952748 11.35295993 599.73864782 C11.3669998 605.40026094 11.36547974 611.06178084 11.35758495 616.7234019 C11.35683251 619.01844481 11.3612288 621.31349589 11.37108326 623.60851777 C11.38363535 626.70425722 11.37802643 629.79942315 11.36749268 632.89515686 C11.37554892 633.80041658 11.38360517 634.7056763 11.39190555 635.63836813 C11.3719368 638.1160593 11.3719368 638.1160593 11 642 C7.44002312 644.37331792 5.94087756 644.24968789 1.71745968 644.24888897 C1.07470371 644.25149625 0.43194775 644.25410354 -0.23028567 644.25678983 C-2.39882563 644.26312042 -4.56707935 644.25510797 -6.73561096 644.24723816 C-8.30007518 644.24882542 -9.86453871 644.25128818 -11.42900032 644.25455457 C-15.73959069 644.26098774 -20.05008762 644.25488477 -24.36067188 644.24679029 C-29.00487569 644.24022819 -33.6490688 644.2451585 -38.29327393 644.24867249 C-47.3955542 644.25372146 -56.49779823 644.2480642 -65.600074 644.23882218 C-76.19068888 644.22845421 -86.78129586 644.22850794 -97.37191486 644.22899476 C-116.26219245 644.22949573 -135.15245312 644.22032427 -154.04272461 644.20581055 C-172.39103504 644.19172044 -190.73933057 644.18463983 -209.08764648 644.18530273 C-210.21779883 644.18534269 -211.34795118 644.18538265 -212.51235057 644.18542381 C-214.20459068 644.18548435 -214.20459068 644.18548435 -215.93101746 644.1855461 C-236.79437602 644.18623525 -257.65772824 644.18035012 -278.52108474 644.17139288 C-285.91105034 644.16837148 -293.30101477 644.16731273 -300.69098091 644.16686058 C-309.69062159 644.16617973 -318.69025157 644.16173295 -327.68988771 644.15252777 C-332.28548977 644.14789835 -336.88107811 644.14486848 -341.47668266 644.14612198 C-345.67775664 644.14721234 -349.8788002 644.14372744 -354.07986783 644.13647345 C-355.60537458 644.13465151 -357.13088445 644.13453813 -358.65639133 644.13624074 C-360.71873122 644.13828883 -362.78096979 644.13427195 -364.84330082 644.12863445 C-365.9922272 644.12793003 -367.14115358 644.1272256 -368.32489592 644.12649983 C-371 644 -371 644 -373 643 C-372.67 641.68 -372.34 640.36 -372 639 C-246.27 639 -120.54 639 9 639 C8.835 601.813125 8.67 564.62625 8.5 526.3125 C8.30802356 478.78285794 8.30802356 478.78285794 8.23751712 457.13617229 C8.22999133 454.82768231 8.22246264 452.51919234 8.21487871 450.21070254 C7.90997961 357.36630576 7.91720096 264.5216776 7.93684149 171.67687649 C7.93750213 168.55244871 7.93814481 165.42802094 7.93878555 162.30359316 C7.94979614 109.20239104 7.96987921 56.1011947 8 3 C5.69 3 3.38 3 1 3 C1 209.91 1 416.82 1 630 C0.67 630 0.34 630 0 630 C0 422.1 0 214.2 0 0 Z " fill="#772D23" transform="translate(643,277)"/>
<path d="M0 0 C3.3 0 6.6 0 10 0 C10 210.87 10 421.74 10 639 C9.67 639 9.34 639 9 639 C8.82099775 602.17630962 8.65927362 565.35254917 8.50904435 528.52873117 C8.50003784 526.32177191 8.49100625 524.11481276 8.48197412 521.9078536 C8.11568302 432.25785834 7.94319583 342.6085941 7.93684149 171.67687649 C7.93750213 168.55244871 7.93814481 165.42802094 7.93878555 162.30359316 C7.94979614 109.20239104 7.96987921 56.1011947 8 3 C5.69 3 3.38 3 1 3 C1 209.91 1 416.82 1 630 C0.67 630 0.34 630 0 630 C0 422.1 0 214.2 0 0 Z " fill="#683023" transform="translate(643,277)"/>
<path d="M0 0 C3.63 0 7.26 0 11 0 C11.72927531 39.94185536 12.16795215 79.87222137 12.26531944 119.82130738 C12.2828845 126.91434712 12.30614335 134.0073658 12.32973462 141.10038766 C12.37178082 153.75848638 12.41107149 166.41659166 12.44775391 179.07470703 C12.44991671 179.82062822 12.45207951 180.56654941 12.45430785 181.33507428 C12.47631851 188.93896252 12.49801968 196.54285163 12.51953927 204.14674129 C12.53040566 207.98503466 12.54131248 211.82332791 12.55224609 215.66162109 C12.55440496 216.41990669 12.55656383 217.17819229 12.55878812 217.95945624 C12.59501671 230.64594305 12.63493102 243.33241559 12.67754889 256.01888251 C12.70342213 263.77023518 12.72614488 271.52158396 12.74453247 279.27295807 C12.75881069 285.18860488 12.77794377 291.10422988 12.79878426 297.01985741 C12.80646906 299.42431105 12.81256905 301.82877043 12.81687737 304.2332325 C12.83614347 314.58694504 12.86042932 324.91209306 13.50474548 335.2481842 C14.2608585 347.56501873 14.13484904 359.89487437 14.11606562 372.22997177 C14.11168606 375.84862175 14.11321278 379.46727034 14.1139679 383.08592224 C14.11448844 389.33290732 14.11139112 395.57988182 14.10573006 401.82686424 C14.09755083 410.85859147 14.0949933 419.89031367 14.09374207 428.9220442 C14.09156156 443.58076347 14.08492881 458.23947713 14.07543945 472.89819336 C14.0662393 487.1250811 14.05917125 501.3519673 14.05493164 515.57885742 C14.05466892 516.45801637 14.05440619 517.33717531 14.05413551 518.24297544 C14.05283033 522.65411846 14.05156666 527.0652615 14.05032361 531.47640455 C14.03998222 567.98427366 14.02239138 604.49213639 14 641 C13.01 641.33 12.02 641.66 11 642 C10.82340442 601.04115916 10.66108545 560.08226862 10.50904435 519.12332976 C10.50003556 516.69707619 10.49100507 514.2708227 10.48197412 511.84456921 C10.14036509 419.9363123 9.94408761 328.02871471 9.93684149 159.06184441 C9.93750223 156.11506291 9.93814487 153.16828142 9.93878555 150.22149992 C9.94972103 100.48099509 9.96978231 50.74049683 10 1 C6.7 1 3.4 1 0 1 C0 0.67 0 0.34 0 0 Z " fill="#AF3F24" transform="translate(643,276)"/>
<path d="M0 0 C1.65 0 3.3 0 5 0 C4.67 87.12 4.34 174.24 4 264 C3.34 264 2.68 264 2 264 C2 263.34 2 262.68 2 262 C-87.1 262 -176.2 262 -268 262 C-268 261.67 -268 261.34 -268 261 C-179.56 261 -91.12 261 0 261 C0 174.87 0 88.74 0 0 Z " fill="#FE5B3C" transform="translate(268,0)"/>
<path d="M0 0 C126.72 0 253.44 0 384 0 C381 3 381 3 378.19954675 3.37374616 C377.05045802 3.37314907 375.90136928 3.37255198 374.71745968 3.3719368 C374.07470371 3.37569793 373.43194775 3.37945906 372.76971433 3.38333416 C370.60104834 3.39232657 368.43303131 3.37980162 366.26438904 3.36749268 C364.69992374 3.36951574 363.13545968 3.37285359 361.57099968 3.37739825 C357.26036486 3.38607472 352.94994432 3.37595461 348.63932812 3.36285591 C343.99512271 3.35198692 339.35093775 3.35836621 334.70672607 3.36264038 C325.60442661 3.36828306 316.50221114 3.35794149 307.399926 3.34235242 C296.80931096 3.3248459 286.2187124 3.32339386 275.62808514 3.32273683 C256.73779702 3.32104751 237.84754727 3.30521685 218.95727539 3.28125 C200.60896486 3.25798751 182.26067867 3.24382499 163.91235352 3.24023438 C162.21712499 3.23990022 162.21712499 3.23990022 160.48764943 3.23955932 C158.21108096 3.23911674 155.9345125 3.23867471 153.65794403 3.23823325 C152.53504429 3.23801369 151.41214455 3.23779412 150.25521755 3.2375679 C149.13523112 3.23735192 148.01524469 3.23713593 146.86131927 3.2369134 C129.40051517 3.23321577 111.93971503 3.22185611 94.47891526 3.2094375 C88.14087105 3.20499676 81.80282721 3.20156076 75.46478205 3.19881538 C65.41321755 3.19438951 55.3616676 3.18663953 45.31011229 3.17204097 C40.71451135 3.16541847 36.11892331 3.16036557 31.52331734 3.15958023 C27.32224134 3.15879667 23.12119801 3.15342323 18.92013217 3.14426073 C17.39462622 3.14174044 15.86911638 3.14092433 14.34360867 3.14191952 C12.28126664 3.14300572 10.21902876 3.13802872 8.15669918 3.13142776 C7.0077728 3.13018127 5.85884642 3.12893477 4.67510408 3.1276505 C2 3 2 3 0 2 C0 1.34 0 0.68 0 0 Z " fill="#9B3424" transform="translate(270,918)"/>
<path d="M0 0 C0.33 0 0.66 0 1 0 C1.33 2.97 1.66 5.94 2 9 C3.98 9 5.96 9 8 9 C8 9.66 8 10.32 8 11 C9.32 11 10.64 11 12 11 C14.21717015 14.32575522 14.24543438 15.3360624 14.22705078 19.20581055 C14.22682419 20.79712044 14.22682419 20.79712044 14.22659302 22.420578 C14.21627045 23.56440445 14.20594788 24.7082309 14.1953125 25.88671875 C14.1924826 27.05886429 14.18965271 28.23100983 14.18673706 29.43867493 C14.17552753 33.18838643 14.15042128 36.93786049 14.125 40.6875 C14.11497121 43.2272101 14.10584519 45.76692393 14.09765625 48.30664062 C14.07558567 54.53784165 14.04210039 60.76890386 14 67 C11.44363914 64.44363914 11.73164393 63.45895622 11.68115234 59.90771484 C11.66128265 58.84676605 11.64141296 57.78581726 11.62094116 56.69271851 C11.60938995 55.54373077 11.59783875 54.39474304 11.5859375 53.2109375 C11.56657135 52.03737701 11.5472052 50.86381653 11.5272522 49.6546936 C11.46732336 45.89487039 11.42101754 42.13501677 11.375 38.375 C11.3368325 35.83071558 11.29778151 33.28644425 11.2578125 30.7421875 C11.16161079 24.49489759 11.07762888 18.24754719 11 12 C7.37 12 3.74 12 0 12 C0 8.04 0 4.08 0 0 Z " fill="#D96234" transform="translate(643,264)"/>
<path d="M0 0 C0.33 0 0.66 0 1 0 C1.33 2.97 1.66 5.94 2 9 C3.98 9 5.96 9 8 9 C8 9.66 8 10.32 8 11 C5.36 11 2.72 11 0 11 C0 7.37 0 3.74 0 0 Z " fill="#E46637" transform="translate(643,264)"/>
</svg>
