<?xml version="1.0" encoding="UTF-8"?>
<svg version="1.1" xmlns="http://www.w3.org/2000/svg" width="1200" height="1200">
<path d="M0 0 C0.98376123 -0.00327219 1.96752245 -0.00654439 2.98109463 -0.00991574 C4.60186145 -0.0076903 4.60186145 -0.0076903 6.25537103 -0.00541991 C7.4081617 -0.00777214 8.56095237 -0.01012437 9.74867609 -0.01254788 C12.96321039 -0.01807746 16.17771064 -0.01910894 19.39224846 -0.01827047 C22.88396808 -0.01843983 26.37567871 -0.02434441 29.86739385 -0.02951133 C36.79947114 -0.03884479 43.73154204 -0.04276063 50.66362482 -0.0450303 C58.96424676 -0.04799043 67.26486021 -0.05668673 75.56547771 -0.06544458 C95.63000892 -0.0862977 115.69454162 -0.09676012 135.75908115 -0.10557419 C145.24917545 -0.10977943 154.73926912 -0.11500159 164.22936289 -0.12025872 C196.70848217 -0.1381496 229.18760163 -0.15314611 261.6667251 -0.16057891 C263.70612228 -0.16105367 265.74551946 -0.16152955 267.78491664 -0.16200657 C269.30196846 -0.16236113 269.30196846 -0.16236113 270.84966779 -0.16272286 C275.9738469 -0.16392407 281.098026 -0.16513952 286.2222051 -0.16636485 C287.23911792 -0.166605 288.25603075 -0.16684515 289.30375911 -0.16709258 C322.27839059 -0.17498642 355.25298611 -0.19841967 388.22760189 -0.23092079 C423.08176652 -0.26521182 457.9359101 -0.28492937 492.79009187 -0.28822315 C496.61567297 -0.28864069 500.44125406 -0.28912026 504.26683515 -0.28964633 C505.67980661 -0.28983111 505.67980661 -0.28983111 507.12132295 -0.29001964 C522.28638759 -0.29235256 537.45141049 -0.30801769 552.61646025 -0.32848817 C567.85771812 -0.34873524 583.09892582 -0.35422877 598.34019465 -0.34471754 C607.39618312 -0.33949823 616.45200466 -0.34540032 625.50796913 -0.36725221 C631.55833057 -0.38074892 637.60857695 -0.37969331 643.6589395 -0.36685025 C647.1056319 -0.35994607 650.5520049 -0.35930939 653.99866892 -0.37641034 C657.71588614 -0.39147429 661.43226346 -0.38189324 665.14945978 -0.36618346 C666.21358283 -0.37640567 667.27770588 -0.38662787 668.37407508 -0.39715984 C680.7901211 -0.28251597 690.7629648 4.42580965 699.88895315 12.71473867 C706.81259946 20.0879724 711.26446325 29.86611754 711.27166057 39.94774616 C711.27493276 41.14651997 711.27820495 42.34529377 711.28157631 43.58039406 C711.2801662 44.91490227 711.27866419 46.24941038 711.27708048 47.58391839 C711.27903317 49.00416825 711.28142192 50.42441757 711.28420845 51.84466603 C711.29062196 55.76947319 711.29076899 59.69425991 711.28993104 63.6190713 C711.29010027 67.88074317 711.29600341 72.14240766 711.3011719 76.40407586 C711.31050929 84.86652572 711.31442186 93.32897035 711.31669086 101.79142472 C711.31964997 111.9237187 711.32834564 122.0560057 711.33710514 132.18829603 C711.35796224 156.68056744 711.36842121 181.17284006 711.37723475 205.66511829 C711.38143933 217.24804615 711.38666157 228.83097349 711.39191928 240.41390092 C711.40981029 280.05105978 711.42480716 319.6882188 711.43223947 359.3253811 C711.43271423 361.81441635 711.43319012 364.3034516 711.43366713 366.79248684 C711.4340217 368.6440224 711.4340217 368.6440224 711.43438343 370.53296273 C711.43558464 376.78699546 711.43680009 383.0410282 711.43802541 389.29506093 C711.43826556 390.53620016 711.43850571 391.77733938 711.43875314 393.05608889 C711.44664786 433.30598867 711.47008283 473.555859 711.50258136 513.80574592 C711.53686511 556.34419513 711.55658925 598.88262711 711.55988371 641.42109036 C711.56030126 646.08921888 711.56078083 650.75734739 711.56130689 655.4254759 C711.56143009 656.57492944 711.56155328 657.72438299 711.5616802 658.90866846 C711.56401401 677.42112894 711.57968404 695.93355527 711.60014874 714.44600357 C711.62038634 733.04788146 711.62589383 751.64971824 711.61637811 770.2516051 C711.61115515 781.3071885 711.61707815 792.36263522 711.63891278 803.418199 C711.65239442 810.8014351 711.65136722 818.18457684 711.63851082 825.56781382 C711.63159665 829.77576649 711.63100433 833.98345738 711.64807091 838.19138695 C711.66348265 842.02250204 711.66034569 845.8531451 711.64266063 849.68424628 C711.63804443 851.70506413 711.65298884 853.72589809 711.66882041 855.74665919 C711.56830832 868.96974495 707.4473134 879.08670526 698.5569219 888.87489492 C691.58899355 895.41794959 681.90168274 900.24922209 672.2857188 900.25760233 C671.30195757 900.26087453 670.31819634 900.26414672 669.30462417 900.26751807 C667.68385735 900.26529264 667.68385735 900.26529264 666.03034776 900.26302224 C664.8775571 900.26537447 663.72476643 900.2677267 662.53704271 900.27015021 C659.3225084 900.27567979 656.10800816 900.27671128 652.89347033 900.27587281 C649.40175072 900.27604217 645.91004009 900.28194675 642.41832495 900.28711367 C635.48624766 900.29644712 628.55417676 900.30036297 621.62209398 900.30263263 C613.32147203 900.30559276 605.02085858 900.31428906 596.72024109 900.32304691 C576.65570987 900.34390004 556.59117718 900.35436245 536.52663765 900.36317652 C527.03654335 900.36738177 517.54644968 900.37260392 508.05635591 900.37786105 C475.57723663 900.39575194 443.09811717 900.41074845 410.6189937 900.41818124 C408.57959652 900.418656 406.54019934 900.41913189 404.50080216 900.4196089 C402.98375034 900.41996347 402.98375034 900.41996347 401.43605101 900.42032519 C396.3118719 900.4215264 391.1876928 900.42274185 386.0635137 900.42396718 C385.04660087 900.42420733 384.02968805 900.42444748 382.98195969 900.42469491 C350.00732821 900.43258876 317.03273269 900.45602201 284.05811691 900.48852313 C249.20395228 900.52281415 214.3498087 900.54253171 179.49562693 900.54582548 C175.67004582 900.54624303 171.84446473 900.54672259 168.01888365 900.54724866 C167.07690267 900.54737185 166.1349217 900.54749504 165.16439585 900.54762197 C149.99933121 900.5499549 134.83430831 900.56562003 119.66925855 900.58609051 C104.42800068 900.60633758 89.18679298 900.6118311 73.94552415 900.60231987 C64.88953568 900.59710057 55.83371414 900.60300265 46.77774966 900.62485455 C40.72738823 900.63835125 34.67714185 900.63729564 28.6267793 900.62445259 C25.1800869 900.6175484 21.7337139 900.61691172 18.28704988 900.63401268 C14.56983266 900.64907663 10.85345534 900.63949558 7.13625902 900.62378579 C6.07213597 900.634008 5.00801292 900.64423021 3.91164371 900.65476218 C-8.5044023 900.5401183 -18.477246 895.83179268 -27.60323435 887.54286367 C-34.90287642 879.76921887 -38.98535722 869.88760044 -38.97739512 859.34578115 C-38.97867675 858.32385006 -38.97867675 858.32385006 -38.97998428 857.2812739 C-38.9816307 854.99962859 -38.97613144 852.71805689 -38.97066599 850.43641835 C-38.97038391 848.80038118 -38.97054226 847.16434388 -38.9711085 845.52830678 C-38.97139566 841.08652547 -38.96551191 836.64477112 -38.95853454 832.20299608 C-38.95228763 827.56118005 -38.95169614 822.91936342 -38.95050913 818.27754384 C-38.94739977 809.48742801 -38.93919168 800.69732459 -38.92915964 791.90721422 C-38.91798627 781.90005842 -38.91248496 771.89290202 -38.90746421 761.88574153 C-38.89700876 741.30008781 -38.87941693 720.71444527 -38.8571406 700.12880117 C-40.51947088 700.13433192 -40.51947088 700.13433192 -42.21538359 700.13997442 C-69.19924578 700.22883104 -96.18308896 700.29453193 -123.16706663 700.33604985 C-136.21639879 700.35666203 -149.26563421 700.3847571 -162.31490427 700.43055898 C-173.69060881 700.47046769 -185.06624328 700.49624375 -196.44201589 700.50515515 C-202.46363042 700.510363 -208.48504451 700.52257572 -214.50659472 700.55172139 C-220.17908513 700.57895403 -225.8512933 700.58723021 -231.52384287 700.58123189 C-233.60104953 700.58232861 -235.67826602 700.59023542 -237.75541598 700.60562307 C-253.31721215 700.71521113 -265.83036596 699.32674967 -277.7946406 688.35145742 C-285.40049801 680.33580166 -288.97648585 670.79242323 -288.99136168 659.88939744 C-288.99371391 659.15532345 -288.99606614 658.42124945 -288.99848965 657.66493079 C-289.00517539 655.19176747 -289.00472155 652.71865673 -289.00431162 650.24548513 C-289.00761051 648.45970835 -289.01133613 646.67393232 -289.0154531 644.88815725 C-289.02547839 639.97014724 -289.02919075 635.05214944 -289.03184241 630.13413066 C-289.0357439 624.83400395 -289.04532236 619.53388691 -289.05405527 614.23376638 C-289.07382427 601.42844808 -289.08388654 588.62312899 -289.09278306 575.81779924 C-289.09716533 569.78874063 -289.10253231 563.75968289 -289.10777193 557.73062497 C-289.1247848 537.69058173 -289.13927915 517.65053903 -289.14652067 497.61048967 C-289.14843059 492.40915534 -289.15035092 487.20782102 -289.15230662 482.00648671 C-289.15279036 480.71370732 -289.1532741 479.42092793 -289.1537725 478.08897341 C-289.16207344 457.14508587 -289.18741121 436.20125542 -289.21988729 415.25739282 C-289.2529521 393.75872599 -289.27096892 372.2600882 -289.27416492 350.76139581 C-289.27633056 338.68909495 -289.28508731 326.61687735 -289.31062609 314.54460126 C-289.33232516 304.26356449 -289.34038738 293.98263121 -289.33065931 283.70157414 C-289.32611232 278.45668755 -289.3280242 273.21201453 -289.34742075 267.96715719 C-289.36503648 263.16230457 -289.36406747 258.35782157 -289.34852346 253.55296511 C-289.34614499 251.81803727 -289.35048335 250.08308394 -289.36235211 248.34819507 C-289.45486086 233.92862868 -287.12341001 222.13994321 -277.07979685 211.19130117 C-268.52893329 203.07759832 -258.66909473 199.96820921 -247.13796335 200.00854665 C-246.24841479 200.00769223 -245.35886623 200.0068378 -244.44236165 200.00595748 C-241.45592646 200.00430785 -238.4695472 200.00981565 -235.48311716 200.01527578 C-233.34462332 200.01555779 -231.20612938 200.01539965 -229.0676356 200.01483327 C-223.25606588 200.01454583 -217.44451672 200.02043397 -211.6329518 200.02740723 C-205.56174739 200.03364962 -199.49054254 200.03424527 -193.41933542 200.03543264 C-181.9198995 200.03854333 -170.42047306 200.04675321 -158.92104131 200.05678213 C-145.83050963 200.06795137 -132.73997751 200.07345576 -119.64944226 200.07847756 C-92.71866978 200.08893602 -65.78790572 200.10653042 -38.8571406 200.12880117 C-38.86082777 199.28342133 -38.86451494 198.43804149 -38.86831385 197.56704408 C-38.95677203 176.96726781 -39.0229023 156.36752441 -39.06438929 135.76759797 C-39.08498697 125.80549136 -39.11305403 115.84351178 -39.15889841 105.88148671 C-39.19885185 97.1954053 -39.22459371 88.50941592 -39.23349458 79.82324517 C-39.23869495 75.2268325 -39.25085913 70.63068304 -39.28006083 66.03435498 C-39.30736456 61.70134779 -39.31555561 57.36871034 -39.30957133 53.03562528 C-39.31066491 51.45185629 -39.31852937 49.86807395 -39.3339625 48.28437978 C-39.47086983 33.50079232 -36.34551323 22.47437399 -26.2712031 11.38270742 C-19.30327475 4.83965274 -9.61596394 0.00838024 0 0 Z " fill="#00488D" transform="translate(388.8571406006813,149.87119883298874)"/>
<path d="M0 0 C0.98376123 -0.00327219 1.96752245 -0.00654439 2.98109463 -0.00991574 C4.60186145 -0.0076903 4.60186145 -0.0076903 6.25537103 -0.00541991 C7.4081617 -0.00777214 8.56095237 -0.01012437 9.74867609 -0.01254788 C12.96321039 -0.01807746 16.17771064 -0.01910894 19.39224846 -0.01827047 C22.88396808 -0.01843983 26.37567871 -0.02434441 29.86739385 -0.02951133 C36.79947114 -0.03884479 43.73154204 -0.04276063 50.66362482 -0.0450303 C58.96424676 -0.04799043 67.26486021 -0.05668673 75.56547771 -0.06544458 C95.63000892 -0.0862977 115.69454162 -0.09676012 135.75908115 -0.10557419 C145.24917545 -0.10977943 154.73926912 -0.11500159 164.22936289 -0.12025872 C196.70848217 -0.1381496 229.18760163 -0.15314611 261.6667251 -0.16057891 C263.70612228 -0.16105367 265.74551946 -0.16152955 267.78491664 -0.16200657 C269.30196846 -0.16236113 269.30196846 -0.16236113 270.84966779 -0.16272286 C275.9738469 -0.16392407 281.098026 -0.16513952 286.2222051 -0.16636485 C287.23911792 -0.166605 288.25603075 -0.16684515 289.30375911 -0.16709258 C322.27839059 -0.17498642 355.25298611 -0.19841967 388.22760189 -0.23092079 C423.08176652 -0.26521182 457.9359101 -0.28492937 492.79009187 -0.28822315 C496.61567297 -0.28864069 500.44125406 -0.28912026 504.26683515 -0.28964633 C505.67980661 -0.28983111 505.67980661 -0.28983111 507.12132295 -0.29001964 C522.28638759 -0.29235256 537.45141049 -0.30801769 552.61646025 -0.32848817 C567.85771812 -0.34873524 583.09892582 -0.35422877 598.34019465 -0.34471754 C607.39618312 -0.33949823 616.45200466 -0.34540032 625.50796913 -0.36725221 C631.55833057 -0.38074892 637.60857695 -0.37969331 643.6589395 -0.36685025 C647.1056319 -0.35994607 650.5520049 -0.35930939 653.99866892 -0.37641034 C657.71588614 -0.39147429 661.43226346 -0.38189324 665.14945978 -0.36618346 C666.21358283 -0.37640567 667.27770588 -0.38662787 668.37407508 -0.39715984 C680.7901211 -0.28251597 690.7629648 4.42580965 699.88895315 12.71473867 C706.33309793 19.57733441 711.26890812 29.24675919 711.2670579 38.74211794 C711.26930519 39.67136096 711.27155248 40.60060397 711.27386788 41.55800587 C711.26992735 43.08722845 711.26992735 43.08722845 711.26590723 44.64734441 C711.26706107 45.73589569 711.26821492 46.82444698 711.26940373 47.94598466 C711.27206864 51.62487883 711.2675492 55.30372999 711.26311392 58.98262197 C711.26354964 61.63419716 711.26438227 64.28576951 711.26570308 66.93734413 C711.26777912 72.71844577 711.26612913 78.49953712 711.26206487 84.28063756 C711.2560382 92.87696752 711.25572829 101.47329098 711.25660686 110.06962267 C711.25792188 124.52891837 711.25457513 138.9882095 711.24858946 153.44750386 C711.24267638 167.76805565 711.23882431 182.08860553 711.23773664 196.40915853 C711.2376679 197.2989182 711.23759916 198.18867788 711.23752834 199.10539996 C711.23719002 203.62387296 711.23688863 208.14234596 711.23660146 212.66081896 C711.23449996 244.68139766 711.22775956 276.70197387 711.21829885 308.72255117 C711.20911738 339.83387916 711.20204922 370.94520647 711.19779104 402.05653554 C711.1975204 404.01225772 711.19724969 405.96797989 711.19697893 407.92370206 C711.19479022 423.81426518 711.19274762 439.70482831 711.19074044 455.59539145 C711.1813497 529.10653038 711.16128017 602.61766282 711.1428594 676.12880117 C544.8228594 676.12880117 378.5028594 676.12880117 207.1428594 676.12880117 C208.1328594 672.49880117 209.1228594 668.86880117 210.1428594 665.12880117 C210.5792605 661.06359206 210.5792605 661.06359206 210.52317613 657.11173612 C210.52783605 656.37862628 210.53249597 655.64551643 210.5372971 654.89019114 C210.54913687 652.46226524 210.53989507 650.03491049 210.53053945 647.6069811 C210.53471721 645.83720971 210.54019715 644.067441 210.54685926 642.29767722 C210.56127455 637.45629906 210.55708141 632.6150917 210.54969245 627.77370435 C210.54495338 622.54386353 210.55747717 617.31405927 210.56770986 612.08423024 C210.58488868 601.84703207 210.58573977 591.6098953 210.58049696 581.37268646 C210.57645233 573.05020843 210.5779023 564.72774852 210.58324522 556.40527135 C210.58399364 555.21988517 210.58474206 554.03449898 210.58551316 552.813192 C210.58704467 550.40493038 210.58858302 547.99666876 210.59012813 545.58840714 C210.60384985 523.01422247 210.59841778 500.44007246 210.58694292 477.86588858 C210.57701083 457.22448353 210.58995141 436.58316811 210.61387711 415.94177689 C210.63827318 394.73441382 210.64787473 373.5270925 210.64122438 352.31971568 C210.63773331 340.41849224 210.63995693 328.51733774 210.65747541 316.61612493 C210.67220369 306.48498785 210.67282456 296.35396826 210.6554045 286.22283347 C210.64689739 281.05664315 210.64473805 275.89066264 210.66005605 270.72448331 C210.67392146 265.98948931 210.66911609 261.25488453 210.64981682 256.51991294 C210.64606221 254.81275503 210.64896314 253.10556581 210.65942847 251.39843585 C210.74086846 237.08916168 209.05018148 224.2720862 199.1428594 213.12880117 C193.25775863 207.34382499 186.96285769 204.51325966 179.1428594 202.12880117 C178.1528594 201.79880117 177.1628594 201.46880117 176.1428594 201.12880117 C173.2940677 201.02280675 170.46911411 200.97394932 167.6198644 200.97058278 C166.29907386 200.96317582 166.29907386 200.96317582 164.95160067 200.95561922 C161.98972076 200.94021391 159.02786257 200.93187538 156.0659551 200.9234789 C153.94731097 200.91390276 151.82866877 200.90389284 149.71002859 200.89348012 C143.94800557 200.86639638 138.18597433 200.8454056 132.42392272 200.82547814 C126.40608124 200.80363997 120.38826521 200.77624068 114.37044424 200.74942189 C102.97015818 200.69946563 91.56985802 200.65453769 80.16954434 200.61139953 C67.19267947 200.56205221 54.21584011 200.5071248 41.2389999 200.45171994 C14.5403102 200.33785486 -12.15840397 200.23102568 -38.8571406 200.12880117 C-38.95071209 178.6751098 -39.02118255 157.22145223 -39.06438929 135.76759797 C-39.08498697 125.80549136 -39.11305403 115.84351178 -39.15889841 105.88148671 C-39.19885185 97.1954053 -39.22459371 88.50941592 -39.23349458 79.82324517 C-39.23869495 75.2268325 -39.25085913 70.63068304 -39.28006083 66.03435498 C-39.30736456 61.70134779 -39.31555561 57.36871034 -39.30957133 53.03562528 C-39.31066491 51.45185629 -39.31852937 49.86807395 -39.3339625 48.28437978 C-39.47086983 33.50079232 -36.34551323 22.47437399 -26.2712031 11.38270742 C-19.30327475 4.83965274 -9.61596394 0.00838024 0 0 Z " fill="#2C8BD3" transform="translate(388.8571406006813,149.87119883298874)"/>
<path d="M0 0 C166.65 0 333.3 0 505 0 C505 198.88916256 505 198.88916256 492.4140625 212.74609375 C485.44613415 219.28914842 475.75882334 224.12042092 466.1428594 224.12880117 C464.66721756 224.13370946 464.66721756 224.13370946 463.16176477 224.13871691 C461.54099795 224.13649147 461.54099795 224.13649147 459.88748837 224.13422108 C458.7346977 224.13657331 457.58190703 224.13892554 456.39418331 224.14134905 C453.179649 224.14687863 449.96514876 224.14791011 446.75061094 224.14707164 C443.25889132 224.147241 439.76718069 224.15314558 436.27546555 224.1583125 C429.34338826 224.16764596 422.41131736 224.1715618 415.47923458 224.17383147 C407.17861264 224.1767916 398.87799918 224.18548789 390.57738169 224.19424575 C370.51285047 224.21509887 350.44831778 224.22556129 330.38377825 224.23437535 C320.89368395 224.2385806 311.40359028 224.24380275 301.91349651 224.24905988 C269.43437723 224.26695077 236.95525777 224.28194728 204.4761343 224.28938007 C202.43673712 224.28985483 200.39733994 224.29033072 198.35794276 224.29080774 C196.84089094 224.2911623 196.84089094 224.2911623 195.29319161 224.29152403 C190.1690125 224.29272524 185.0448334 224.29394068 179.9206543 224.29516602 C178.90374147 224.29540617 177.88682865 224.29564632 176.83910029 224.29589374 C143.86446881 224.30378759 110.88987329 224.32722084 77.91525751 224.35972196 C43.06109288 224.39401298 8.2069493 224.41373054 -26.64723247 224.41702431 C-30.47281358 224.41744186 -34.29839466 224.41792142 -38.12397575 224.41844749 C-39.06595673 224.41857069 -40.0079377 224.41869388 -40.97846355 224.4188208 C-56.14352819 224.42115373 -71.30855109 224.43681886 -86.47360085 224.45728934 C-101.71485872 224.47753641 -116.95606642 224.48302994 -132.19733525 224.47351871 C-141.25332372 224.4682994 -150.30914526 224.47420149 -159.36510973 224.49605338 C-165.41547117 224.50955009 -171.46571755 224.50849448 -177.5160801 224.49565142 C-180.9627725 224.48874723 -184.4091455 224.48811056 -187.85580952 224.50521151 C-191.57302674 224.52027546 -195.28940406 224.51069441 -199.00660038 224.49498463 C-200.07072343 224.50520683 -201.13484648 224.51542904 -202.23121569 224.52596101 C-214.6472617 224.41131714 -224.6201054 219.70299152 -233.74609375 211.4140625 C-241.04573582 203.6404177 -245.12821662 193.75879927 -245.12025452 183.21697998 C-245.12110894 182.53569259 -245.12196337 181.8544052 -245.12284368 181.15247273 C-245.1244901 178.87082742 -245.11899084 176.58925572 -245.11352539 174.30761719 C-245.11324331 172.67158001 -245.11340166 171.03554271 -245.1139679 169.39950562 C-245.11425506 164.95772431 -245.10837131 160.51596995 -245.10139394 156.07419491 C-245.09514703 151.43237888 -245.09455554 146.79056226 -245.09336853 142.14874268 C-245.09025917 133.35862684 -245.08205108 124.56852342 -245.07201904 115.77841306 C-245.06084566 105.77125725 -245.05534436 95.76410085 -245.05032361 85.75694036 C-245.03986816 65.17128664 -245.02227633 44.5856441 -245 24 C-243.9090846 23.99853344 -242.81816919 23.99706688 -241.69419575 23.99555588 C-215.11843807 23.95891927 -188.54280601 23.89941506 -161.9671526 23.81609726 C-149.11522532 23.77633134 -136.26335907 23.74392636 -123.41137695 23.72900391 C-112.20624888 23.71597477 -101.00125521 23.68897771 -89.79620284 23.64538693 C-83.86623505 23.62280073 -77.93643285 23.60708763 -72.00641823 23.60811615 C-66.41756163 23.60886442 -60.8290707 23.59084604 -55.24030876 23.55883217 C-53.19622593 23.55035843 -51.15210197 23.54856594 -49.10800934 23.55419731 C-33.75261472 23.59084482 -20.03357474 22.81125016 -8 12 C-4.62522658 8.29206796 -1.59665464 4.78996393 0 0 Z " fill="#2150A9" transform="translate(595,826)"/>
<path d="M0 0 C165 0 330 0 500 0 C500 74.58 500 149.16 500 226 C333.68 226 167.36 226 -4 226 C-3.01 222.37 -2.02 218.74 -1 215 C-0.67 144.05 -0.34 73.1 0 0 Z " fill="#2D6FC8" transform="translate(600,600)"/>
<path d="M0 0 C16.17 0 32.34 0 49 0 C53.37819979 18.33371163 57.45778173 36.67531611 61.15820312 55.15649414 C62.84272766 63.54087635 64.64302611 71.87827695 66.63581848 80.19503784 C67.88199935 85.41960946 68.94041981 90.64996526 69.875 95.9375 C71.34225881 103.93147916 73.0739506 111.83948304 74.9375 119.75 C77.21360636 129.41328127 79.26708387 139.09746558 81.16455078 148.84179688 C82.75343227 156.94238195 84.54558489 164.98492243 86.47680664 173.01074219 C87.43476569 177.07443616 88.30444535 180.78995568 88 185 C88.66 185 89.32 185 90 185 C90.13341797 183.28490234 90.13341797 183.28490234 90.26953125 181.53515625 C91.10560327 174.05428145 92.97990312 166.75682728 94.6875 159.4375 C95.05146911 157.86072314 95.41523661 156.28389973 95.77880859 154.70703125 C98.02737909 144.99205361 100.38829122 135.3098799 102.85253906 125.6472168 C104.69300855 118.37810945 106.33930272 111.07585892 107.9375 103.75 C109.96510565 94.45580765 112.15663216 85.21959767 114.5 76 C116.82219652 66.86336438 118.99449856 57.71134597 121 48.5 C124.54597023 32.22884294 128.42451032 16.01421387 133 0 C151.15 0 169.3 0 188 0 C192.66712143 19.02749507 197.28737936 38.04244497 201.54516602 57.16430664 C203.47041515 65.76956148 205.55174207 74.32253876 207.73120117 82.86645508 C209.9687394 91.70921207 211.96342246 100.60298263 213.94674683 109.50524902 C216.08153975 119.07606917 218.35911441 128.59892915 220.79199219 138.09838867 C223.08574479 147.13562 225.07605502 156.23501331 226.99633789 165.35839844 C227.22957764 166.44282227 227.46281738 167.52724609 227.703125 168.64453125 C228.00718262 170.08856323 228.00718262 170.08856323 228.31738281 171.56176758 C228.92792606 174.22755175 228.92792606 174.22755175 231 177 C233.4639129 165.92303848 235.88768209 154.84943311 237.9375 143.6875 C239.61221617 134.60745246 241.67100913 125.63885356 243.78881836 116.65307617 C245.35380211 109.95905448 246.76663537 103.26260098 248 96.5 C249.64522086 87.47917037 251.68563894 78.57627439 253.7890625 69.65234375 C255.35384754 62.95854107 256.76667728 56.26234901 258 49.5 C259.68109789 40.28272904 261.74083347 31.17237254 263.89453125 22.0546875 C265.22815763 16.40265187 266.48565267 10.75397076 267.56591797 5.04760742 C268 3 268 3 269 0 C285.17 0 301.34 0 318 0 C316.81848358 6.49834033 315.64926329 12.8392597 314.046875 19.21875 C313.67446219 20.72851144 313.30206705 22.23827723 312.9296875 23.74804688 C312.64109863 24.91001587 312.64109863 24.91001587 312.34667969 26.09545898 C309.4255179 37.8673585 306.57318799 49.64640151 304 61.5 C301.49527398 73.02103113 298.71915105 84.46632008 295.90673828 95.91503906 C293.49192443 105.75405727 291.15280166 115.59954489 289 125.5 C286.49483165 137.02094372 283.71915451 148.46630599 280.90673828 159.91503906 C278.23616401 170.79613822 275.69593252 181.69300879 273.31738281 192.64233398 C270.77054589 204.25678858 267.92194476 215.79718153 265.0703125 227.33984375 C264.8821698 228.10445419 264.6940271 228.86906464 264.50018311 229.65684509 C264.15061578 231.07673078 263.79927015 232.49618061 263.44561768 233.91505432 C262.13032993 239.26045845 261.08299697 244.58501513 260 250 C241.19 250 222.38 250 203 250 C201.19921948 243.39713808 199.46743921 236.9286325 198.08984375 230.25 C197.74167592 228.59567377 197.39336204 226.94137827 197.04492188 225.28710938 C196.86501709 224.42754639 196.6851123 223.5679834 196.49975586 222.68237305 C193.19321301 206.90773724 189.69708947 191.18747508 186 175.5 C182.65151539 161.28186894 179.46051988 147.04089588 176.4375 132.75 C172.49862391 114.13031455 168.28094529 95.58344215 163.94628906 77.05224609 C162.61799871 71.37113298 161.30820783 65.68576862 160 60 C159.78907715 61.0202124 159.5781543 62.0404248 159.36083984 63.09155273 C152.31221066 97.12985639 152.31221066 97.12985639 149.0625 110.25 C146.36513049 121.1594231 144.01584025 132.13238264 141.6875 143.125 C138.75862628 156.94979087 135.717932 170.73960044 132.5 184.5 C128.7525002 200.52680543 125.24550867 216.59852331 121.83007812 232.69921875 C121.6473938 233.56021683 121.46470947 234.4212149 121.27648926 235.30830383 C120.93533998 236.91829231 120.59503582 238.52846019 120.2557373 240.13883972 C119.55713294 243.44334153 118.81934807 246.7226077 118 250 C98.2 250 78.4 250 58 250 C56.96875 245.38 55.9375 240.76 54.875 236 C52.67363642 226.1995355 50.41087161 216.4236578 47.9375 206.6875 C45.04860901 195.31326715 42.40780219 183.88960333 39.79296875 172.44970703 C38.40222127 166.39944168 36.97960967 160.35663385 35.5625 154.3125 C33.28363664 144.58549072 31.05986719 134.84787843 28.87908936 125.09857178 C26.45925374 114.28372941 23.92247213 103.51027909 21.19677734 92.76831055 C17.63205909 78.67620105 14.44963039 64.49338528 11.27734375 50.30859375 C10.83339183 48.32560341 10.38923166 46.34266003 9.94482422 44.35977173 C9.64950835 43.04209485 9.35442177 41.72436657 9.05957031 40.40658569 C6.79506596 30.30158176 4.37516203 20.24475614 1.77734375 10.22021484 C1.54273438 9.3070752 1.308125 8.39393555 1.06640625 7.453125 C0.85959229 6.66067383 0.65277832 5.86822266 0.43969727 5.05175781 C0 3 0 3 0 0 Z " fill="#FDFDFE" transform="translate(191,475)"/>
</svg>
